<svg id="Layer_1" data-name="Layer 1" xmlns="http://www.w3.org/2000/svg" width="30" height="30" viewBox="0 0 32 32">
  <title>codepen</title>
  <g opacity="0.2">
    <polygon points="8.33 14.67 8.33 17.33 10.33 16 8.33 14.67"/>
    <polygon points="23.03 13.18 16.8 9.02 16.8 12.73 20.25 15.04 23.03 13.18"/>
    <polygon points="15.21 12.73 15.21 9.02 8.97 13.18 11.75 15.04 15.21 12.73"/>
    <polygon points="8.97 18.82 15.21 22.98 15.21 19.27 11.75 16.96 8.97 18.82"/>
    <polygon points="16.8 19.27 16.8 22.98 23.03 18.82 20.25 16.96 16.8 19.27"/>
    <path d="M16,0A16,16,0,1,0,32,16,16,16,0,0,0,16,0Zm9.26,18.82a.79.79,0,0,1-.35.66l-8.47,5.65a.8.8,0,0,1-.88,0L7.09,19.48a.79.79,0,0,1-.35-.66V13.18a.79.79,0,0,1,.35-.66l8.47-5.65a.8.8,0,0,1,.88,0l8.47,5.65a.79.79,0,0,1,.35.66Z"/>
    <polygon points="16 14.12 13.19 16 16 17.88 18.81 16 16 14.12"/>
    <polygon points="23.67 17.33 23.67 14.67 21.68 16 23.67 17.33"/>
  </g>
</svg>
