<svg id="Layer_1" data-name="Layer 1" xmlns="http://www.w3.org/2000/svg" width="98.76" height="114.67" viewBox="0 0 98.76 114.67">
  <defs>
    <style>
      .cls-1 {
        fill: #008e7f;
      }
    </style>
  </defs>
  <title>dots</title>
  <g>
    <path class="cls-1" d="M4.81,94.69v-.41c0-2.07,2.45-2.55,3.59-1.57a2,2,0,0,1,.69,1.57v.41a2,2,0,0,1-.69,1.57A2.18,2.18,0,0,1,7,96.78,2.05,2.05,0,0,1,4.81,94.69Z"/>
    <path class="cls-1" d="M10.12,114.67A2.05,2.05,0,0,1,8,112.58v-.42c0-2.73,4.27-2.73,4.27,0v.42a2,2,0,0,1-.69,1.57A2.21,2.21,0,0,1,10.12,114.67Z"/>
    <path class="cls-1" d="M16.58,103.79a2.06,2.06,0,0,1-1.14.35,2.18,2.18,0,0,1-1-.25l-.84-.42a1.93,1.93,0,0,1-1.1-1.61,2.31,2.31,0,0,1,1.06-2,2.08,2.08,0,0,1,2.14-.1l.84.42a1.93,1.93,0,0,1,1.1,1.61A2.29,2.29,0,0,1,16.58,103.79Z"/>
    <path class="cls-1" d="M23.55,113.83a2,2,0,0,1-2.13-2.09v-.42c0-2.07,2.44-2.54,3.58-1.56a2,2,0,0,1,.69,1.56v.42a2,2,0,0,1-.69,1.57A2.22,2.22,0,0,1,23.55,113.83Z"/>
    <path class="cls-1" d="M32.84,111a2,2,0,0,1-2.08-2.14,2.09,2.09,0,0,1,3.65-1.44,2.22,2.22,0,0,1,.52,1.45A2,2,0,0,1,32.84,111Z"/>
    <path class="cls-1" d="M44.69,112.61a2,2,0,0,1-2.08-2.13,2.23,2.23,0,0,1,.51-1.45,2.18,2.18,0,0,1,3.14,0,2.23,2.23,0,0,1,.51,1.45A2,2,0,0,1,44.69,112.61Z"/>
    <path class="cls-1" d="M39.68,103.7a2.05,2.05,0,0,1-2.08-2.14,2.2,2.2,0,0,1,.52-1.45,2,2,0,0,1,1.56-.68,2,2,0,0,1,2.09,2.13,2.24,2.24,0,0,1-.52,1.45A2,2,0,0,1,39.68,103.7Z"/>
    <path class="cls-1" d="M58,114.25a2.24,2.24,0,0,1-1.45-.52,2,2,0,0,1-.69-1.57v-.42c0-2.07,2.45-2.54,3.59-1.56a2,2,0,0,1,.69,1.56v.42A2.05,2.05,0,0,1,58,114.25Z"/>
    <path class="cls-1" d="M54.4,102.79,54,102.4a1.93,1.93,0,0,1-.66-1.83,2.3,2.3,0,0,1,1.52-1.68,2.1,2.1,0,0,1,2.11.44l.45.39a1.89,1.89,0,0,1,.66,1.82,2.3,2.3,0,0,1-1.52,1.68,2.15,2.15,0,0,1-.7.12A2.12,2.12,0,0,1,54.4,102.79Z"/>
    <path class="cls-1" d="M74,113.46a2,2,0,0,1-2.08-2.14,2.25,2.25,0,0,1,.51-1.45A2.09,2.09,0,0,1,76,111.33,2,2,0,0,1,74,113.46Z"/>
    <path class="cls-1" d="M66.11,106.83h-.42a2,2,0,0,1-2.08-2.14,2.23,2.23,0,0,1,.51-1.45,2,2,0,0,1,1.57-.69h.42a2,2,0,0,1,2.08,2.14,2.23,2.23,0,0,1-.51,1.45A2,2,0,0,1,66.11,106.83Z"/>
    <path class="cls-1" d="M68.93,97.88a2.25,2.25,0,0,1,.51-1.45,2.1,2.1,0,0,1,3.65,1.46,2.25,2.25,0,0,1-.51,1.45,2.1,2.1,0,0,1-3.65-1.46Z"/>
    <path class="cls-1" d="M89.06,114.25a2.21,2.21,0,0,1-1.44-.52,2,2,0,0,1-.69-1.57v-.84c0-2.07,2.44-2.54,3.59-1.56a2,2,0,0,1,.68,1.56v.84A2,2,0,0,1,89.06,114.25Z"/>
    <path class="cls-1" d="M83.12,105.86A2,2,0,0,1,81,103.72a2.23,2.23,0,0,1,.51-1.45,2.18,2.18,0,0,1,3.14,0,2.23,2.23,0,0,1,.51,1.45A2,2,0,0,1,83.12,105.86Z"/>
    <path class="cls-1" d="M83.38,93.05a2.14,2.14,0,1,1,2.08-2.13A2.25,2.25,0,0,1,85,92.37,2,2,0,0,1,83.38,93.05Z"/>
    <path class="cls-1" d="M91.84,102.91a2,2,0,0,1-2.08-2.14,2.25,2.25,0,0,1,.51-1.45,2.09,2.09,0,0,1,3.65,1.45A2,2,0,0,1,91.84,102.91Z"/>
    <path class="cls-1" d="M94.53,92a2.05,2.05,0,0,1-2.14-2.08v-.42c0-2.07,2.44-2.55,3.59-1.57a2,2,0,0,1,.68,1.57v.42A2,2,0,0,1,96,91.47,2.16,2.16,0,0,1,94.53,92Z"/>
    <path class="cls-1" d="M85.27,80.25a2.18,2.18,0,0,1-.52,1.45,2,2,0,0,1-1.56.68,2,2,0,0,1-2.09-2.13,2.24,2.24,0,0,1,.52-1.45,2,2,0,0,1,1.57-.69A2.05,2.05,0,0,1,85.27,80.25Z"/>
    <path class="cls-1" d="M75.51,87.2A2.18,2.18,0,0,1,76,88.65a2.08,2.08,0,1,1-4.16,0,2.23,2.23,0,0,1,.51-1.45A2.17,2.17,0,0,1,75.51,87.2Z"/>
    <path class="cls-1" d="M63,93.72A2,2,0,0,1,61,91.58a2.2,2.2,0,0,1,.51-1.44A2,2,0,0,1,63,89.45h.42a2,2,0,0,1,2.08,2.14A2.2,2.2,0,0,1,65,93a2,2,0,0,1-1.57.69Z"/>
    <path class="cls-1" d="M55.05,80.21h.84a2,2,0,0,1,1.57.69A2.23,2.23,0,0,1,58,82.35a2,2,0,0,1-2.08,2.13h-.84a2.14,2.14,0,0,1,0-4.27Z"/>
    <path class="cls-1" d="M66.29,76.92h-.11a1.92,1.92,0,0,1-1.61-1.1L64.14,75a2.17,2.17,0,0,1,1-3,1.92,1.92,0,0,1,2.7.86l.43.84a2.1,2.1,0,0,1-.1,2.14A2.32,2.32,0,0,1,66.29,76.92Z"/>
    <path class="cls-1" d="M45.39,95.4a2.14,2.14,0,1,1,2.09-2.13A2.26,2.26,0,0,1,47,94.72,2,2,0,0,1,45.39,95.4Z"/>
    <path class="cls-1" d="M27.35,97.89A2.09,2.09,0,1,1,29.44,100,2,2,0,0,1,27.35,97.89Z"/>
    <path class="cls-1" d="M34.47,88.26a2.14,2.14,0,1,1,2.09-2.13A2.26,2.26,0,0,1,36,87.58,2,2,0,0,1,34.47,88.26Z"/>
    <path class="cls-1" d="M74.62,22.86a2.24,2.24,0,0,1,.52,1.45,2.09,2.09,0,1,1-4.17,0,2.09,2.09,0,0,1,3.65-1.45Z"/>
    <path class="cls-1" d="M18.62,93.05a2.05,2.05,0,0,1-2.09-2.14,2.24,2.24,0,0,1,.52-1.45,2.09,2.09,0,0,1,3.65,1.45A2.05,2.05,0,0,1,18.62,93.05Z"/>
    <path class="cls-1" d="M10.19,81.49a2.09,2.09,0,1,1,4.17,0,2.24,2.24,0,0,1-.52,1.45,2.1,2.1,0,0,1-3.65-1.45Z"/>
    <path class="cls-1" d="M18.18,68.42A2.2,2.2,0,0,1,18.69,67a2,2,0,0,1,1.57-.69,2,2,0,0,1,2.08,2.14,2.2,2.2,0,0,1-.52,1.45,2,2,0,0,1-1.56.68A2,2,0,0,1,18.18,68.42Z"/>
    <path class="cls-1" d="M2.16,76.89a2,2,0,0,1,2.08-2.14,2,2,0,0,1,2.08,2.14,2.23,2.23,0,0,1-.51,1.45A2,2,0,0,1,4.24,79,2,2,0,0,1,2.16,76.89Z"/>
    <path class="cls-1" d="M3.59,58.1a2,2,0,0,1,.68,1.57v.42a2,2,0,0,1-2.13,2.08,2.23,2.23,0,0,1-1.45-.51A2,2,0,0,1,0,60.09v-.42C0,57.6,2.44,57.12,3.59,58.1Z"/>
    <path class="cls-1" d="M86.45,36.06a2.25,2.25,0,0,1-.51,1.45,2.19,2.19,0,1,1,.51-1.45Z"/>
    <path class="cls-1" d="M24.81,80.65a2.2,2.2,0,0,1-1.45-.52,2,2,0,0,1-.68-1.56v-.42c0-2.73,4.27-2.74,4.27,0v.42A2,2,0,0,1,24.81,80.65Z"/>
    <path class="cls-1" d="M46.48,78.82a2,2,0,0,1-1.44.63,2.18,2.18,0,0,1-1.54-.67,2,2,0,0,1,0-3l.42-.42a2.14,2.14,0,0,1,3,3Z"/>
    <path class="cls-1" d="M41.21,67.23a2.18,2.18,0,0,1,.52-1.45,2,2,0,0,1,1.56-.69,2.05,2.05,0,0,1,2.09,2.14,2.24,2.24,0,0,1-.52,1.45,2.1,2.1,0,0,1-3.65-1.45Z"/>
    <path class="cls-1" d="M35.62,70.82a2.24,2.24,0,0,1,.52,1.45,2.09,2.09,0,1,1-4.17,0,2.09,2.09,0,0,1,3.65-1.45Z"/>
    <path class="cls-1" d="M20.08,54.44a2.26,2.26,0,0,1,.52,1.45,2.09,2.09,0,1,1-4.17,0A2.24,2.24,0,0,1,17,54.44,2.17,2.17,0,0,1,20.08,54.44Z"/>
    <path class="cls-1" d="M11.38,62.15a2.05,2.05,0,0,1,2.08,2.14,2.18,2.18,0,0,1-.52,1.45,2,2,0,0,1-1.56.69,2.14,2.14,0,0,1,0-4.28Z"/>
    <path class="cls-1" d="M13,38.25a2.09,2.09,0,1,1-4.17,0,2.24,2.24,0,0,1,.52-1.45,2.18,2.18,0,0,1,3.13,0A2.2,2.2,0,0,1,13,38.25Z"/>
    <path class="cls-1" d="M8.25,13.36a2,2,0,0,1-.69-1.56v-.42c0-2.07,2.44-2.56,3.59-1.57a2,2,0,0,1,.68,1.57v.42A2,2,0,0,1,9.7,13.88,2.18,2.18,0,0,1,8.25,13.36Z"/>
    <path class="cls-1" d="M22.48,18.21a2,2,0,0,1,.69,1.56v.43A2,2,0,0,1,21,22.28a2.16,2.16,0,0,1-1.44-.52,2,2,0,0,1-.69-1.56v-.43C18.9,17.7,21.34,17.22,22.48,18.21Z"/>
    <path class="cls-1" d="M15.58,24.78a2,2,0,0,1,2.08,2.14,2.16,2.16,0,0,1-.52,1.44,2,2,0,0,1-1.56.69,2,2,0,0,1-2.09-2.14A2.21,2.21,0,0,1,14,25.47,2,2,0,0,1,15.58,24.78Z"/>
    <path class="cls-1" d="M34.46,37.41a2.24,2.24,0,0,1-.52,1.45,2.17,2.17,0,1,1,.52-1.45Z"/>
    <path class="cls-1" d="M22.88,42.62a2.14,2.14,0,0,1,3,3l-.43.42a2,2,0,0,1-1.44.63A2.2,2.2,0,0,1,22.5,46a2,2,0,0,1,0-3Z"/>
    <path class="cls-1" d="M14.3,50a2.09,2.09,0,1,1-4.17,0,2.24,2.24,0,0,1,.52-1.45,2.18,2.18,0,0,1,3.13,0A2.2,2.2,0,0,1,14.3,50Z"/>
    <path class="cls-1" d="M47.48,45.81A2.24,2.24,0,0,1,47,47.26a2,2,0,0,1-1.57.69h-.84a2,2,0,0,1-2.08-2.14A2.18,2.18,0,0,1,43,44.36a2,2,0,0,1,1.56-.69h.84A2.05,2.05,0,0,1,47.48,45.81Z"/>
    <path class="cls-1" d="M34.49,52.53a2.09,2.09,0,0,1,3.65-1.45,2.25,2.25,0,0,1,.51,1.45,2.08,2.08,0,1,1-4.16,0Z"/>
    <path class="cls-1" d="M36.14,60.09a2.09,2.09,0,1,1-4.17,0,2.09,2.09,0,0,1,3.65-1.45A2.24,2.24,0,0,1,36.14,60.09Z"/>
    <path class="cls-1" d="M59.29,61.35a2,2,0,0,1-2.14,2.08,2.23,2.23,0,0,1-1.45-.51A2,2,0,0,1,55,61.35v-.42c0-2.07,2.45-2.55,3.59-1.57a2,2,0,0,1,.69,1.57Z"/>
    <path class="cls-1" d="M55.47,70.62a2,2,0,0,1-2.08-2.13A2.23,2.23,0,0,1,53.9,67a2.1,2.1,0,0,1,3.65,1.45A2.23,2.23,0,0,1,57,69.94,2,2,0,0,1,55.47,70.62Z"/>
    <path class="cls-1" d="M69.35,63.45A2.23,2.23,0,0,1,69.86,62,2.18,2.18,0,0,1,73,62a2.23,2.23,0,0,1,.51,1.45,2.08,2.08,0,1,1-4.16,0Z"/>
    <path class="cls-1" d="M78.59,67.65a2.08,2.08,0,1,1,4.16,0,2.18,2.18,0,0,1-.52,1.45,2,2,0,0,1-1.56.69A2,2,0,0,1,78.59,67.65Z"/>
    <path class="cls-1" d="M93.27,69.73a2.23,2.23,0,0,1-1.45-.51,2,2,0,0,1-.69-1.57v-.84c0-2.07,2.44-2.55,3.59-1.57a2,2,0,0,1,.68,1.57v.84A2,2,0,0,1,93.27,69.73Z"/>
    <path class="cls-1" d="M97.72,78.82a2,2,0,0,1-1.45.63,2.2,2.2,0,0,1-1.54-.67,2,2,0,0,1,0-3l.43-.42a2,2,0,0,1,2-.56,2.33,2.33,0,0,1,1.62,1.61,2,2,0,0,1-.56,2Z"/>
    <path class="cls-1" d="M58.83,1.26A2,2,0,0,1,60.91,3.4a2.25,2.25,0,0,1-.51,1.45A2.1,2.1,0,0,1,56.75,3.4,2,2,0,0,1,58.83,1.26Z"/>
    <path class="cls-1" d="M75.86,6.22a2,2,0,0,1-.69-1.56V4.24c0-2.73,4.28-2.74,4.28,0v.42a2.05,2.05,0,0,1-2.14,2.08A2.18,2.18,0,0,1,75.86,6.22Z"/>
    <path class="cls-1" d="M95.37,14.7a2,2,0,0,1,2.08,2.14,2.2,2.2,0,0,1-.52,1.45,2,2,0,0,1-1.56.68,2,2,0,0,1-2.09-2.14,2.26,2.26,0,0,1,.52-1.45A2,2,0,0,1,95.37,14.7Z"/>
    <path class="cls-1" d="M83.19,10.08a2.05,2.05,0,0,1,2.08,2.14,2.2,2.2,0,0,1-.52,1.45,2,2,0,0,1-1.56.68,2,2,0,0,1-2.09-2.13,2.24,2.24,0,0,1,.52-1.45A2,2,0,0,1,83.19,10.08Z"/>
    <path class="cls-1" d="M83.38,25.35a2,2,0,0,1,.69,1.56v.42a2.05,2.05,0,0,1-2.14,2.09,2.18,2.18,0,0,1-1.45-.52,2,2,0,0,1-.69-1.57v-.42C79.79,24.84,82.23,24.36,83.38,25.35Z"/>
    <path class="cls-1" d="M84,55.45a2,2,0,0,1-2.14-2.08V53c0-2.73,4.27-2.74,4.27,0v.42a2,2,0,0,1-.69,1.57A2.2,2.2,0,0,1,84,55.45Z"/>
    <path class="cls-1" d="M89.5,42.45a2,2,0,0,1,2.09-2.13H92a2,2,0,0,1,1.56.69,2.16,2.16,0,0,1,.52,1.44A2.05,2.05,0,0,1,92,44.59h-.42A2.05,2.05,0,0,1,89.5,42.45Z"/>
    <path class="cls-1" d="M76.05,44.17A2,2,0,0,1,74,42a2.23,2.23,0,0,1,.51-1.45,2.19,2.19,0,0,1,3.14,0A2.25,2.25,0,0,1,78.13,42,2,2,0,0,1,76.05,44.17Z"/>
    <path class="cls-1" d="M70.59,47.46a2,2,0,0,1,2.08,2.13A2.23,2.23,0,0,1,72.16,51a2,2,0,0,1-1.57.69,2.14,2.14,0,0,1,0-4.27Z"/>
    <path class="cls-1" d="M60.11,38.67a2.08,2.08,0,1,1,4.16,0,2.23,2.23,0,0,1-.51,1.45,2,2,0,0,1-1.57.69A2,2,0,0,1,60.11,38.67Z"/>
    <path class="cls-1" d="M57.15,50.83A2,2,0,0,1,55,48.75v-.84c0-2.73,4.28-2.73,4.28,0v.84a2,2,0,0,1-.69,1.57A2.23,2.23,0,0,1,57.15,50.83Z"/>
    <path class="cls-1" d="M48.33,34.51a2,2,0,0,1-2.08-2.14,2.25,2.25,0,0,1,.51-1.45,2.09,2.09,0,0,1,3.65,1.45A2,2,0,0,1,48.33,34.51Z"/>
    <path class="cls-1" d="M69,30.69v.42a2.05,2.05,0,0,1-2.14,2.09,2.24,2.24,0,0,1-1.45-.52,2,2,0,0,1-.69-1.57v-.42c0-2.07,2.45-2.55,3.59-1.56A2,2,0,0,1,69,30.69Z"/>
    <path class="cls-1" d="M67.4,13.23a2.14,2.14,0,0,1,3,3l-.42.42a2.07,2.07,0,0,1-1.45.62H68.4A2.21,2.21,0,0,1,67,16.63a2.05,2.05,0,0,1,0-3Z"/>
    <path class="cls-1" d="M58.3,19.59A2.21,2.21,0,0,1,58.81,21a2.08,2.08,0,1,1-4.16,0,2.08,2.08,0,0,1,3.65-1.44Z"/>
    <path class="cls-1" d="M49.48,16.61a2.1,2.1,0,0,1-3.65-1.46,2.08,2.08,0,1,1,4.16,0A2.25,2.25,0,0,1,49.48,16.61Z"/>
    <path class="cls-1" d="M39.7,22a2,2,0,0,1,.69,1.56v.84A2,2,0,0,1,39.7,26a2.24,2.24,0,0,1-1.45.52,2,2,0,0,1-2.13-2.09v-.84C36.12,21.48,38.56,21,39.7,22Z"/>
    <path class="cls-1" d="M40.24,9.09a2.22,2.22,0,0,1,.52,1.45,2.09,2.09,0,1,1-4.17,0,2.09,2.09,0,0,1,3.65-1.44Z"/>
    <path class="cls-1" d="M45.83,2.14a2.08,2.08,0,1,1,4.16,0,2.25,2.25,0,0,1-.51,1.45,2.1,2.1,0,0,1-3.65-1.45Z"/>
    <path class="cls-1" d="M24.83,8.86a2.09,2.09,0,0,1,3.65-1.45A2.24,2.24,0,0,1,29,8.86a2.09,2.09,0,1,1-4.17,0Z"/>
    <path class="cls-1" d="M27.72,25.65v-.42c0-2.73,4.27-2.73,4.27,0v.42a2,2,0,0,1-.69,1.57,2.24,2.24,0,0,1-1.45.52A2,2,0,0,1,27.72,25.65Z"/>
    <path class="cls-1" d="M26,31.77a2.21,2.21,0,0,1,.52,1.44,2.09,2.09,0,1,1-4.17,0,2.2,2.2,0,0,1,.52-1.45A2.17,2.17,0,0,1,26,31.77Z"/>
    <path class="cls-1" d="M49,57.22a2.1,2.1,0,0,1-1.15.35,2.19,2.19,0,0,1-1-.24L46,56.91A1.84,1.84,0,0,1,45,55.67a2,2,0,0,1,.17-1.44,2.19,2.19,0,0,1,3-1l.84.42a1.89,1.89,0,0,1,1.1,1.6A2.28,2.28,0,0,1,49,57.22Z"/>
  </g>
</svg>
