<svg id="Layer_1" data-name="Layer 1" xmlns="http://www.w3.org/2000/svg" viewBox="0 0 1129.97 561.54">
  <defs>
    <style>
      .cls-1 {
        fill: #008e7f;
      }
    </style>
  </defs>
  <title>front</title>
  <g>
    <g>
      <path class="cls-1" d="M818.23,142.42a6.16,6.16,0,0,0-7.64,1.45,5.86,5.86,0,0,0-1.21,3.25h2.75a3.16,3.16,0,0,1,.59-1.56,3.38,3.38,0,0,1,4.14-.78,1.35,1.35,0,0,0,1.86-.5A1.38,1.38,0,0,0,818.23,142.42Z"/>
      <path class="cls-1" d="M838.25,142.73a10.57,10.57,0,0,0-.91-1.14,1.36,1.36,0,0,0-2,1.85,5.72,5.72,0,0,1,1.54,2.91,3.33,3.33,0,0,1,0,.77h2.71a6.54,6.54,0,0,0,0-1.17A7.79,7.79,0,0,0,838.25,142.73Z"/>
      <path class="cls-1" d="M897.76,140.7a1.37,1.37,0,0,0-.7,1.8,6.3,6.3,0,0,1,.12,4.62H900a9.08,9.08,0,0,0-.48-5.73A1.35,1.35,0,0,0,897.76,140.7Z"/>
      <path class="cls-1" d="M786.53,133.52a7.74,7.74,0,0,0-4-1v2.71a4.83,4.83,0,0,1,2.66.63,5,5,0,0,1,2.38,3.71,1.35,1.35,0,0,0,1.49,1.22h.11a1.37,1.37,0,0,0,1.11-1.48A7.73,7.73,0,0,0,786.53,133.52Z"/>
      <path class="cls-1" d="M788.74,102.3a1.37,1.37,0,0,0-.73-1.79,1.36,1.36,0,0,0-1.78.73,7.47,7.47,0,0,1-3.75,4v2.92a8.38,8.38,0,0,0,2.65-1.26A10.85,10.85,0,0,0,788.74,102.3Z"/>
      <path class="cls-1" d="M785.5,78.2a15.36,15.36,0,0,1,.79,4.12,1.37,1.37,0,0,0,1.38,1.22h.12A1.37,1.37,0,0,0,789,82a17.69,17.69,0,0,0-1-4.85,6.82,6.82,0,0,0-3.87-4,5.69,5.69,0,0,0-1.68-.28v2.71a2.75,2.75,0,0,1,.76.13A4.17,4.17,0,0,1,785.5,78.2Z"/>
      <path class="cls-1" d="M786.22,21.85a4.89,4.89,0,0,1,2.69,4.47,1.36,1.36,0,0,0,1.29,1.43,1.38,1.38,0,0,0,1.43-1.3,7.6,7.6,0,0,0-4.25-7.06,7.45,7.45,0,0,0-4.9-.46v2.86A4.85,4.85,0,0,1,786.22,21.85Z"/>
      <path class="cls-1" d="M787.05,9.7a13,13,0,0,0,2.75-2.24,1.36,1.36,0,1,0-2-1.89,8.57,8.57,0,0,1-3.45,2.36,4.69,4.69,0,0,1-1.91.19v2.7a7.13,7.13,0,0,0,2.73-.3A9.09,9.09,0,0,0,787.05,9.7Z"/>
      <path class="cls-1" d="M876.26,21.73a1.36,1.36,0,1,0,1.12-2.48,8,8,0,0,0-11.21,8.5,1.36,1.36,0,0,0,1.36,1.16l.19,0a1.37,1.37,0,0,0,1.14-1.55,5.27,5.27,0,0,1,7.4-5.61Z"/>
      <path class="cls-1" d="M889.48,21.76a1.33,1.33,0,0,0,.95-.41,1.37,1.37,0,0,0,0-1.93,7.13,7.13,0,0,1-2.14-4.76,3.7,3.7,0,0,1,.49-2.24,1.43,1.43,0,0,1,1.35-.68,1.36,1.36,0,1,0,.6-2.66,4.13,4.13,0,0,0-4.19,1.79,6.26,6.26,0,0,0-1,3.92,9.86,9.86,0,0,0,3,6.59A1.34,1.34,0,0,0,889.48,21.76Z"/>
      <path class="cls-1" d="M892.51,1.16a16.88,16.88,0,0,0-5.19,2.14,1.36,1.36,0,1,0,1.33,2.38A14.52,14.52,0,0,1,893,3.85a3.93,3.93,0,0,1,3.53.92,6.64,6.64,0,0,1,1.15,3.44A1.38,1.38,0,0,0,899,9.37l.18,0a1.36,1.36,0,0,0,1.15-1.55A9,9,0,0,0,898.53,3,6.58,6.58,0,0,0,892.51,1.16Z"/>
      <path class="cls-1" d="M865.58,5.86a1.92,1.92,0,0,1,.65-2.24,1.36,1.36,0,1,0-1.31-2.38A4.62,4.62,0,0,0,863,6.77a6.41,6.41,0,0,0,4,3.74,13.86,13.86,0,0,0,4.86.64h0a1.36,1.36,0,0,0,0-2.72A11.18,11.18,0,0,1,867.93,8,3.8,3.8,0,0,1,865.58,5.86Z"/>
      <path class="cls-1" d="M847.74,3.63a4.1,4.1,0,0,1,4,3.65,4.09,4.09,0,0,1-3.46,4.11,1.36,1.36,0,0,0,.17,2.72h.12a6.78,6.78,0,0,0,5.89-7A6.77,6.77,0,0,0,847.7.91h0a1.35,1.35,0,0,0-1.33,1.38A1.36,1.36,0,0,0,847.74,3.63Z"/>
      <path class="cls-1" d="M850.4,27.25a3.38,3.38,0,0,0,.45,0,6.2,6.2,0,0,0,3.95-1.43,5.12,5.12,0,0,0,1.79-4.52,1.36,1.36,0,0,0-2.7.38,2.41,2.41,0,0,1-.86,2.07,3.61,3.61,0,0,1-2.5.78,1.87,1.87,0,0,1-1.31-.48.51.51,0,0,1-.11-.4,1.36,1.36,0,0,0-1.81-2,3.05,3.05,0,0,0-.15,4.21A4.53,4.53,0,0,0,850.4,27.25Z"/>
      <path class="cls-1" d="M851.94,46.57a3.56,3.56,0,0,0,1.89-.56,1.36,1.36,0,1,0-1.46-2.29,1.5,1.5,0,0,1-1.81-.6,3.32,3.32,0,0,1-.1-2.85,12.71,12.71,0,0,1,2-3.19,1.36,1.36,0,1,0-2.13-1.68,14.7,14.7,0,0,0-2.47,3.92,5.93,5.93,0,0,0,.37,5.28A4.36,4.36,0,0,0,851.94,46.57Z"/>
      <path class="cls-1" d="M833,38.32a1.36,1.36,0,0,0,.21,2.71h.17a6.18,6.18,0,1,0-2.32-12.13,1.37,1.37,0,0,0-1,1.65,1.35,1.35,0,0,0,1.64,1,3.4,3.4,0,0,1,2.64.52A3.45,3.45,0,0,1,833,38.32Z"/>
      <path class="cls-1" d="M838.92,18.25a1.36,1.36,0,0,0-1.92-.07,1.9,1.9,0,0,1-2.36-.22,3.75,3.75,0,0,1-.94-3.13,3.52,3.52,0,0,1,1.7-2.9,1.36,1.36,0,0,0-1.12-2.48,6.11,6.11,0,0,0-3.3,5.11A6.5,6.5,0,0,0,832.79,20a4.77,4.77,0,0,0,3.32,1.28,4.09,4.09,0,0,0,2.74-1.05A1.36,1.36,0,0,0,838.92,18.25Z"/>
      <path class="cls-1" d="M824.72,6.06a1.37,1.37,0,0,0,1.34,1.39h.05a1.36,1.36,0,0,0,1.34-1.33,6.18,6.18,0,0,0-4.65-6A6.19,6.19,0,0,0,816,3.47a1.36,1.36,0,1,0,2.47,1.14,3.42,3.42,0,0,1,3.71-1.82A3.41,3.41,0,0,1,824.72,6.06Z"/>
      <path class="cls-1" d="M799.94,9.16a6.5,6.5,0,0,0,5.84,3.33,6.25,6.25,0,0,0,1.86-.31,1.36,1.36,0,0,0-.85-2.59,3.84,3.84,0,0,1-4.43-1.69,3.21,3.21,0,0,1-.13-2.48,2.85,2.85,0,0,1,1.42-1.71,1.22,1.22,0,0,1,1-.13,1.36,1.36,0,0,0,1.17-2.46,3.84,3.84,0,0,0-3.3.13,5.66,5.66,0,0,0-2.83,3.31A6,6,0,0,0,799.94,9.16Z"/>
      <path class="cls-1" d="M806.47,26.23a8.23,8.23,0,0,0,4.1-5.27,1.36,1.36,0,0,0-2.64-.68,5.48,5.48,0,0,1-2.69,3.52,4,4,0,0,1-4-.2,3.08,3.08,0,0,1-1.14-3.45,1.36,1.36,0,1,0-2.53-1,5.81,5.81,0,0,0,2.09,6.67A6.34,6.34,0,0,0,803.46,27,6.86,6.86,0,0,0,806.47,26.23Z"/>
      <path class="cls-1" d="M820.82,26.77a1.35,1.35,0,0,0,1.06-.53A7.16,7.16,0,0,0,818.19,15a1.37,1.37,0,0,0-.77,2.62,4.42,4.42,0,0,1,2.29,6.93,1.36,1.36,0,0,0,.26,1.9A1.28,1.28,0,0,0,820.82,26.77Z"/>
      <path class="cls-1" d="M809.35,34.64a4.5,4.5,0,0,1,5.19,1.29,1.36,1.36,0,1,0,2.15-1.68,7.06,7.06,0,0,0-12.51,5.61A1.36,1.36,0,0,0,805.54,41l.22,0a1.38,1.38,0,0,0,1.1-1.59A4.48,4.48,0,0,1,809.35,34.64Z"/>
      <path class="cls-1" d="M790.5,42.94a6.07,6.07,0,0,0,5.34,3,5.13,5.13,0,0,0,1.17-.14,1.36,1.36,0,0,0-.63-2.65,3.15,3.15,0,0,1-2.93-5.33,1.36,1.36,0,0,0-1.9-2A6.05,6.05,0,0,0,790.5,42.94Z"/>
      <path class="cls-1" d="M788.34,55.76a21,21,0,0,1,3.27,4.14,1.34,1.34,0,0,0,1.16.61,1.41,1.41,0,0,0,.73-.22,1.37,1.37,0,0,0,.38-1.89,24,24,0,0,0-3.7-4.66,9.46,9.46,0,0,0-5.9-2.62,6.76,6.76,0,0,0-1.8.19V54.2a4.4,4.4,0,0,1,1.71-.36A6.7,6.7,0,0,1,788.34,55.76Z"/>
      <path class="cls-1" d="M818.85,49.37a1.38,1.38,0,0,0-1.59,1.09,4.11,4.11,0,0,1-7.77.94A1.36,1.36,0,0,0,807,52.53a7,7,0,0,0,6.38,4c.22,0,.44,0,.65,0A7,7,0,0,0,819.93,51,1.37,1.37,0,0,0,818.85,49.37Z"/>
      <path class="cls-1" d="M834.19,54.05a9.71,9.71,0,0,0,7.55-2.5,1.36,1.36,0,1,0-1.84-2,7.17,7.17,0,0,1-5.44,1.8,3.39,3.39,0,0,1-1.87-.67,1.13,1.13,0,0,1-.39-1.09,1.36,1.36,0,1,0-2.52-1,3.78,3.78,0,0,0,1.09,4.12A5.84,5.84,0,0,0,834.19,54.05Z"/>
      <path class="cls-1" d="M797.19,78.47a1.41,1.41,0,0,0,.63.14,1.36,1.36,0,0,0,.57-2.58,4.22,4.22,0,0,1,1-7.9,1.35,1.35,0,0,0,1-1.62,1.37,1.37,0,0,0-1.62-1,6.94,6.94,0,0,0-1.57,13Z"/>
      <path class="cls-1" d="M812.13,73a1.36,1.36,0,0,0,.34,2.68,1,1,0,0,0,.29,0,7.58,7.58,0,0,0,3.07-13.21,1.36,1.36,0,1,0-1.74,2.1,4.87,4.87,0,0,1-2,8.47Z"/>
      <path class="cls-1" d="M792,92.33a5.49,5.49,0,0,0,1.91,4.8,5.14,5.14,0,0,0,3.29,1,12.23,12.23,0,0,0,3.76-.8,1.36,1.36,0,1,0-.88-2.58c-1.65.56-3.47,1-4.51.23a2.86,2.86,0,0,1-.85-2.44,11.36,11.36,0,0,1,1.05-3.41,1.36,1.36,0,1,0-2.5-1.07A13.54,13.54,0,0,0,792,92.33Z"/>
      <path class="cls-1" d="M814.82,100.73a1.43,1.43,0,0,0,.95.36,1.41,1.41,0,0,0,1-.44A7.24,7.24,0,0,0,811,88.52,1.36,1.36,0,0,0,809.74,90a1.3,1.3,0,0,0,1.43,1.28,4.73,4.73,0,0,1,4.33,2.58,4.64,4.64,0,0,1-.76,5A1.38,1.38,0,0,0,814.82,100.73Z"/>
      <path class="cls-1" d="M801.15,114.73a6.07,6.07,0,0,0,3.56,1,6.54,6.54,0,0,0,3-.81,1.36,1.36,0,1,0-1.32-2.38,3.64,3.64,0,0,1-3.72-.09,2.84,2.84,0,0,1-1.07-3.17,6.52,6.52,0,0,1,1.65-2.06,1.36,1.36,0,1,0-1.88-2,8.76,8.76,0,0,0-2.31,3A5.53,5.53,0,0,0,801.15,114.73Z"/>
      <path class="cls-1" d="M842.84,66.68a1.35,1.35,0,0,0-1.89-.36,4,4,0,0,1-5.77-5.08A1.36,1.36,0,0,0,832.75,60a6.86,6.86,0,0,0,1.55,8,6.72,6.72,0,0,0,4.57,1.63,6.64,6.64,0,0,0,3.61-1.11A1.36,1.36,0,0,0,842.84,66.68Z"/>
      <path class="cls-1" d="M851.89,63.12a4.57,4.57,0,0,1,2.69,8.14,1.36,1.36,0,0,0,.88,2.42,1.32,1.32,0,0,0,.83-.3,7.3,7.3,0,0,0-4.3-13,1.4,1.4,0,0,0-1.41,1.31A1.37,1.37,0,0,0,851.89,63.12Z"/>
      <path class="cls-1" d="M883.35,58.86A7.58,7.58,0,0,1,877,62.73a5.27,5.27,0,0,1-5.11-4.25,1.34,1.34,0,0,0-1.51-1.2,1.36,1.36,0,0,0-1.19,1.51A8,8,0,0,0,877,65.46h.29a10.32,10.32,0,0,0,8.43-5.22,1.36,1.36,0,0,0-2.34-1.38Z"/>
      <path class="cls-1" d="M901.36,63.07a9.35,9.35,0,0,0-5.31-5.35,1.36,1.36,0,0,0-1,2.54A6.53,6.53,0,0,1,898.8,64a4.78,4.78,0,0,1,0,3.7,3.09,3.09,0,0,1-2.6,1.8,1.36,1.36,0,1,0,0,2.72h.14a5.75,5.75,0,0,0,5-3.36A7.55,7.55,0,0,0,901.36,63.07Z"/>
      <path class="cls-1" d="M901,26.3a4.8,4.8,0,0,0-.43-1.36,1.36,1.36,0,0,0-2.45,1.2,2.49,2.49,0,0,1,.06,1.94,2.52,2.52,0,0,1-1.26,1.46,2.48,2.48,0,0,1-1.93,0,2.51,2.51,0,0,1-1.44-1.3,1.36,1.36,0,0,0-2.5,1.09,5.23,5.23,0,0,0,3,2.75A5,5,0,0,0,900.71,29,5.48,5.48,0,0,0,901,26.3Z"/>
      <path class="cls-1" d="M892,86.67a14.06,14.06,0,0,0,2.51.17A14.71,14.71,0,0,0,900,85.65a1.35,1.35,0,0,0,.71-1.78,1.37,1.37,0,0,0-1.79-.72,12,12,0,0,1-6.56.83A3.59,3.59,0,0,1,890,82.84c-.56-.86-.18-2.29.33-3.7a1.36,1.36,0,0,0-.83-1.73,1.35,1.35,0,0,0-1.74.82c-.5,1.4-1.41,4,0,6.1A5.85,5.85,0,0,0,892,86.67Z"/>
      <path class="cls-1" d="M898.68,95.35a5.44,5.44,0,0,0-6.7,1.11,1.36,1.36,0,0,0,2.09,1.75,2.76,2.76,0,0,1,3.31-.47,4.23,4.23,0,0,1,2,3.41,7.24,7.24,0,0,1-1.3,4.34,1.37,1.37,0,0,0,.4,1.89,1.4,1.4,0,0,0,.76.22,1.38,1.38,0,0,0,1.12-.62,10.07,10.07,0,0,0,1.74-6A6.89,6.89,0,0,0,898.68,95.35Z"/>
      <path class="cls-1" d="M883.74,36.32l0,0a3.13,3.13,0,0,1-4.24-4,3.21,3.21,0,0,1,3-1.92,1.36,1.36,0,1,0,.08-2.72,5.85,5.85,0,1,0,2.22,11.19l.14-.07a1.36,1.36,0,0,0-1.15-2.47Z"/>
      <path class="cls-1" d="M862.31,49.52a1.36,1.36,0,0,0,1.8-.68,4.9,4.9,0,0,1,9.32,1.35,1.36,1.36,0,0,0,1.37,1.17H875a1.37,1.37,0,0,0,1.17-1.54,7.62,7.62,0,0,0-14.5-2.09A1.36,1.36,0,0,0,862.31,49.52Z"/>
      <path class="cls-1" d="M898.66,41.72a1.36,1.36,0,0,0,1.71-.89,1.37,1.37,0,0,0-.9-1.71,7,7,0,0,0-1.57-.29,6.94,6.94,0,0,0-7,9.44,1.36,1.36,0,1,0,2.54-1,4.24,4.24,0,0,1,5.22-5.57Z"/>
      <path class="cls-1" d="M880.51,140.52a5.58,5.58,0,0,0-4.46,6.6h2.78a3.36,3.36,0,0,1-.14-1.5A3,3,0,0,1,881,143.2a1.36,1.36,0,0,0-.46-2.68Z"/>
      <path class="cls-1" d="M886.4,131.12a1.36,1.36,0,1,0,.27,2.71,4.19,4.19,0,0,1,3.6,6.87,1.36,1.36,0,0,0,.15,1.92,1.43,1.43,0,0,0,.91.32,1.35,1.35,0,0,0,1-.48,6.91,6.91,0,0,0-5.94-11.34Z"/>
      <path class="cls-1" d="M895.35,113.27a1.36,1.36,0,0,0-.61,2.65,3.76,3.76,0,0,1,.11,7.31,1.36,1.36,0,0,0,.37,2.68,1.92,1.92,0,0,0,.32,0,6.48,6.48,0,0,0-.19-12.59Z"/>
      <path class="cls-1" d="M889.86,107.88a1.37,1.37,0,0,0-1.92-.23,6.54,6.54,0,0,1-3.33,1.47,3.52,3.52,0,0,1-2.9-1,2.2,2.2,0,0,1-.28-2.51,1.36,1.36,0,0,0-.36-1.89,1.38,1.38,0,0,0-1.9.37,4.88,4.88,0,0,0,.48,5.81,6,6,0,0,0,4.72,2l.47,0a9.13,9.13,0,0,0,4.79-2A1.37,1.37,0,0,0,889.86,107.88Z"/>
      <path class="cls-1" d="M880.16,97.07a6.4,6.4,0,0,0,6.14-5,1.36,1.36,0,1,0-2.64-.65,3.92,3.92,0,0,1-2.8,2.81A3.66,3.66,0,0,1,877.2,93a3.41,3.41,0,0,1-.22-3.77,1.38,1.38,0,0,0-.45-1.88,1.36,1.36,0,0,0-1.87.44,6.16,6.16,0,0,0,.38,6.86A6.33,6.33,0,0,0,880.16,97.07Z"/>
      <path class="cls-1" d="M869.52,78.06a1.36,1.36,0,0,0,1.81-.64c.71-1.45,2.63-2,3.72-2.26a5.15,5.15,0,0,1,2.36-.06,2.89,2.89,0,0,1,2,2.52,1.37,1.37,0,0,0,1.39,1.29h0a1.36,1.36,0,0,0,1.28-1.44,5.62,5.62,0,0,0-4-5,7.69,7.69,0,0,0-3.62,0c-2.73.55-4.73,1.89-5.63,3.75A1.36,1.36,0,0,0,869.52,78.06Z"/>
      <path class="cls-1" d="M858.34,92.3a4.38,4.38,0,0,0,1.14-.18,1.36,1.36,0,0,0-.82-2.6,2,2,0,0,1-2.16-1.06,3.89,3.89,0,0,1,0-3.2A11.07,11.07,0,0,1,858.64,82a1.36,1.36,0,1,0-2-1.8,13.62,13.62,0,0,0-2.7,4.14,6.52,6.52,0,0,0,.21,5.47A4.86,4.86,0,0,0,858.34,92.3Z"/>
      <path class="cls-1" d="M863.59,105a5.2,5.2,0,0,1,.06,4.1,1.36,1.36,0,0,0,.76,1.77,1.39,1.39,0,0,0,.53.1,1.36,1.36,0,0,0,1.24-.86,7.94,7.94,0,0,0-.14-6.29A6.86,6.86,0,0,0,860.9,100a6.15,6.15,0,0,0-6,2.69,1.36,1.36,0,0,0,2.3,1.46,3.41,3.41,0,0,1,3.28-1.45A4.17,4.17,0,0,1,863.59,105Z"/>
      <path class="cls-1" d="M834.67,87.21a5.93,5.93,0,0,0,.84-.06,7.37,7.37,0,0,0,6.19-7,1.37,1.37,0,0,0-1.34-1.39A1.33,1.33,0,0,0,839,80.09a4.49,4.49,0,0,1-8.77,1.26,1.36,1.36,0,1,0-2.6.81A7.38,7.38,0,0,0,834.67,87.21Z"/>
      <path class="cls-1" d="M839.78,105a1.36,1.36,0,0,0,1.29-1.43,1.31,1.31,0,0,0-1.43-1.29,4.31,4.31,0,0,1-3.32-1.21,2.9,2.9,0,0,1-.66-3,2.39,2.39,0,0,1,1.1-1.16,1.36,1.36,0,0,0-1.21-2.44A5.06,5.06,0,0,0,833.16,97a5.59,5.59,0,0,0,1.18,5.94,7,7,0,0,0,5.2,2.06Z"/>
      <path class="cls-1" d="M853.49,113.1a7.72,7.72,0,0,0-4.29-2.65,5.19,5.19,0,0,0-5.12,1.87,1.36,1.36,0,0,0,.29,1.9,1.38,1.38,0,0,0,1.91-.29,2.49,2.49,0,0,1,2.42-.8,5,5,0,0,1,2.72,1.75,17.72,17.72,0,0,1,2.07,3.31,1.37,1.37,0,0,0,1.22.73,1.46,1.46,0,0,0,.61-.16,1.37,1.37,0,0,0,.57-1.85A20.06,20.06,0,0,0,853.49,113.1Z"/>
      <path class="cls-1" d="M876.51,119.86a1.36,1.36,0,0,0-1.79.7,7.42,7.42,0,0,1-2.79,3.44,3.62,3.62,0,0,1-3.67.14,2.24,2.24,0,0,1-.84-2.79,1.36,1.36,0,1,0-2.31-1.44,4.94,4.94,0,0,0,1.69,6.53,5.79,5.79,0,0,0,3.19.85,6.84,6.84,0,0,0,3.32-.94,9.94,9.94,0,0,0,3.9-4.7A1.36,1.36,0,0,0,876.51,119.86Z"/>
      <path class="cls-1" d="M866.54,135.3a7.91,7.91,0,0,0-7.25-.41,1.36,1.36,0,1,0,1.13,2.48,5.09,5.09,0,0,1,7.18,4.31A1.36,1.36,0,0,0,869,143h.06a1.36,1.36,0,0,0,1.27-1.45A7.92,7.92,0,0,0,866.54,135.3Z"/>
      <path class="cls-1" d="M845.13,132.11a3.07,3.07,0,0,1-5-3,3.14,3.14,0,0,1,1.29-2.08,1.36,1.36,0,1,0-1.49-2.27,5.79,5.79,0,0,0,2.47,10.64,7.25,7.25,0,0,0,.93.05,5.72,5.72,0,0,0,3.51-1.24,1.36,1.36,0,1,0-1.72-2.11Z"/>
      <path class="cls-1" d="M827.37,113.27a10.89,10.89,0,0,0-8.89-2.15,1.36,1.36,0,1,0,.54,2.67,8.07,8.07,0,0,1,9.68,7.74,1.36,1.36,0,0,0,1.39,1.33h0a1.36,1.36,0,0,0,1.34-1.39A10.89,10.89,0,0,0,827.37,113.27Z"/>
      <path class="cls-1" d="M826.11,138.05a4.32,4.32,0,0,1-3.22-6.9,1.37,1.37,0,0,0-2.19-1.63A7,7,0,0,0,826,140.77h.1a1.36,1.36,0,0,0,.06-2.72Z"/>
      <path class="cls-1" d="M850,137.84a1.36,1.36,0,1,0-1,2.52,5.81,5.81,0,0,1,3.52,5.15,5.48,5.48,0,0,1-.21,1.61H855a7.8,7.8,0,0,0,.17-1.66A8.75,8.75,0,0,0,850,137.84Z"/>
      <path class="cls-1" d="M810.25,137.23a4.46,4.46,0,0,0,1.39-5.34,10,10,0,0,0-2.95-3.68,9.7,9.7,0,0,0-3.83-2.36,4.44,4.44,0,0,0-5,1.72,1.36,1.36,0,1,0,2.33,1.41,1.84,1.84,0,0,1,2-.5,7.58,7.58,0,0,1,2.75,1.78,7.66,7.66,0,0,1,2.21,2.63,1.84,1.84,0,0,1-.36,2.06,1.36,1.36,0,0,0,1.5,2.28Z"/>
      <path class="cls-1" d="M795.54,141.62a12,12,0,0,0-2.4,3.79,5.67,5.67,0,0,0-.28,1.71h2.71a2.76,2.76,0,0,1,.15-.84,10,10,0,0,1,1.91-2.92,1.36,1.36,0,1,0-2.09-1.74Z"/>
      <path class="cls-1" d="M791.46,123.67a4.18,4.18,0,0,1-2.42-7.2,1.36,1.36,0,1,0-1.86-2,6.91,6.91,0,0,0,4,11.89h.17a1.36,1.36,0,0,0,.12-2.72Z"/>
    </g>
    <g>
      <path class="cls-1" d="M941.09,142.42a6.16,6.16,0,0,0-7.64,1.45,5.77,5.77,0,0,0-1.2,3.25H935a3.06,3.06,0,0,1,.58-1.56,3.39,3.39,0,0,1,4.15-.78,1.35,1.35,0,0,0,1.86-.5A1.37,1.37,0,0,0,941.09,142.42Z"/>
      <path class="cls-1" d="M961.12,142.73a10.68,10.68,0,0,0-.92-1.14,1.36,1.36,0,0,0-2,1.85,5.73,5.73,0,0,1,1.55,2.91,3.32,3.32,0,0,1,0,.77h2.71a5.73,5.73,0,0,0,0-1.17A7.76,7.76,0,0,0,961.12,142.73Z"/>
      <path class="cls-1" d="M1020.62,140.7a1.36,1.36,0,0,0-.69,1.8,6.3,6.3,0,0,1,.11,4.62h2.85a9.08,9.08,0,0,0-.47-5.73A1.36,1.36,0,0,0,1020.62,140.7Z"/>
      <path class="cls-1" d="M909.39,133.52a7.74,7.74,0,0,0-4-1v2.71a4.87,4.87,0,0,1,2.67.63,5,5,0,0,1,2.37,3.71,1.35,1.35,0,0,0,1.49,1.22H912a1.37,1.37,0,0,0,1.11-1.48A7.71,7.71,0,0,0,909.39,133.52Z"/>
      <path class="cls-1" d="M911.6,102.3a1.36,1.36,0,1,0-2.51-1.06,7.43,7.43,0,0,1-3.75,4v2.92a8.38,8.38,0,0,0,2.65-1.26A10.85,10.85,0,0,0,911.6,102.3Z"/>
      <path class="cls-1" d="M908.36,78.2a15.36,15.36,0,0,1,.8,4.12,1.35,1.35,0,0,0,1.37,1.22h.12a1.38,1.38,0,0,0,1.22-1.5,17.72,17.72,0,0,0-1-4.85,6.82,6.82,0,0,0-3.87-4,5.63,5.63,0,0,0-1.68-.28v2.71a2.89,2.89,0,0,1,.77.13A4.12,4.12,0,0,1,908.36,78.2Z"/>
      <path class="cls-1" d="M909.08,21.85a4.87,4.87,0,0,1,2.69,4.47,1.36,1.36,0,0,0,1.29,1.43,1.39,1.39,0,0,0,.94-.32,1.35,1.35,0,0,0,.49-1,7.6,7.6,0,0,0-4.24-7.06,7.48,7.48,0,0,0-4.91-.46v2.86A4.85,4.85,0,0,1,909.08,21.85Z"/>
      <path class="cls-1" d="M909.91,9.7a13.06,13.06,0,0,0,2.76-2.24,1.36,1.36,0,1,0-2-1.89,8.59,8.59,0,0,1-3.46,2.36,4.67,4.67,0,0,1-1.91.19v2.7a7.13,7.13,0,0,0,2.73-.3A9.09,9.09,0,0,0,909.91,9.7Z"/>
      <path class="cls-1" d="M999.12,21.73a1.36,1.36,0,0,0,1.13-2.48A8,8,0,0,0,989,27.75a1.37,1.37,0,0,0,1.37,1.16l.18,0a1.36,1.36,0,0,0,1.14-1.55,5.27,5.27,0,0,1,7.4-5.61Z"/>
      <path class="cls-1" d="M1012.34,21.76a1.31,1.31,0,0,0,.95-.41,1.36,1.36,0,0,0,0-1.93,7.13,7.13,0,0,1-2.14-4.76,3.78,3.78,0,0,1,.49-2.24,1.45,1.45,0,0,1,1.36-.68,1.36,1.36,0,1,0,.6-2.66,4.14,4.14,0,0,0-4.2,1.79,6.33,6.33,0,0,0-1,3.92,9.86,9.86,0,0,0,3,6.59A1.34,1.34,0,0,0,1012.34,21.76Z"/>
      <path class="cls-1" d="M1015.37,1.16a17,17,0,0,0-5.19,2.14,1.36,1.36,0,0,0,1.33,2.38,14.57,14.57,0,0,1,4.33-1.83,4,4,0,0,1,3.53.92,6.73,6.73,0,0,1,1.15,3.44,1.36,1.36,0,0,0,1.36,1.16l.19,0a1.36,1.36,0,0,0,1.14-1.55A8.93,8.93,0,0,0,1021.39,3,6.57,6.57,0,0,0,1015.37,1.16Z"/>
      <path class="cls-1" d="M988.44,5.86a2,2,0,0,1,.65-2.24,1.36,1.36,0,1,0-1.31-2.38,4.61,4.61,0,0,0-1.9,5.53,6.38,6.38,0,0,0,4,3.74,13.8,13.8,0,0,0,4.86.64h0a1.36,1.36,0,0,0,0-2.72A11.21,11.21,0,0,1,990.79,8,3.8,3.8,0,0,1,988.44,5.86Z"/>
      <path class="cls-1" d="M970.6,3.63a4.09,4.09,0,0,1,3.95,3.65,4.09,4.09,0,0,1-3.46,4.11,1.36,1.36,0,0,0,.17,2.72h.13a6.78,6.78,0,0,0,5.88-7,6.77,6.77,0,0,0-6.71-6.2h0a1.36,1.36,0,0,0,0,2.72Z"/>
      <path class="cls-1" d="M973.26,27.25a3.53,3.53,0,0,0,.46,0,6.19,6.19,0,0,0,3.94-1.43,5.12,5.12,0,0,0,1.79-4.52,1.36,1.36,0,0,0-2.7.38,2.41,2.41,0,0,1-.86,2.07,3.6,3.6,0,0,1-2.49.78,1.88,1.88,0,0,1-1.32-.48.5.5,0,0,1-.1-.4,1.36,1.36,0,0,0-1.82-2,3.05,3.05,0,0,0-.15,4.21A4.53,4.53,0,0,0,973.26,27.25Z"/>
      <path class="cls-1" d="M974.8,46.57a3.56,3.56,0,0,0,1.89-.56,1.36,1.36,0,1,0-1.46-2.29,1.51,1.51,0,0,1-1.81-.6,3.32,3.32,0,0,1-.1-2.85,13,13,0,0,1,2-3.19,1.36,1.36,0,1,0-2.13-1.68,15,15,0,0,0-2.47,3.92,5.93,5.93,0,0,0,.37,5.28A4.36,4.36,0,0,0,974.8,46.57Z"/>
      <path class="cls-1" d="M955.87,38.32a1.36,1.36,0,0,0,.22,2.71h.16a6.18,6.18,0,1,0-2.32-12.13,1.36,1.36,0,0,0,.64,2.65,3.45,3.45,0,1,1,1.3,6.78Z"/>
      <path class="cls-1" d="M961.79,18.25a1.37,1.37,0,0,0-1.93-.07,1.88,1.88,0,0,1-2.35-.22,3.76,3.76,0,0,1-1-3.13,3.54,3.54,0,0,1,1.7-2.9,1.36,1.36,0,1,0-1.11-2.48,6.09,6.09,0,0,0-3.3,5.11,6.46,6.46,0,0,0,1.8,5.39A4.78,4.78,0,0,0,959,21.23a4.08,4.08,0,0,0,2.73-1.05A1.37,1.37,0,0,0,961.79,18.25Z"/>
      <path class="cls-1" d="M947.59,6.06a1.36,1.36,0,0,0,1.33,1.39H949a1.36,1.36,0,0,0,1.34-1.33,6.18,6.18,0,0,0-4.64-6,6.2,6.2,0,0,0-6.8,3.33,1.36,1.36,0,1,0,2.47,1.14,3.28,3.28,0,0,1,6.25,1.45Z"/>
      <path class="cls-1" d="M922.81,9.16a6.47,6.47,0,0,0,5.83,3.33,6.25,6.25,0,0,0,1.86-.31,1.36,1.36,0,0,0-.84-2.59,3.85,3.85,0,0,1-4.44-1.69,3.3,3.3,0,0,1-.13-2.48,2.89,2.89,0,0,1,1.42-1.71,1.22,1.22,0,0,1,1-.13,1.36,1.36,0,0,0,1.17-2.46,3.84,3.84,0,0,0-3.3.13,5.61,5.61,0,0,0-2.82,3.31A6,6,0,0,0,922.81,9.16Z"/>
      <path class="cls-1" d="M929.33,26.23a8.23,8.23,0,0,0,4.1-5.27,1.36,1.36,0,0,0-2.64-.68,5.48,5.48,0,0,1-2.69,3.52,4,4,0,0,1-4-.2,3.06,3.06,0,0,1-1.13-3.45,1.36,1.36,0,0,0-2.54-1,5.83,5.83,0,0,0,2.09,6.67A6.36,6.36,0,0,0,926.32,27,6.82,6.82,0,0,0,929.33,26.23Z"/>
      <path class="cls-1" d="M943.68,26.77a1.35,1.35,0,0,0,1.06-.53A7.16,7.16,0,0,0,941.05,15a1.36,1.36,0,0,0-.76,2.62,4.44,4.44,0,0,1,2.29,6.93,1.35,1.35,0,0,0,.25,1.9A1.32,1.32,0,0,0,943.68,26.77Z"/>
      <path class="cls-1" d="M932.21,34.64a4.5,4.5,0,0,1,5.19,1.29,1.36,1.36,0,1,0,2.15-1.68A7.06,7.06,0,0,0,927,39.86,1.36,1.36,0,0,0,928.4,41l.23,0a1.36,1.36,0,0,0,1.09-1.59A4.5,4.5,0,0,1,932.21,34.64Z"/>
      <path class="cls-1" d="M913.36,42.94a6.07,6.07,0,0,0,5.34,3,5.06,5.06,0,0,0,1.17-.14,1.36,1.36,0,0,0-.63-2.65,3.16,3.16,0,0,1-2.93-5.33,1.36,1.36,0,0,0-1.9-2A6.05,6.05,0,0,0,913.36,42.94Z"/>
      <path class="cls-1" d="M911.21,55.76a21.32,21.32,0,0,1,3.26,4.14,1.34,1.34,0,0,0,1.16.61,1.41,1.41,0,0,0,.73-.22,1.36,1.36,0,0,0,.38-1.89,23.58,23.58,0,0,0-3.7-4.66,9.44,9.44,0,0,0-5.89-2.62,6.79,6.79,0,0,0-1.81.19V54.2a4.41,4.41,0,0,1,1.72-.36A6.74,6.74,0,0,1,911.21,55.76Z"/>
      <path class="cls-1" d="M941.71,49.37a1.38,1.38,0,0,0-1.59,1.09,4.11,4.11,0,0,1-7.77.94,1.36,1.36,0,0,0-2.48,1.13,7,7,0,0,0,6.38,4c.22,0,.44,0,.66,0A7,7,0,0,0,942.8,51,1.38,1.38,0,0,0,941.71,49.37Z"/>
      <path class="cls-1" d="M957.06,54.05a9.83,9.83,0,0,0,1.09.05,10,10,0,0,0,6.45-2.55,1.36,1.36,0,1,0-1.83-2,7.2,7.2,0,0,1-5.45,1.8,3.33,3.33,0,0,1-1.86-.67,1.1,1.1,0,0,1-.39-1.09,1.36,1.36,0,1,0-2.53-1,3.78,3.78,0,0,0,1.09,4.12A5.87,5.87,0,0,0,957.06,54.05Z"/>
      <path class="cls-1" d="M920.06,78.47a1.37,1.37,0,0,0,.62.14,1.39,1.39,0,0,0,1.2-.76,1.36,1.36,0,0,0-.62-1.82,4.21,4.21,0,0,1,1-7.9,1.36,1.36,0,0,0-.58-2.66,6.94,6.94,0,0,0-1.57,13Z"/>
      <path class="cls-1" d="M935,73a1.36,1.36,0,0,0,.34,2.68,1,1,0,0,0,.29,0,7.58,7.58,0,0,0,3.07-13.21A1.36,1.36,0,1,0,937,64.5,4.86,4.86,0,0,1,935,73Z"/>
      <path class="cls-1" d="M914.82,92.33a5.46,5.46,0,0,0,1.9,4.8,5.14,5.14,0,0,0,3.29,1,12.23,12.23,0,0,0,3.76-.8,1.36,1.36,0,1,0-.88-2.58c-1.64.56-3.47,1-4.5.23a2.87,2.87,0,0,1-.86-2.44,11.39,11.39,0,0,1,1.06-3.41,1.36,1.36,0,1,0-2.51-1.07A13.28,13.28,0,0,0,914.82,92.33Z"/>
      <path class="cls-1" d="M937.69,100.73a1.36,1.36,0,0,0,1.92-.08,7.24,7.24,0,0,0-5.73-12.13A1.36,1.36,0,0,0,932.6,90,1.3,1.3,0,0,0,934,91.24a4.75,4.75,0,0,1,4.34,2.58,4.68,4.68,0,0,1-.76,5A1.36,1.36,0,0,0,937.69,100.73Z"/>
      <path class="cls-1" d="M924,114.73a6.09,6.09,0,0,0,3.56,1,6.51,6.51,0,0,0,3-.81,1.36,1.36,0,1,0-1.32-2.38,3.64,3.64,0,0,1-3.72-.09,2.84,2.84,0,0,1-1.07-3.17,6.66,6.66,0,0,1,1.65-2.06,1.36,1.36,0,0,0-1.88-2,8.76,8.76,0,0,0-2.31,3A5.55,5.55,0,0,0,924,114.73Z"/>
      <path class="cls-1" d="M965.7,66.68a1.35,1.35,0,0,0-1.89-.36A4,4,0,0,1,958,61.24,1.36,1.36,0,0,0,955.61,60a6.86,6.86,0,0,0,1.55,8,6.75,6.75,0,0,0,4.58,1.63,6.61,6.61,0,0,0,3.6-1.11A1.36,1.36,0,0,0,965.7,66.68Z"/>
      <path class="cls-1" d="M974.76,63.12a4.57,4.57,0,0,1,2.69,8.14,1.36,1.36,0,0,0-.22,1.91,1.38,1.38,0,0,0,1.09.51,1.32,1.32,0,0,0,.83-.3,7.3,7.3,0,0,0-4.29-13,1.39,1.39,0,0,0-1.41,1.31A1.36,1.36,0,0,0,974.76,63.12Z"/>
      <path class="cls-1" d="M1006.21,58.86a7.57,7.57,0,0,1-6.33,3.87,5.27,5.27,0,0,1-5.11-4.25,1.33,1.33,0,0,0-1.5-1.2,1.36,1.36,0,0,0-1.2,1.51,8,8,0,0,0,7.76,6.67h.29a10.35,10.35,0,0,0,8.44-5.22,1.36,1.36,0,0,0-2.35-1.38Z"/>
      <path class="cls-1" d="M1024.22,63.07a9.33,9.33,0,0,0-5.31-5.35,1.36,1.36,0,0,0-1.75.78,1.35,1.35,0,0,0,.78,1.76,6.59,6.59,0,0,1,3.73,3.77,4.78,4.78,0,0,1,0,3.7,3.08,3.08,0,0,1-2.6,1.8,1.36,1.36,0,1,0,0,2.72h.14a5.77,5.77,0,0,0,5-3.36A7.6,7.6,0,0,0,1024.22,63.07Z"/>
      <path class="cls-1" d="M1023.82,26.3a4.8,4.8,0,0,0-.43-1.36,1.36,1.36,0,1,0-2.44,1.2,2.54,2.54,0,0,1,0,1.94,2.34,2.34,0,0,1-3.19,1.48,2.54,2.54,0,0,1-1.44-1.3,1.36,1.36,0,0,0-2.5,1.09,5.23,5.23,0,0,0,3,2.75,5,5,0,0,0,6.73-3.12A5.48,5.48,0,0,0,1023.82,26.3Z"/>
      <path class="cls-1" d="M1014.82,86.67a14.06,14.06,0,0,0,2.51.17,14.71,14.71,0,0,0,5.56-1.19,1.35,1.35,0,0,0,.71-1.78,1.37,1.37,0,0,0-1.79-.72,12,12,0,0,1-6.56.83,3.61,3.61,0,0,1-2.38-1.14c-.56-.86-.17-2.29.33-3.7a1.36,1.36,0,0,0-2.57-.91c-.49,1.4-1.41,4,0,6.1A5.87,5.87,0,0,0,1014.82,86.67Z"/>
      <path class="cls-1" d="M1021.55,95.35a5.46,5.46,0,0,0-6.71,1.11,1.36,1.36,0,0,0,2.09,1.75,2.76,2.76,0,0,1,3.31-.47,4.18,4.18,0,0,1,2,3.41,7.24,7.24,0,0,1-1.3,4.34,1.37,1.37,0,0,0,.4,1.89,1.42,1.42,0,0,0,.76.22,1.37,1.37,0,0,0,1.12-.62,9.94,9.94,0,0,0,1.74-6A6.89,6.89,0,0,0,1021.55,95.35Z"/>
      <path class="cls-1" d="M1006.6,36.32l0,0a3.13,3.13,0,1,1-1.26-6,1.36,1.36,0,0,0,.08-2.72,5.85,5.85,0,1,0,2.22,11.19l.14-.07a1.36,1.36,0,0,0-1.15-2.47Z"/>
      <path class="cls-1" d="M985.17,49.52a1.35,1.35,0,0,0,1.8-.68,4.9,4.9,0,0,1,9.32,1.35,1.37,1.37,0,0,0,1.37,1.17h.17A1.37,1.37,0,0,0,999,49.81a7.62,7.62,0,0,0-14.5-2.09A1.36,1.36,0,0,0,985.17,49.52Z"/>
      <path class="cls-1" d="M1021.52,41.72a1.36,1.36,0,0,0,1.71-.89,1.38,1.38,0,0,0-.89-1.71,7,7,0,0,0-8.58,9.15,1.36,1.36,0,1,0,2.54-1,4.24,4.24,0,0,1,5.22-5.57Z"/>
      <path class="cls-1" d="M1003.37,140.52a5.74,5.74,0,0,0-4.51,4.66,6,6,0,0,0,0,1.94h2.78a3.36,3.36,0,0,1-.14-1.5,3,3,0,0,1,2.28-2.42,1.36,1.36,0,1,0-.46-2.68Z"/>
      <path class="cls-1" d="M1009.27,131.12a1.36,1.36,0,1,0,.26,2.71,4.19,4.19,0,0,1,3.6,6.87,1.35,1.35,0,0,0,.16,1.92,1.38,1.38,0,0,0,.9.32,1.35,1.35,0,0,0,1-.48,6.9,6.9,0,0,0-5.93-11.34Z"/>
      <path class="cls-1" d="M1018.21,113.27a1.36,1.36,0,0,0-.61,2.65,3.76,3.76,0,0,1,.11,7.31,1.36,1.36,0,0,0,.37,2.68,1.77,1.77,0,0,0,.32,0,6.48,6.48,0,0,0-.19-12.59Z"/>
      <path class="cls-1" d="M1012.72,107.88a1.36,1.36,0,0,0-1.91-.23,6.61,6.61,0,0,1-3.34,1.47,3.52,3.52,0,0,1-2.9-1,2.22,2.22,0,0,1-.28-2.51,1.36,1.36,0,1,0-2.25-1.52,4.86,4.86,0,0,0,.47,5.81,6,6,0,0,0,4.72,2l.47,0a9.19,9.19,0,0,0,4.8-2A1.36,1.36,0,0,0,1012.72,107.88Z"/>
      <path class="cls-1" d="M1003,97.07a6.61,6.61,0,0,0,1.32-.16,6.7,6.7,0,0,0,4.81-4.81,1.36,1.36,0,1,0-2.64-.65,3.92,3.92,0,0,1-2.8,2.81,3.67,3.67,0,0,1-3.66-1.27,3.43,3.43,0,0,1-.22-3.77,1.37,1.37,0,1,0-2.32-1.44,6.16,6.16,0,0,0,.38,6.86A6.34,6.34,0,0,0,1003,97.07Z"/>
      <path class="cls-1" d="M992.38,78.06a1.37,1.37,0,0,0,1.82-.64c.7-1.45,2.63-2,3.71-2.26a5.15,5.15,0,0,1,2.36-.06,2.88,2.88,0,0,1,2,2.52,1.37,1.37,0,0,0,1.38,1.29h.05a1.37,1.37,0,0,0,1.29-1.44,5.64,5.64,0,0,0-4-5,7.73,7.73,0,0,0-3.63,0c-2.73.55-4.73,1.89-5.63,3.75A1.37,1.37,0,0,0,992.38,78.06Z"/>
      <path class="cls-1" d="M981.21,92.3a4.51,4.51,0,0,0,1.14-.18,1.38,1.38,0,0,0,.89-1.71,1.36,1.36,0,0,0-1.71-.89,2,2,0,0,1-2.17-1.06,3.89,3.89,0,0,1-.05-3.2,11.1,11.1,0,0,1,2.2-3.29,1.38,1.38,0,0,0-.13-1.93,1.36,1.36,0,0,0-1.92.13,13.8,13.8,0,0,0-2.7,4.14,6.56,6.56,0,0,0,.22,5.47A4.85,4.85,0,0,0,981.21,92.3Z"/>
      <path class="cls-1" d="M986.45,105a5.16,5.16,0,0,1,.06,4.1,1.36,1.36,0,0,0,.76,1.77,1.42,1.42,0,0,0,.53.1,1.36,1.36,0,0,0,1.24-.86,8,8,0,0,0-.13-6.29,6.9,6.9,0,0,0-5.15-3.84,6.12,6.12,0,0,0-6,2.69,1.35,1.35,0,0,0,.42,1.88,1.37,1.37,0,0,0,1.88-.42,3.4,3.4,0,0,1,3.28-1.45A4.15,4.15,0,0,1,986.45,105Z"/>
      <path class="cls-1" d="M957.54,87.21a5.9,5.9,0,0,0,.83-.06,7.37,7.37,0,0,0,6.19-7,1.36,1.36,0,0,0-1.33-1.39,1.33,1.33,0,0,0-1.39,1.34,4.49,4.49,0,0,1-8.77,1.26,1.36,1.36,0,1,0-2.6.81A7.38,7.38,0,0,0,957.54,87.21Z"/>
      <path class="cls-1" d="M962.64,105a1.36,1.36,0,0,0,1.29-1.43,1.3,1.3,0,0,0-1.42-1.29,4.32,4.32,0,0,1-3.33-1.21,2.9,2.9,0,0,1-.65-3,2.32,2.32,0,0,1,1.09-1.16,1.36,1.36,0,1,0-1.21-2.44A5,5,0,0,0,956,97a5.59,5.59,0,0,0,1.17,5.94,7,7,0,0,0,5.2,2.06Z"/>
      <path class="cls-1" d="M976.35,113.1a7.69,7.69,0,0,0-4.29-2.65,5.21,5.21,0,0,0-5.12,1.87,1.36,1.36,0,0,0,2.2,1.61,2.49,2.49,0,0,1,2.42-.8,5,5,0,0,1,2.73,1.75,17.7,17.7,0,0,1,2.06,3.31,1.38,1.38,0,0,0,1.23.73,1.54,1.54,0,0,0,.61-.16,1.38,1.38,0,0,0,.57-1.85A20.12,20.12,0,0,0,976.35,113.1Z"/>
      <path class="cls-1" d="M999.37,119.86a1.36,1.36,0,0,0-1.79.7A7.45,7.45,0,0,1,994.8,124a3.64,3.64,0,0,1-3.68.14,2.23,2.23,0,0,1-.83-2.79,1.37,1.37,0,1,0-2.32-1.44,4.94,4.94,0,0,0,1.7,6.53,5.73,5.73,0,0,0,3.18.85,6.81,6.81,0,0,0,3.32-.94,9.94,9.94,0,0,0,3.9-4.7A1.36,1.36,0,0,0,999.37,119.86Z"/>
      <path class="cls-1" d="M989.4,135.3a7.91,7.91,0,0,0-7.25-.41,1.36,1.36,0,1,0,1.13,2.48,5.1,5.1,0,0,1,7.19,4.31,1.35,1.35,0,0,0,1.38,1.27h.07a1.38,1.38,0,0,0,1.27-1.45A8,8,0,0,0,989.4,135.3Z"/>
      <path class="cls-1" d="M968,132.11a3.33,3.33,0,0,1-4.52-.59,3.35,3.35,0,0,1,.82-4.48,1.36,1.36,0,0,0-1.5-2.27,5.8,5.8,0,0,0,2.47,10.64,7.25,7.25,0,0,0,.93.05,5.72,5.72,0,0,0,3.51-1.24,1.36,1.36,0,0,0-1.71-2.11Z"/>
      <path class="cls-1" d="M950.24,113.27a10.92,10.92,0,0,0-8.9-2.15,1.36,1.36,0,0,0,.54,2.67,8.07,8.07,0,0,1,9.69,7.74,1.35,1.35,0,0,0,1.38,1.33h0a1.36,1.36,0,0,0,1.34-1.39A10.91,10.91,0,0,0,950.24,113.27Z"/>
      <path class="cls-1" d="M949,138.05a4.32,4.32,0,0,1-3.22-6.9,1.36,1.36,0,1,0-2.18-1.63,7,7,0,0,0,5.24,11.25h.11a1.36,1.36,0,0,0,.05-2.72Z"/>
      <path class="cls-1" d="M972.83,137.84a1.36,1.36,0,0,0-1.78.74,1.38,1.38,0,0,0,.74,1.78,5.84,5.84,0,0,1,3.53,5.15,5.49,5.49,0,0,1-.22,1.61h2.77a7.8,7.8,0,0,0,.17-1.66A8.75,8.75,0,0,0,972.83,137.84Z"/>
      <path class="cls-1" d="M933.12,137.23a4.44,4.44,0,0,0,1.38-5.34,9.85,9.85,0,0,0-3-3.68,9.74,9.74,0,0,0-3.82-2.36,4.45,4.45,0,0,0-5,1.72,1.36,1.36,0,1,0,2.33,1.41,1.84,1.84,0,0,1,2-.5,11.32,11.32,0,0,1,5,4.41,1.82,1.82,0,0,1-.36,2.06,1.36,1.36,0,0,0,.78,2.5A1.41,1.41,0,0,0,933.12,137.23Z"/>
      <path class="cls-1" d="M918.41,141.62a11.83,11.83,0,0,0-2.41,3.79,5.67,5.67,0,0,0-.28,1.71h2.71a3.53,3.53,0,0,1,.15-.84,9.84,9.84,0,0,1,1.92-2.92,1.36,1.36,0,1,0-2.09-1.74Z"/>
      <path class="cls-1" d="M914.33,123.67a4.18,4.18,0,0,1-2.42-7.2,1.36,1.36,0,0,0-1.87-2,6.91,6.91,0,0,0,4,11.89h.17a1.36,1.36,0,0,0,.13-2.72Z"/>
    </g>
    <g>
      <path class="cls-1" d="M0,565.74v-4.27H0a2,2,0,0,1,1.57.69,2.23,2.23,0,0,1,.51,1.45A2,2,0,0,1,0,565.74Z"/>
      <path class="cls-1" d="M.45,551.45a1.78,1.78,0,0,1-.45.37v-3.65A2.16,2.16,0,0,1,1,550,2.18,2.18,0,0,1,.45,551.45Z"/>
      <path class="cls-1" d="M7.86,558.57v-.42c0-2.07,2.44-2.55,3.59-1.57a2,2,0,0,1,.68,1.57v.42a2,2,0,0,1-.69,1.56,2.16,2.16,0,0,1-1.44.52A2.05,2.05,0,0,1,7.86,558.57Z"/>
      <path class="cls-1" d="M72,561.75a2.16,2.16,0,0,1,.52-1.44,2,2,0,0,1,1.57-.69,2,2,0,0,1,2.08,2.14,2.18,2.18,0,0,1-.52,1.45,2,2,0,0,1-1.56.68A2,2,0,0,1,72,561.75Z"/>
      <path class="cls-1" d="M86.43,556.92a2.14,2.14,0,1,1,2.08-2.13,2.18,2.18,0,0,1-.52,1.45A2,2,0,0,1,86.43,556.92Z"/>
      <path class="cls-1" d="M118,559.73a2,2,0,0,1-2.08-2.14,2.23,2.23,0,0,1,.51-1.45,2.18,2.18,0,0,1,3.14,0,2.25,2.25,0,0,1,.51,1.45A2,2,0,0,1,118,559.73Z"/>
      <path class="cls-1" d="M127,563.91a2.14,2.14,0,1,1,2.08-2.14,2.23,2.23,0,0,1-.51,1.45A2,2,0,0,1,127,563.91Z"/>
      <path class="cls-1" d="M140.37,558a2.05,2.05,0,0,1-2.09-2.14,2.24,2.24,0,0,1,.52-1.45,1.83,1.83,0,0,1,.83-.53,2.23,2.23,0,0,0-.63,1.57,2,2,0,0,0,1.59,2.08V558A1.74,1.74,0,0,1,140.37,558Z"/>
      <path class="cls-1" d="M136.63,543.24h.42a2,2,0,0,1,1.56.69,2.18,2.18,0,0,1,.52,1.45,2.05,2.05,0,0,1-2.08,2.14h-.42a2.14,2.14,0,0,1,0-4.28Z"/>
      <path class="cls-1" d="M127.81,550.82a2,2,0,0,1-2.14-2.08v-.42c0-2.73,4.28-2.74,4.28,0v.42a2,2,0,0,1-.69,1.57A2.25,2.25,0,0,1,127.81,550.82Z"/>
      <path class="cls-1" d="M111.85,548.78a2,2,0,0,1-2.08-2.14,2.23,2.23,0,0,1,.51-1.45,2.18,2.18,0,0,1,3.14,0,2.23,2.23,0,0,1,.51,1.45A2,2,0,0,1,111.85,548.78Z"/>
      <path class="cls-1" d="M106.81,558.43a2,2,0,0,1-2.08-2.13,2.23,2.23,0,0,1,.51-1.45,2,2,0,0,1,1.57-.69,2,2,0,0,1,2.08,2.14,2.23,2.23,0,0,1-.51,1.45A2,2,0,0,1,106.81,558.43Z"/>
      <path class="cls-1" d="M97.57,555.86a2,2,0,0,1-2.13-2.08v-.42c0-2.07,2.44-2.55,3.58-1.57a2,2,0,0,1,.69,1.57v.42a2,2,0,0,1-.69,1.56A2.18,2.18,0,0,1,97.57,555.86Z"/>
      <path class="cls-1" d="M88.32,544.12a2.24,2.24,0,0,1-.52,1.45,2.1,2.1,0,0,1-3.65-1.45,2.18,2.18,0,0,1,.52-1.45,2,2,0,0,1,1.56-.69A2.05,2.05,0,0,1,88.32,544.12Z"/>
      <path class="cls-1" d="M78.56,551.07a2.24,2.24,0,0,1,.52,1.45,2.09,2.09,0,1,1-4.17,0,2.09,2.09,0,0,1,3.65-1.45Z"/>
      <path class="cls-1" d="M66.08,557.59A2,2,0,0,1,64,555.46a2.18,2.18,0,0,1,.52-1.45,2,2,0,0,1,1.57-.69h.42a2.05,2.05,0,0,1,2.08,2.14,2.2,2.2,0,0,1-.52,1.45,2,2,0,0,1-1.56.68Z"/>
      <path class="cls-1" d="M58.1,544.08h.84a2,2,0,0,1,1.56.69,2.18,2.18,0,0,1,.52,1.45,2.05,2.05,0,0,1-2.08,2.14H58.1a2.14,2.14,0,0,1,0-4.28Z"/>
      <path class="cls-1" d="M69.33,540.79h-.1a1.93,1.93,0,0,1-1.62-1.1l-.42-.84a2.17,2.17,0,0,1,1-3,1.93,1.93,0,0,1,2.71.86l.42.84a2.08,2.08,0,0,1-.09,2.14A2.32,2.32,0,0,1,69.33,540.79Z"/>
      <path class="cls-1" d="M48.44,559.27a2.14,2.14,0,1,1,2.08-2.13,2.23,2.23,0,0,1-.51,1.45A2,2,0,0,1,48.44,559.27Z"/>
      <path class="cls-1" d="M30.4,561.76a2.08,2.08,0,1,1,2.08,2.13A2,2,0,0,1,30.4,561.76Z"/>
      <path class="cls-1" d="M37.52,552.14A2.14,2.14,0,1,1,39.6,550a2.23,2.23,0,0,1-.51,1.45A2,2,0,0,1,37.52,552.14Z"/>
      <path class="cls-1" d="M77.67,486.73a2.23,2.23,0,0,1,.51,1.45,2.08,2.08,0,1,1-4.16,0,2.23,2.23,0,0,1,.51-1.45A2.18,2.18,0,0,1,77.67,486.73Z"/>
      <path class="cls-1" d="M21.66,556.92a2.05,2.05,0,0,1-2.08-2.14,2.09,2.09,0,0,1,3.65-1.45,2.26,2.26,0,0,1,.52,1.45A2.05,2.05,0,0,1,21.66,556.92Z"/>
      <path class="cls-1" d="M13.24,545.36a2.08,2.08,0,1,1,4.16,0,2.23,2.23,0,0,1-.51,1.45,2.1,2.1,0,0,1-3.65-1.45Z"/>
      <path class="cls-1" d="M21.22,532.3a2.18,2.18,0,0,1,.52-1.45,2,2,0,0,1,1.56-.69,2.05,2.05,0,0,1,2.09,2.14,2.24,2.24,0,0,1-.52,1.45,2.1,2.1,0,0,1-3.65-1.45Z"/>
      <path class="cls-1" d="M5.2,540.76a2.09,2.09,0,1,1,4.17,0,2.18,2.18,0,0,1-.52,1.45,2.1,2.1,0,0,1-3.65-1.45Z"/>
      <path class="cls-1" d="M6.63,522a2,2,0,0,1,.69,1.57V524a2.05,2.05,0,0,1-2.14,2.09,2.26,2.26,0,0,1-1.45-.52A2,2,0,0,1,3.05,524v-.42C3.05,521.47,5.49,521,6.63,522Z"/>
      <path class="cls-1" d="M89.5,499.93a2.2,2.2,0,0,1-.52,1.45,2,2,0,0,1-1.56.68,2.14,2.14,0,1,1,2.08-2.13Z"/>
      <path class="cls-1" d="M27.86,544.52a2.23,2.23,0,0,1-1.45-.51,2,2,0,0,1-.69-1.57V542c0-2.73,4.28-2.74,4.28,0v.42A2,2,0,0,1,27.86,544.52Z"/>
      <path class="cls-1" d="M49.53,542.69a2,2,0,0,1-1.44.63,2.18,2.18,0,0,1-1.54-.67,2,2,0,0,1,0-3l.42-.42a2.14,2.14,0,0,1,3,3Z"/>
      <path class="cls-1" d="M44.26,531.1a2.23,2.23,0,0,1,.51-1.45,2.1,2.1,0,0,1,3.65,1.45,2.23,2.23,0,0,1-.51,1.45,2.1,2.1,0,0,1-3.65-1.45Z"/>
      <path class="cls-1" d="M38.67,534.69a2.23,2.23,0,0,1,.51,1.45,2.08,2.08,0,1,1-4.16,0,2.23,2.23,0,0,1,.51-1.45A2.18,2.18,0,0,1,38.67,534.69Z"/>
      <path class="cls-1" d="M23.13,518.32a2.2,2.2,0,0,1,.51,1.44,2.08,2.08,0,1,1-4.16,0,2.25,2.25,0,0,1,.51-1.45A2.18,2.18,0,0,1,23.13,518.32Z"/>
      <path class="cls-1" d="M14.42,526a2,2,0,0,1,2.09,2.13,2.24,2.24,0,0,1-.52,1.45A2.12,2.12,0,1,1,14.42,526Z"/>
      <path class="cls-1" d="M5.18,508.39H5.6a2,2,0,0,1,1.57.69,2.21,2.21,0,0,1,.52,1.44,2.05,2.05,0,0,1-2.09,2.14H5.18a2.14,2.14,0,0,1,0-4.27Z"/>
      <path class="cls-1" d="M16.09,502.13a2.09,2.09,0,1,1-4.17,0,2.2,2.2,0,0,1,.52-1.45,2.18,2.18,0,0,1,3.13,0A2.22,2.22,0,0,1,16.09,502.13Z"/>
      <path class="cls-1" d="M1,503a2.16,2.16,0,0,1-.52,1.44,1.82,1.82,0,0,1-.45.38v-3.65A2.14,2.14,0,0,1,1,503Z"/>
      <path class="cls-1" d="M6,487.81A2,2,0,0,1,8.11,490a2.2,2.2,0,0,1-.52,1.45,2,2,0,0,1-1.57.68,2.14,2.14,0,0,1,0-4.27Z"/>
      <path class="cls-1" d="M0,479.88v-4.2a2,2,0,0,1,1.29.64,2.24,2.24,0,0,1,.52,1.45A2.05,2.05,0,0,1,0,479.88Z"/>
      <path class="cls-1" d="M11.29,477.24a2,2,0,0,1-.68-1.57v-.42c0-2.07,2.44-2.55,3.58-1.57a2,2,0,0,1,.69,1.57v.42a2,2,0,0,1-2.14,2.08A2.25,2.25,0,0,1,11.29,477.24Z"/>
      <path class="cls-1" d="M25.53,482.08a2,2,0,0,1,.69,1.57v.42a2.05,2.05,0,0,1-2.14,2.08,2.18,2.18,0,0,1-1.45-.52,2,2,0,0,1-.69-1.56v-.42C21.94,481.58,24.39,481.1,25.53,482.08Z"/>
      <path class="cls-1" d="M18.62,488.65a2.05,2.05,0,0,1,2.09,2.14,2.26,2.26,0,0,1-.52,1.45,2.1,2.1,0,0,1-3.65-1.45,2.18,2.18,0,0,1,.52-1.45A2,2,0,0,1,18.62,488.65Z"/>
      <path class="cls-1" d="M37.5,501.28a2.23,2.23,0,0,1-.51,1.45,2,2,0,0,1-1.57.69,2.14,2.14,0,1,1,2.08-2.14Z"/>
      <path class="cls-1" d="M25.93,506.49a2.14,2.14,0,0,1,3,3l-.42.42a2,2,0,0,1-1.44.63,2.22,2.22,0,0,1-1.54-.66,2.05,2.05,0,0,1,0-3Z"/>
      <path class="cls-1" d="M17.34,513.88a2.08,2.08,0,1,1-4.16,0,2.2,2.2,0,0,1,.52-1.45,2.17,2.17,0,0,1,3.13,0A2.2,2.2,0,0,1,17.34,513.88Z"/>
      <path class="cls-1" d="M50.52,509.68a2.23,2.23,0,0,1-.51,1.45,2,2,0,0,1-1.57.69H47.6a2,2,0,0,1-2.08-2.14,2.25,2.25,0,0,1,.51-1.45,2,2,0,0,1,1.57-.68h.84A2,2,0,0,1,50.52,509.68Z"/>
      <path class="cls-1" d="M37.54,516.4a2.25,2.25,0,0,1,.51-1.45,2.09,2.09,0,0,1,3.65,1.45,2.08,2.08,0,1,1-4.16,0Z"/>
      <path class="cls-1" d="M39.18,524A2.08,2.08,0,1,1,35,524a2.23,2.23,0,0,1,.51-1.45,2.19,2.19,0,0,1,3.14,0A2.25,2.25,0,0,1,39.18,524Z"/>
      <path class="cls-1" d="M62.33,525.22a2,2,0,0,1-2.13,2.08,2.23,2.23,0,0,1-1.45-.51,2,2,0,0,1-.69-1.57v-.42c0-2.07,2.44-2.55,3.59-1.57a2,2,0,0,1,.68,1.57Z"/>
      <path class="cls-1" d="M58.52,534.5a2.05,2.05,0,0,1-2.09-2.14,2.24,2.24,0,0,1,.52-1.45,2.1,2.1,0,0,1,3.65,1.45,2.18,2.18,0,0,1-.52,1.45A2,2,0,0,1,58.52,534.5Z"/>
      <path class="cls-1" d="M72.39,527.32a2.09,2.09,0,1,1,4.17,0,2.09,2.09,0,1,1-4.17,0Z"/>
      <path class="cls-1" d="M81.63,531.52a2.09,2.09,0,1,1,4.17,0,2.24,2.24,0,0,1-.52,1.45,2.1,2.1,0,0,1-3.65-1.45Z"/>
      <path class="cls-1" d="M96.31,533.6a2.25,2.25,0,0,1-1.45-.51,2,2,0,0,1-.68-1.57v-.84c0-2.07,2.44-2.55,3.58-1.57a2,2,0,0,1,.69,1.57v.84A2,2,0,0,1,96.31,533.6Z"/>
      <path class="cls-1" d="M100.76,542.69a2,2,0,0,1-1.44.63,2.18,2.18,0,0,1-1.54-.67,2,2,0,0,1,0-3l.42-.42a2,2,0,0,1,2-.56,2.31,2.31,0,0,1,1.61,1.61,2,2,0,0,1-.56,2Z"/>
      <path class="cls-1" d="M120.67,542.42a2,2,0,0,1-2.14-2.08v-.42c0-2.07,2.45-2.55,3.59-1.57a2,2,0,0,1,.69,1.57v.42a2,2,0,0,1-.69,1.57A2.25,2.25,0,0,1,120.67,542.42Z"/>
      <path class="cls-1" d="M132.43,538.28a2.05,2.05,0,0,1-2.09-2.14,2.24,2.24,0,0,1,.52-1.45,2.09,2.09,0,0,1,3.65,1.45A2.05,2.05,0,0,1,132.43,538.28Z"/>
      <path class="cls-1" d="M134.64,527.55a2.09,2.09,0,0,1,3.65,1.45,2.09,2.09,0,1,1-4.17,0A2.24,2.24,0,0,1,134.64,527.55Z"/>
      <path class="cls-1" d="M128.65,516.44a2,2,0,0,1-2.08-2.14,2.23,2.23,0,0,1,.51-1.45,2.09,2.09,0,0,1,3.65,1.45A2,2,0,0,1,128.65,516.44Z"/>
      <path class="cls-1" d="M136.1,468.18A2,2,0,0,1,134,466.1v-.42c0-2.07,2.44-2.55,3.58-1.57a2,2,0,0,1,.69,1.57v.42a2,2,0,0,1-.69,1.57A2.21,2.21,0,0,1,136.1,468.18Z"/>
      <path class="cls-1" d="M129.49,470.66a2.14,2.14,0,1,1,2.08-2.13,2.23,2.23,0,0,1-.51,1.45A2,2,0,0,1,129.49,470.66Z"/>
      <path class="cls-1" d="M132.05,479.87a2,2,0,0,1-.69,1.56,2.2,2.2,0,0,1-1.45.52,2.05,2.05,0,0,1-2.14-2.08v-.42c0-2.73,4.28-2.74,4.28,0Z"/>
      <path class="cls-1" d="M132.88,492.05v.42a2,2,0,0,1-2.13,2.08,2.18,2.18,0,0,1-1.45-.52,2,2,0,0,1-.69-1.56v-.42c0-2.07,2.44-2.56,3.59-1.57A2,2,0,0,1,132.88,492.05Z"/>
      <path class="cls-1" d="M117.27,497.09v-.43c0-2.06,2.45-2.55,3.59-1.56a2,2,0,0,1,.69,1.56v.43a2.14,2.14,0,0,1-4.28,0Z"/>
      <path class="cls-1" d="M121.09,481.51a2,2,0,0,1,2.08,2.14,2.25,2.25,0,0,1-.51,1.45,2.12,2.12,0,1,1-1.57-3.59Z"/>
      <path class="cls-1" d="M108.09,481.13a2.08,2.08,0,1,1,4.16,0,2.23,2.23,0,0,1-.51,1.45,2.1,2.1,0,0,1-3.65-1.45Z"/>
      <path class="cls-1" d="M114.75,469.37V469c0-2.07,2.45-2.55,3.59-1.57A2,2,0,0,1,119,469v.42a2.14,2.14,0,0,1-4.28,0Z"/>
      <path class="cls-1" d="M61.88,465.13A2.05,2.05,0,0,1,64,467.27a2.18,2.18,0,0,1-.52,1.45,2,2,0,0,1-1.56.68,2.14,2.14,0,0,1,0-4.27Z"/>
      <path class="cls-1" d="M78.91,470.1a2,2,0,0,1-.69-1.57v-.42c0-2.73,4.27-2.74,4.27,0v.42a2,2,0,0,1-2.14,2.08A2.2,2.2,0,0,1,78.91,470.1Z"/>
      <path class="cls-1" d="M105,466.24a2.23,2.23,0,0,1,.51,1.45,2.08,2.08,0,1,1-4.16,0,2.23,2.23,0,0,1,.51-1.45A2.18,2.18,0,0,1,105,466.24Z"/>
      <path class="cls-1" d="M98.41,478.57a2,2,0,0,1,2.08,2.14,2.23,2.23,0,0,1-.51,1.45,2.1,2.1,0,0,1-3.65-1.45,2.18,2.18,0,0,1,.52-1.45A2,2,0,0,1,98.41,478.57Z"/>
      <path class="cls-1" d="M86.23,474a2.05,2.05,0,0,1,2.09,2.14,2.24,2.24,0,0,1-.52,1.45,2.1,2.1,0,0,1-3.65-1.45,2.18,2.18,0,0,1,.52-1.45A2,2,0,0,1,86.23,474Z"/>
      <path class="cls-1" d="M86.42,489.22a2,2,0,0,1,.69,1.57v.42A2,2,0,0,1,85,493.29a2.2,2.2,0,0,1-1.45-.52,2,2,0,0,1-.68-1.56v-.42A2.17,2.17,0,0,1,86.42,489.22Z"/>
      <path class="cls-1" d="M103.49,490.37v.42a2,2,0,0,1-.69,1.56,2.18,2.18,0,0,1-1.45.52,2,2,0,0,1-2.13-2.08v-.42C99.22,487.63,103.49,487.63,103.49,490.37Z"/>
      <path class="cls-1" d="M107.21,500.45a2.2,2.2,0,0,1-.51,1.44,2,2,0,0,1-1.57.69,2.14,2.14,0,1,1,2.08-2.13Z"/>
      <path class="cls-1" d="M117.73,510.93a2.05,2.05,0,0,1-2.14-2.09v-.42c0-2.73,4.28-2.73,4.28,0v.42a2,2,0,0,1-.69,1.57A2.24,2.24,0,0,1,117.73,510.93Z"/>
      <path class="cls-1" d="M112.31,516a2,2,0,0,1-.69,1.57,2.24,2.24,0,0,1-1.45.52A2.05,2.05,0,0,1,108,516v-.42c0-2.73,4.28-2.73,4.28,0Z"/>
      <path class="cls-1" d="M119.85,523.12a2.08,2.08,0,1,1,2.08,2.14A2,2,0,0,1,119.85,523.12Z"/>
      <path class="cls-1" d="M114,531.92a2.23,2.23,0,0,1-1.45-.51,2,2,0,0,1-.69-1.57V529c0-2.07,2.45-2.55,3.59-1.57a2,2,0,0,1,.69,1.57v.84A2,2,0,0,1,114,531.92Z"/>
      <path class="cls-1" d="M108.46,537v-.42c0-2.07,2.44-2.55,3.58-1.57a2,2,0,0,1,.69,1.57V537a2.14,2.14,0,0,1-4.27,0Z"/>
      <path class="cls-1" d="M98.37,519.34c0-2.73,4.28-2.74,4.28,0v.42a2,2,0,0,1-.69,1.57,2.23,2.23,0,0,1-1.45.51,2,2,0,0,1-2.14-2.08Z"/>
      <path class="cls-1" d="M87.07,519.32a2,2,0,0,1-2.13-2.08v-.42c0-2.73,4.27-2.73,4.27,0v.42a2,2,0,0,1-.69,1.57A2.23,2.23,0,0,1,87.07,519.32Z"/>
      <path class="cls-1" d="M92.55,506.32a2,2,0,0,1,2.08-2.13h.42a2,2,0,0,1,1.57.69,2.21,2.21,0,0,1,.51,1.45,2,2,0,0,1-2.08,2.13h-.42A2,2,0,0,1,92.55,506.32Z"/>
      <path class="cls-1" d="M79.09,508A2.05,2.05,0,0,1,77,505.9a2.2,2.2,0,0,1,.52-1.45,2.09,2.09,0,0,1,3.65,1.45A2.05,2.05,0,0,1,79.09,508Z"/>
      <path class="cls-1" d="M73.64,511.33a2,2,0,0,1,2.08,2.14,2.16,2.16,0,0,1-.52,1.44,2,2,0,0,1-1.56.69,2.14,2.14,0,0,1,0-4.27Z"/>
      <path class="cls-1" d="M63.15,502.54a2.09,2.09,0,1,1,4.17,0A2.2,2.2,0,0,1,66.8,504a2,2,0,0,1-1.56.68A2,2,0,0,1,63.15,502.54Z"/>
      <path class="cls-1" d="M60.2,514.71a2.05,2.05,0,0,1-2.14-2.09v-.84c0-2.73,4.27-2.73,4.27,0v.84a2,2,0,0,1-.69,1.57A2.21,2.21,0,0,1,60.2,514.71Z"/>
      <path class="cls-1" d="M51.38,498.38a2,2,0,0,1-2.09-2.14,2.21,2.21,0,0,1,.52-1.44,2.09,2.09,0,0,1,3.65,1.45A2,2,0,0,1,51.38,498.38Z"/>
      <path class="cls-1" d="M72,494.56V495a2,2,0,0,1-2.14,2.08,2.16,2.16,0,0,1-1.44-.52,2,2,0,0,1-.69-1.56v-.43c0-2.06,2.44-2.55,3.59-1.56A2,2,0,0,1,72,494.56Z"/>
      <path class="cls-1" d="M70.45,477.1a2.14,2.14,0,0,1,3,3l-.42.42a2,2,0,0,1-1.45.63h-.15a2.21,2.21,0,0,1-1.39-.66,2,2,0,0,1,0-3Z"/>
      <path class="cls-1" d="M61.34,483.46a2.18,2.18,0,0,1,.52,1.45,2.09,2.09,0,1,1-4.17,0,2.24,2.24,0,0,1,.52-1.45A2.17,2.17,0,0,1,61.34,483.46Z"/>
      <path class="cls-1" d="M52.53,480.48A2.19,2.19,0,1,1,53,479,2.25,2.25,0,0,1,52.53,480.48Z"/>
      <path class="cls-1" d="M42.75,485.86a2,2,0,0,1,.69,1.57v.84a2,2,0,0,1-.69,1.56,2.2,2.2,0,0,1-1.45.52,2.05,2.05,0,0,1-2.14-2.08v-.84C39.16,485.36,41.61,484.88,42.75,485.86Z"/>
      <path class="cls-1" d="M43.29,473a2.23,2.23,0,0,1,.51,1.45,2.08,2.08,0,1,1-4.16,0,2.23,2.23,0,0,1,.51-1.45A2.18,2.18,0,0,1,43.29,473Z"/>
      <path class="cls-1" d="M48.88,466A2.08,2.08,0,1,1,53,466a2.23,2.23,0,0,1-.51,1.45A2.1,2.1,0,0,1,48.88,466Z"/>
      <path class="cls-1" d="M27.88,472.73a2.23,2.23,0,0,1,.51-1.45,2.18,2.18,0,0,1,3.14,0,2.23,2.23,0,0,1,.51,1.45,2.08,2.08,0,1,1-4.16,0Z"/>
      <path class="cls-1" d="M30.76,489.53v-.42c0-2.74,4.28-2.74,4.28,0v.42a2,2,0,0,1-.69,1.56,2.18,2.18,0,0,1-1.45.52A2.05,2.05,0,0,1,30.76,489.53Z"/>
      <path class="cls-1" d="M29,495.64a2.21,2.21,0,0,1,.51,1.45,2.08,2.08,0,1,1-4.16,0A2.08,2.08,0,0,1,29,495.64Z"/>
      <path class="cls-1" d="M52.06,521.09a2.06,2.06,0,0,1-1.16.36,2.18,2.18,0,0,1-1-.24l-.85-.43a1.89,1.89,0,0,1-1-1.24,2.09,2.09,0,0,1,.18-1.44,2.18,2.18,0,0,1,3-1l.84.42a1.88,1.88,0,0,1,1.11,1.6A2.28,2.28,0,0,1,52.06,521.09Z"/>
      <path class="cls-1" d="M142.69,470a2.18,2.18,0,0,1,.52,1.45,2.09,2.09,0,1,1-4.17,0,2.09,2.09,0,0,1,3.65-1.45Z"/>
      <path class="cls-1" d="M149.05,483.68a2.14,2.14,0,0,1,0-4.27h.42a2,2,0,0,1,1.57.69,2.24,2.24,0,0,1,.52,1.45,2,2,0,0,1-2.09,2.13Z"/>
      <path class="cls-1" d="M140.84,485.44a2,2,0,0,1,.69,1.57v.42a2,2,0,0,1-.69,1.56,2.18,2.18,0,0,1-1.45.52,2,2,0,0,1-2.13-2.08V487C137.26,484.94,139.7,484.46,140.84,485.44Z"/>
      <path class="cls-1" d="M144.4,496.25v-.43c0-2.07,2.44-2.55,3.58-1.56a2,2,0,0,1,.69,1.56v.43a2.05,2.05,0,0,1-2.14,2.08,2.2,2.2,0,0,1-1.45-.52A2,2,0,0,1,144.4,496.25Z"/>
      <path class="cls-1" d="M143.16,505.16a2,2,0,0,1-1.57.69,2.14,2.14,0,1,1,2.08-2.14A2.23,2.23,0,0,1,143.16,505.16Z"/>
      <path class="cls-1" d="M153.61,504.58a2.24,2.24,0,0,1,.52,1.45,2.09,2.09,0,1,1-4.17,0,2.09,2.09,0,0,1,3.65-1.45Z"/>
      <path class="cls-1" d="M141.07,513.43a2,2,0,0,1,1.57.68,2.26,2.26,0,0,1,.52,1.45,2.05,2.05,0,0,1-2.09,2.14h-.42a2.14,2.14,0,0,1,0-4.27Z"/>
      <path class="cls-1" d="M146.5,521.11c0-2.07,2.45-2.55,3.59-1.57a2,2,0,0,1,.69,1.57v.42a2.05,2.05,0,0,1-2.14,2.08,2.18,2.18,0,0,1-1.45-.52,2,2,0,0,1-.69-1.56Z"/>
      <path class="cls-1" d="M152.53,537.33a2.31,2.31,0,0,1-1.61,1.61,1.91,1.91,0,0,1-.52.07,2,2,0,0,1-1.45-.63l-.42-.42a2,2,0,0,1-.62-1.59,2.19,2.19,0,0,1,.66-1.39,2,2,0,0,1,3,0l.42.42A2,2,0,0,1,152.53,537.33Z"/>
      <path class="cls-1" d="M153.57,550.07l-.35,0a1.93,1.93,0,0,1-1.47-.7l-.38-.45a2.18,2.18,0,0,1,.27-3.14,1.89,1.89,0,0,1,2.8.18l.39.44a2.12,2.12,0,0,1,.42,2.12A2.31,2.31,0,0,1,153.57,550.07Z"/>
      <path class="cls-1" d="M139,555.46a2.23,2.23,0,0,1,.63-1.57,2,2,0,0,1,1.45-.57,2,2,0,0,1,2.08,2.14,2.25,2.25,0,0,1-.51,1.45,2,2,0,0,1-1.57.68,2.46,2.46,0,0,1-.49-.05A2,2,0,0,1,139,555.46Z"/>
      <path class="cls-1" d="M150.65,564.55h-.42a2.14,2.14,0,0,1,0-4.27h.42a2,2,0,0,1,1.56.69,2.17,2.17,0,0,1,.52,1.45A2,2,0,0,1,150.65,564.55Z"/>
      <path class="cls-1" d="M165.32,565.74a2.14,2.14,0,0,1,0-4.27h.42a2,2,0,0,1,1.56.69,2.18,2.18,0,0,1,.52,1.45,2,2,0,0,1-2.08,2.13Z"/>
      <path class="cls-1" d="M155.42,557.93a2.09,2.09,0,1,1,4.17,0,2.24,2.24,0,0,1-.52,1.45,2.1,2.1,0,0,1-3.65-1.45Z"/>
      <path class="cls-1" d="M162.51,550a2.08,2.08,0,1,1,4.16,0,2.23,2.23,0,0,1-.51,1.45,2.1,2.1,0,0,1-3.65-1.45Z"/>
      <path class="cls-1" d="M173.57,558.57v-.42c0-2.07,2.44-2.55,3.58-1.57a2,2,0,0,1,.69,1.57v.42a2,2,0,0,1-.69,1.56,2.18,2.18,0,0,1-1.45.52A2,2,0,0,1,173.57,558.57Z"/>
      <path class="cls-1" d="M237.68,561.75a2.2,2.2,0,0,1,.51-1.44,2,2,0,0,1,1.57-.69,2,2,0,0,1,2.08,2.14,2.23,2.23,0,0,1-.51,1.45,2.1,2.1,0,0,1-3.65-1.46Z"/>
      <path class="cls-1" d="M252.13,556.92a2.14,2.14,0,1,1,2.09-2.13,2.24,2.24,0,0,1-.52,1.45A2,2,0,0,1,252.13,556.92Z"/>
      <path class="cls-1" d="M283.67,559.73a2,2,0,0,1-2.08-2.14,2.23,2.23,0,0,1,.51-1.45,2.17,2.17,0,0,1,3.13,0,2.2,2.2,0,0,1,.52,1.45A2,2,0,0,1,283.67,559.73Z"/>
      <path class="cls-1" d="M277.56,548.78a2.05,2.05,0,0,1-2.09-2.14,2.24,2.24,0,0,1,.52-1.45,2.09,2.09,0,0,1,3.65,1.45A2.05,2.05,0,0,1,277.56,548.78Z"/>
      <path class="cls-1" d="M272.52,558.43a2,2,0,0,1-2.09-2.13,2.24,2.24,0,0,1,.52-1.45,2,2,0,0,1,1.57-.69,2.05,2.05,0,0,1,2.08,2.14,2.18,2.18,0,0,1-.52,1.45A2,2,0,0,1,272.52,558.43Z"/>
      <path class="cls-1" d="M263.28,555.86a2.05,2.05,0,0,1-2.14-2.08v-.42c0-2.07,2.44-2.55,3.59-1.57a2,2,0,0,1,.69,1.57v.42a2,2,0,0,1-.69,1.56A2.2,2.2,0,0,1,263.28,555.86Z"/>
      <path class="cls-1" d="M254,544.12a2.23,2.23,0,0,1-.51,1.45,2.1,2.1,0,0,1-3.65-1.45,2.23,2.23,0,0,1,.51-1.45,2.1,2.1,0,0,1,3.65,1.45Z"/>
      <path class="cls-1" d="M244.27,551.07a2.23,2.23,0,0,1,.51,1.45,2.08,2.08,0,1,1-4.16,0,2.23,2.23,0,0,1,.51-1.45A2.18,2.18,0,0,1,244.27,551.07Z"/>
      <path class="cls-1" d="M231.78,557.59a2,2,0,0,1-2.08-2.13,2.23,2.23,0,0,1,.51-1.45,2,2,0,0,1,1.57-.69h.42a2.05,2.05,0,0,1,2.09,2.14,2.26,2.26,0,0,1-.52,1.45,2,2,0,0,1-1.57.68Z"/>
      <path class="cls-1" d="M223.8,544.08h.84a2,2,0,0,1,1.57.69,2.24,2.24,0,0,1,.52,1.45,2.05,2.05,0,0,1-2.09,2.14h-.84a2.14,2.14,0,0,1,0-4.28Z"/>
      <path class="cls-1" d="M235,540.79h-.11a1.92,1.92,0,0,1-1.61-1.1l-.43-.84a2.18,2.18,0,0,1,1-3,1.92,1.92,0,0,1,2.7.86l.43.84a2.08,2.08,0,0,1-.1,2.14A2.29,2.29,0,0,1,235,540.79Z"/>
      <path class="cls-1" d="M214.15,559.27a2.14,2.14,0,1,1,2.08-2.13,2.18,2.18,0,0,1-.52,1.45A2,2,0,0,1,214.15,559.27Z"/>
      <path class="cls-1" d="M196.1,561.76a2.09,2.09,0,1,1,2.09,2.13A2,2,0,0,1,196.1,561.76Z"/>
      <path class="cls-1" d="M203.23,552.14a2.14,2.14,0,1,1,2.08-2.14,2.18,2.18,0,0,1-.52,1.45A2,2,0,0,1,203.23,552.14Z"/>
      <path class="cls-1" d="M243.37,486.73a2.18,2.18,0,0,1,.52,1.45,2.09,2.09,0,1,1-4.17,0,2.09,2.09,0,0,1,3.65-1.45Z"/>
      <path class="cls-1" d="M187.37,556.92a2,2,0,0,1-2.08-2.14,2.23,2.23,0,0,1,.51-1.45,2.19,2.19,0,0,1,3.14,0,2.25,2.25,0,0,1,.51,1.45A2,2,0,0,1,187.37,556.92Z"/>
      <path class="cls-1" d="M178.94,545.36a2.09,2.09,0,1,1,4.17,0,2.18,2.18,0,0,1-.52,1.45,2,2,0,0,1-1.56.69A2.05,2.05,0,0,1,178.94,545.36Z"/>
      <path class="cls-1" d="M186.93,532.3a2.23,2.23,0,0,1,.51-1.45,2.1,2.1,0,0,1,3.65,1.45,2.23,2.23,0,0,1-.51,1.45,2.1,2.1,0,0,1-3.65-1.45Z"/>
      <path class="cls-1" d="M170.91,540.76a2.08,2.08,0,1,1,4.16,0,2.23,2.23,0,0,1-.51,1.45,2.1,2.1,0,0,1-3.65-1.45Z"/>
      <path class="cls-1" d="M161.19,537.4v-.84c0-2.07,2.44-2.55,3.59-1.57a2,2,0,0,1,.69,1.57v.84a2,2,0,0,1-2.14,2.08,2.23,2.23,0,0,1-1.45-.51A2,2,0,0,1,161.19,537.4Z"/>
      <path class="cls-1" d="M154.11,526.06a2.09,2.09,0,1,1,4.17,0,2.24,2.24,0,0,1-.52,1.45,2.1,2.1,0,0,1-3.65-1.45Z"/>
      <path class="cls-1" d="M172.34,522a2,2,0,0,1,.69,1.57V524a2.05,2.05,0,0,1-2.14,2.09,2.24,2.24,0,0,1-1.45-.52,2,2,0,0,1-.69-1.57v-.42C168.75,521.47,171.2,521,172.34,522Z"/>
      <path class="cls-1" d="M255.21,499.93a2.26,2.26,0,0,1-.52,1.45,2.18,2.18,0,1,1,.52-1.45Z"/>
      <path class="cls-1" d="M193.57,544.52a2.23,2.23,0,0,1-1.45-.51,2,2,0,0,1-.69-1.57V542c0-2.73,4.27-2.74,4.27,0v.42A2,2,0,0,1,193.57,544.52Z"/>
      <path class="cls-1" d="M215.24,542.69a2,2,0,0,1-1.45.63,2.2,2.2,0,0,1-1.54-.67,2,2,0,0,1,0-3l.42-.42a2.14,2.14,0,0,1,3,3Z"/>
      <path class="cls-1" d="M210,531.1a2.18,2.18,0,0,1,.52-1.45,2.1,2.1,0,0,1,3.65,1.45,2.18,2.18,0,0,1-.52,1.45A2.1,2.1,0,0,1,210,531.1Z"/>
      <path class="cls-1" d="M204.37,534.69a2.18,2.18,0,0,1,.52,1.45,2.09,2.09,0,1,1-4.17,0,2.09,2.09,0,0,1,3.65-1.45Z"/>
      <path class="cls-1" d="M188.83,518.32a2.16,2.16,0,0,1,.52,1.44,2.09,2.09,0,1,1-4.17,0,2.26,2.26,0,0,1,.52-1.45A2.17,2.17,0,0,1,188.83,518.32Z"/>
      <path class="cls-1" d="M180.13,526a2,2,0,0,1,2.08,2.13,2.23,2.23,0,0,1-.51,1.45,2.12,2.12,0,1,1-1.57-3.58Z"/>
      <path class="cls-1" d="M170.89,508.39h.42a2,2,0,0,1,1.57.69,2.2,2.2,0,0,1,.51,1.44,2,2,0,0,1-2.08,2.14h-.42a2.14,2.14,0,0,1,0-4.27Z"/>
      <path class="cls-1" d="M161.65,515.6a2,2,0,0,1-2.08-2.14,2.25,2.25,0,0,1,.51-1.45,2.09,2.09,0,0,1,3.65,1.46A2,2,0,0,1,161.65,515.6Z"/>
      <path class="cls-1" d="M163.22,491a2.21,2.21,0,0,1,.51,1.45,2.08,2.08,0,1,1-4.16,0,2.08,2.08,0,0,1,3.65-1.44Z"/>
      <path class="cls-1" d="M181.79,502.13a2.08,2.08,0,1,1-4.16,0,2.25,2.25,0,0,1,.51-1.45,2.09,2.09,0,0,1,3.65,1.46Z"/>
      <path class="cls-1" d="M162.51,503a2.08,2.08,0,1,1,4.16,0,2.2,2.2,0,0,1-.51,1.44,2,2,0,0,1-1.57.69A2,2,0,0,1,162.51,503Z"/>
      <path class="cls-1" d="M171.73,487.81a2,2,0,0,1,2.08,2.14,2.25,2.25,0,0,1-.51,1.45,2.12,2.12,0,1,1-1.57-3.59Z"/>
      <path class="cls-1" d="M167,476.32a2.23,2.23,0,0,1,.51,1.45,2.08,2.08,0,1,1-4.16,0,2.23,2.23,0,0,1,.51-1.45A2.18,2.18,0,0,1,167,476.32Z"/>
      <path class="cls-1" d="M161.27,482.39v.42a2.05,2.05,0,0,1-2.14,2.08,2.18,2.18,0,0,1-1.45-.52,2,2,0,0,1-.68-1.56v-.42c0-2.07,2.44-2.55,3.58-1.57A2,2,0,0,1,161.27,482.39Z"/>
      <path class="cls-1" d="M156.21,467.69a2.23,2.23,0,0,1,.51-1.45,2.18,2.18,0,0,1,3.14,0,2.23,2.23,0,0,1,.51,1.45,2.08,2.08,0,1,1-4.16,0Z"/>
      <path class="cls-1" d="M177,477.24a2,2,0,0,1-.69-1.57v-.42c0-2.07,2.45-2.55,3.59-1.57a2,2,0,0,1,.69,1.57v.42a2,2,0,0,1-2.14,2.08A2.23,2.23,0,0,1,177,477.24Z"/>
      <path class="cls-1" d="M191.24,482.08a2,2,0,0,1,.68,1.57v.42a2,2,0,0,1-2.13,2.08,2.18,2.18,0,0,1-1.45-.52,2,2,0,0,1-.69-1.56v-.42C187.65,481.58,190.1,481.1,191.24,482.08Z"/>
      <path class="cls-1" d="M184.33,488.65a2,2,0,0,1,2.08,2.14,2.25,2.25,0,0,1-.51,1.45,2.1,2.1,0,0,1-3.65-1.45,2.23,2.23,0,0,1,.51-1.45A2,2,0,0,1,184.33,488.65Z"/>
      <path class="cls-1" d="M203.21,501.28a2.18,2.18,0,0,1-.52,1.45,2,2,0,0,1-1.56.69,2.14,2.14,0,1,1,2.08-2.14Z"/>
      <path class="cls-1" d="M191.64,506.49a2.14,2.14,0,0,1,3,3l-.42.42a2,2,0,0,1-1.44.63,2.26,2.26,0,0,1-1.55-.66,2.05,2.05,0,0,1,0-3Z"/>
      <path class="cls-1" d="M183.05,513.88a2.08,2.08,0,1,1-4.16,0,2.25,2.25,0,0,1,.51-1.45,2.09,2.09,0,0,1,3.65,1.45Z"/>
      <path class="cls-1" d="M216.23,509.68a2.18,2.18,0,0,1-.52,1.45,2,2,0,0,1-1.56.69h-.85a2.05,2.05,0,0,1-2.08-2.14,2.2,2.2,0,0,1,.52-1.45,2,2,0,0,1,1.56-.68h.85A2,2,0,0,1,216.23,509.68Z"/>
      <path class="cls-1" d="M203.24,516.4a2.2,2.2,0,0,1,.52-1.45,2.09,2.09,0,0,1,3.65,1.45,2.09,2.09,0,1,1-4.17,0Z"/>
      <path class="cls-1" d="M204.89,524a2.09,2.09,0,1,1-4.17,0,2.09,2.09,0,1,1,4.17,0Z"/>
      <path class="cls-1" d="M228,525.22a2,2,0,0,1-2.14,2.08,2.25,2.25,0,0,1-1.45-.51,2,2,0,0,1-.68-1.57v-.42c0-2.07,2.44-2.55,3.58-1.57a2,2,0,0,1,.69,1.57Z"/>
      <path class="cls-1" d="M224.22,534.5a2.05,2.05,0,0,1-2.08-2.14,2.18,2.18,0,0,1,.52-1.45,2,2,0,0,1,1.56-.69,2.05,2.05,0,0,1,2.09,2.14,2.24,2.24,0,0,1-.52,1.45A2,2,0,0,1,224.22,534.5Z"/>
      <path class="cls-1" d="M238.1,527.32a2.23,2.23,0,0,1,.51-1.45,2.19,2.19,0,0,1,3.14,0,2.25,2.25,0,0,1,.51,1.45,2.08,2.08,0,1,1-4.16,0Z"/>
      <path class="cls-1" d="M247.34,531.52a2.08,2.08,0,1,1,4.16,0A2.23,2.23,0,0,1,251,533a2.1,2.1,0,0,1-3.65-1.45Z"/>
      <path class="cls-1" d="M262,533.6a2.23,2.23,0,0,1-1.45-.51,2,2,0,0,1-.69-1.57v-.84c0-2.07,2.45-2.55,3.59-1.57a2,2,0,0,1,.69,1.57v.84A2,2,0,0,1,262,533.6Z"/>
      <path class="cls-1" d="M266.47,542.69a2,2,0,0,1-1.44.63,2.22,2.22,0,0,1-1.55-.67,2,2,0,0,1,0-3l.42-.42a2,2,0,0,1,2-.56,2.33,2.33,0,0,1,1.61,1.61,2,2,0,0,1-.56,2Z"/>
      <path class="cls-1" d="M283,497.09v-.43c0-2.06,2.44-2.55,3.59-1.56a2,2,0,0,1,.68,1.56v.43a2.14,2.14,0,0,1-4.27,0Z"/>
      <path class="cls-1" d="M286.8,481.51a2.05,2.05,0,0,1,2.08,2.14,2.2,2.2,0,0,1-.52,1.45,2,2,0,0,1-1.56.68,2.14,2.14,0,0,1,0-4.27Z"/>
      <path class="cls-1" d="M273.79,481.13a2.09,2.09,0,1,1,4.17,0,2.18,2.18,0,0,1-.52,1.45,2,2,0,0,1-1.56.68A2,2,0,0,1,273.79,481.13Z"/>
      <path class="cls-1" d="M280.46,469.37V469c0-2.07,2.44-2.55,3.59-1.57a2,2,0,0,1,.68,1.57v.42a2.14,2.14,0,0,1-4.27,0Z"/>
      <path class="cls-1" d="M227.58,465.13a2.05,2.05,0,0,1,2.09,2.14,2.24,2.24,0,0,1-.52,1.45,2.12,2.12,0,1,1-1.57-3.59Z"/>
      <path class="cls-1" d="M244.61,470.1a2,2,0,0,1-.68-1.57v-.42c0-2.73,4.27-2.74,4.27,0v.42a2,2,0,0,1-2.14,2.08A2.23,2.23,0,0,1,244.61,470.1Z"/>
      <path class="cls-1" d="M259.06,465.17a2.08,2.08,0,1,1-4.16,0,2.23,2.23,0,0,1,.51-1.45,1.83,1.83,0,0,1,.46-.37h2.21a1.71,1.71,0,0,1,.47.37A2.23,2.23,0,0,1,259.06,465.17Z"/>
      <path class="cls-1" d="M270.72,466.24a2.18,2.18,0,0,1,.52,1.45,2.09,2.09,0,1,1-4.17,0,2.24,2.24,0,0,1,.52-1.45A2.17,2.17,0,0,1,270.72,466.24Z"/>
      <path class="cls-1" d="M264.12,478.57a2,2,0,0,1,2.08,2.14,2.23,2.23,0,0,1-.51,1.45,2.1,2.1,0,0,1-3.65-1.45,2.23,2.23,0,0,1,.51-1.45A2,2,0,0,1,264.12,478.57Z"/>
      <path class="cls-1" d="M251.94,474a2,2,0,0,1,2.08,2.14,2.23,2.23,0,0,1-.51,1.45,2.1,2.1,0,0,1-3.65-1.45,2.23,2.23,0,0,1,.51-1.45A2,2,0,0,1,251.94,474Z"/>
      <path class="cls-1" d="M252.13,489.22a2,2,0,0,1,.69,1.57v.42a2.05,2.05,0,0,1-2.14,2.08,2.18,2.18,0,0,1-1.45-.52,2,2,0,0,1-.69-1.56v-.42C248.54,488.72,251,488.23,252.13,489.22Z"/>
      <path class="cls-1" d="M269.19,490.37v.42a2,2,0,0,1-.68,1.56,2.2,2.2,0,0,1-1.45.52,2.05,2.05,0,0,1-2.14-2.08v-.42C264.92,487.63,269.19,487.63,269.19,490.37Z"/>
      <path class="cls-1" d="M272.92,500.45a2.2,2.2,0,0,1-.51,1.44,2,2,0,0,1-1.57.69,2.14,2.14,0,1,1,2.08-2.13Z"/>
      <path class="cls-1" d="M283.44,510.93a2.05,2.05,0,0,1-2.14-2.09v-.42c0-2.73,4.27-2.73,4.27,0v.42a2,2,0,0,1-.69,1.57A2.21,2.21,0,0,1,283.44,510.93Z"/>
      <path class="cls-1" d="M278,516a2,2,0,0,1-.69,1.57,2.21,2.21,0,0,1-1.44.52,2.05,2.05,0,0,1-2.14-2.09v-.42c0-2.73,4.27-2.73,4.27,0Z"/>
      <path class="cls-1" d="M285.55,523.12a2.09,2.09,0,1,1,2.09,2.14A2.05,2.05,0,0,1,285.55,523.12Z"/>
      <path class="cls-1" d="M279.65,531.92a2.2,2.2,0,0,1-1.44-.51,2,2,0,0,1-.69-1.57V529c0-2.07,2.44-2.55,3.59-1.57a2,2,0,0,1,.68,1.57v.84A2,2,0,0,1,279.65,531.92Z"/>
      <path class="cls-1" d="M274.16,537v-.42c0-2.07,2.44-2.55,3.59-1.57a2,2,0,0,1,.68,1.57V537a2.14,2.14,0,0,1-4.27,0Z"/>
      <path class="cls-1" d="M264.08,519.34c0-2.73,4.27-2.74,4.27,0v.42a2,2,0,0,1-.69,1.57,2.2,2.2,0,0,1-1.44.51,2,2,0,0,1-2.14-2.08Z"/>
      <path class="cls-1" d="M252.78,519.32a2,2,0,0,1-2.14-2.08v-.42c0-2.73,4.28-2.73,4.28,0v.42a2,2,0,0,1-.69,1.57A2.25,2.25,0,0,1,252.78,519.32Z"/>
      <path class="cls-1" d="M258.26,506.32a2,2,0,0,1,2.08-2.13h.42a2,2,0,0,1,1.57.69,2.21,2.21,0,0,1,.51,1.45,2,2,0,0,1-2.08,2.13h-.42A2,2,0,0,1,258.26,506.32Z"/>
      <path class="cls-1" d="M244.8,508a2,2,0,0,1-2.08-2.14,2.25,2.25,0,0,1,.51-1.45,2.09,2.09,0,0,1,3.65,1.45A2,2,0,0,1,244.8,508Z"/>
      <path class="cls-1" d="M239.34,511.33a2,2,0,0,1,2.09,2.14,2.21,2.21,0,0,1-.52,1.44,2,2,0,0,1-1.57.69,2.14,2.14,0,0,1,0-4.27Z"/>
      <path class="cls-1" d="M228.86,502.54a2.09,2.09,0,1,1,4.17,0,2.26,2.26,0,0,1-.52,1.45,2.1,2.1,0,0,1-3.65-1.46Z"/>
      <path class="cls-1" d="M225.9,514.71a2,2,0,0,1-2.13-2.09v-.84c0-2.73,4.27-2.73,4.27,0v.84a2,2,0,0,1-.69,1.57A2.24,2.24,0,0,1,225.9,514.71Z"/>
      <path class="cls-1" d="M217.08,498.38a2,2,0,0,1-2.08-2.14,2.09,2.09,0,0,1,3.65-1.44,2.22,2.22,0,0,1,.52,1.45A2,2,0,0,1,217.08,498.38Z"/>
      <path class="cls-1" d="M237.7,494.56V495a2.05,2.05,0,0,1-2.14,2.08,2.18,2.18,0,0,1-1.45-.52,2,2,0,0,1-.68-1.56v-.43c0-2.06,2.44-2.55,3.58-1.56A2,2,0,0,1,237.7,494.56Z"/>
      <path class="cls-1" d="M236.15,477.1a2.14,2.14,0,0,1,3,3l-.42.42a2,2,0,0,1-1.45.63h-.14a2.19,2.19,0,0,1-1.39-.66,2,2,0,0,1,0-3Z"/>
      <path class="cls-1" d="M227.05,483.46a2.24,2.24,0,0,1,.52,1.45,2.09,2.09,0,1,1-4.17,0,2.09,2.09,0,0,1,3.65-1.45Z"/>
      <path class="cls-1" d="M218.23,480.48a2.18,2.18,0,1,1,.52-1.45A2.2,2.2,0,0,1,218.23,480.48Z"/>
      <path class="cls-1" d="M208.45,485.86a2,2,0,0,1,.69,1.57v.84a2,2,0,0,1-.69,1.56,2.17,2.17,0,0,1-1.45.52,2,2,0,0,1-2.13-2.08v-.84C204.87,485.36,207.31,484.88,208.45,485.86Z"/>
      <path class="cls-1" d="M209,473a2.18,2.18,0,0,1,.52,1.45,2.09,2.09,0,1,1-4.17,0A2.09,2.09,0,0,1,209,473Z"/>
      <path class="cls-1" d="M214.58,466a2.09,2.09,0,1,1,4.17,0,2.18,2.18,0,0,1-.52,1.45,2.1,2.1,0,0,1-3.65-1.45Z"/>
      <path class="cls-1" d="M193.58,472.73a2.24,2.24,0,0,1,.52-1.45,2.09,2.09,0,0,1,3.65,1.45,2.09,2.09,0,1,1-4.17,0Z"/>
      <path class="cls-1" d="M196.47,489.53v-.42c0-2.74,4.27-2.74,4.27,0v.42a2,2,0,0,1-.69,1.56,2.17,2.17,0,0,1-1.45.52A2,2,0,0,1,196.47,489.53Z"/>
      <path class="cls-1" d="M194.71,495.64a2.17,2.17,0,0,1,.52,1.45,2.09,2.09,0,1,1-4.17,0,2.21,2.21,0,0,1,.52-1.44A2.17,2.17,0,0,1,194.71,495.64Z"/>
      <path class="cls-1" d="M217.77,521.09a2.08,2.08,0,0,1-1.16.36,2.22,2.22,0,0,1-1-.24l-.84-.43a1.87,1.87,0,0,1-1.05-1.24,2,2,0,0,1,.18-1.44,2.17,2.17,0,0,1,3-1l.84.42a1.9,1.9,0,0,1,1.11,1.6A2.33,2.33,0,0,1,217.77,521.09Z"/>
    </g>
    <g>
      <path class="cls-1" d="M290.31,558.57v-.42c0-2.07,2.44-2.55,3.59-1.57a2,2,0,0,1,.68,1.57v.42a2,2,0,0,1-.69,1.56,2.16,2.16,0,0,1-1.44.52A2.05,2.05,0,0,1,290.31,558.57Z"/>
      <path class="cls-1" d="M354.42,561.75a2.16,2.16,0,0,1,.52-1.44,2,2,0,0,1,1.57-.69,2,2,0,0,1,2.08,2.14,2.18,2.18,0,0,1-.52,1.45,2,2,0,0,1-1.56.68A2,2,0,0,1,354.42,561.75Z"/>
      <path class="cls-1" d="M368.88,556.92a2.14,2.14,0,1,1,2.08-2.13,2.18,2.18,0,0,1-.52,1.45A2,2,0,0,1,368.88,556.92Z"/>
      <path class="cls-1" d="M380,555.86a2,2,0,0,1-2.13-2.08v-.42c0-2.07,2.44-2.55,3.58-1.57a2,2,0,0,1,.69,1.57v.42a2,2,0,0,1-.69,1.56A2.18,2.18,0,0,1,380,555.86Z"/>
      <path class="cls-1" d="M370.77,544.12a2.24,2.24,0,0,1-.52,1.45,2.1,2.1,0,0,1-3.65-1.45,2.18,2.18,0,0,1,.52-1.45,2,2,0,0,1,1.56-.69A2.05,2.05,0,0,1,370.77,544.12Z"/>
      <path class="cls-1" d="M361,551.07a2.24,2.24,0,0,1,.52,1.45,2.09,2.09,0,1,1-4.17,0,2.09,2.09,0,0,1,3.65-1.45Z"/>
      <path class="cls-1" d="M348.53,557.59a2,2,0,0,1-2.09-2.13A2.18,2.18,0,0,1,347,554a2,2,0,0,1,1.57-.69H349a2.05,2.05,0,0,1,2.08,2.14,2.2,2.2,0,0,1-.52,1.45,2,2,0,0,1-1.56.68Z"/>
      <path class="cls-1" d="M340.55,544.08h.84a2,2,0,0,1,1.56.69,2.18,2.18,0,0,1,.52,1.45,2.05,2.05,0,0,1-2.08,2.14h-.84a2.14,2.14,0,0,1,0-4.28Z"/>
      <path class="cls-1" d="M351.78,540.79h-.1a1.93,1.93,0,0,1-1.62-1.1l-.42-.84a2.17,2.17,0,0,1,1-3,1.93,1.93,0,0,1,2.71.86l.42.84a2.08,2.08,0,0,1-.09,2.14A2.32,2.32,0,0,1,351.78,540.79Z"/>
      <path class="cls-1" d="M330.89,559.27a2.14,2.14,0,1,1,2.08-2.13,2.23,2.23,0,0,1-.51,1.45A2,2,0,0,1,330.89,559.27Z"/>
      <path class="cls-1" d="M312.85,561.76a2.08,2.08,0,1,1,2.08,2.13A2,2,0,0,1,312.85,561.76Z"/>
      <path class="cls-1" d="M320,552.14a2.14,2.14,0,1,1,2.08-2.14,2.23,2.23,0,0,1-.51,1.45A2,2,0,0,1,320,552.14Z"/>
      <path class="cls-1" d="M360.12,486.73a2.23,2.23,0,0,1,.51,1.45,2.08,2.08,0,1,1-4.16,0,2.23,2.23,0,0,1,.51-1.45A2.18,2.18,0,0,1,360.12,486.73Z"/>
      <path class="cls-1" d="M304.11,556.92a2.05,2.05,0,0,1-2.08-2.14,2.09,2.09,0,0,1,3.65-1.45,2.26,2.26,0,0,1,.52,1.45A2.05,2.05,0,0,1,304.11,556.92Z"/>
      <path class="cls-1" d="M295.69,545.36a2.08,2.08,0,1,1,4.16,0,2.23,2.23,0,0,1-.51,1.45,2.1,2.1,0,0,1-3.65-1.45Z"/>
      <path class="cls-1" d="M303.67,532.3a2.18,2.18,0,0,1,.52-1.45,2,2,0,0,1,1.56-.69,2.05,2.05,0,0,1,2.09,2.14,2.24,2.24,0,0,1-.52,1.45,2.1,2.1,0,0,1-3.65-1.45Z"/>
      <path class="cls-1" d="M287.65,540.76a2.09,2.09,0,1,1,4.17,0,2.24,2.24,0,0,1-.52,1.45,2.1,2.1,0,0,1-3.65-1.45Z"/>
      <path class="cls-1" d="M289.08,522a2,2,0,0,1,.69,1.57V524a2.05,2.05,0,0,1-2.14,2.09,2.26,2.26,0,0,1-1.45-.52,2,2,0,0,1-.68-1.57v-.42C285.5,521.47,287.94,521,289.08,522Z"/>
      <path class="cls-1" d="M372,499.93a2.2,2.2,0,0,1-.52,1.45,2,2,0,0,1-1.56.68,2.14,2.14,0,1,1,2.08-2.13Z"/>
      <path class="cls-1" d="M310.31,544.52a2.23,2.23,0,0,1-1.45-.51,2,2,0,0,1-.69-1.57V542c0-2.73,4.28-2.74,4.28,0v.42A2,2,0,0,1,310.31,544.52Z"/>
      <path class="cls-1" d="M332,542.69a2,2,0,0,1-1.44.63,2.22,2.22,0,0,1-1.55-.67,2,2,0,0,1,0-3l.42-.42a2.14,2.14,0,0,1,3,3Z"/>
      <path class="cls-1" d="M326.71,531.1a2.23,2.23,0,0,1,.51-1.45,2.1,2.1,0,0,1,3.65,1.45,2.23,2.23,0,0,1-.51,1.45,2.1,2.1,0,0,1-3.65-1.45Z"/>
      <path class="cls-1" d="M321.12,534.69a2.23,2.23,0,0,1,.51,1.45,2.08,2.08,0,1,1-4.16,0,2.23,2.23,0,0,1,.51-1.45A2.18,2.18,0,0,1,321.12,534.69Z"/>
      <path class="cls-1" d="M305.58,518.32a2.2,2.2,0,0,1,.51,1.44,2.08,2.08,0,1,1-4.16,0,2.25,2.25,0,0,1,.51-1.45A2.18,2.18,0,0,1,305.58,518.32Z"/>
      <path class="cls-1" d="M296.87,526a2,2,0,0,1,2.09,2.13,2.24,2.24,0,0,1-.52,1.45,2.12,2.12,0,1,1-1.57-3.58Z"/>
      <path class="cls-1" d="M298.53,502.13a2.08,2.08,0,1,1-4.16,0,2.2,2.2,0,0,1,.52-1.45,2.18,2.18,0,0,1,3.13,0A2.21,2.21,0,0,1,298.53,502.13Z"/>
      <path class="cls-1" d="M293.74,477.24a2,2,0,0,1-.68-1.57v-.42c0-2.07,2.44-2.55,3.58-1.57a2,2,0,0,1,.69,1.57v.42a2,2,0,0,1-2.14,2.08A2.25,2.25,0,0,1,293.74,477.24Z"/>
      <path class="cls-1" d="M308,482.08a2,2,0,0,1,.69,1.57v.42a2.05,2.05,0,0,1-2.14,2.08,2.18,2.18,0,0,1-1.45-.52,2,2,0,0,1-.69-1.56v-.42C304.39,481.58,306.84,481.1,308,482.08Z"/>
      <path class="cls-1" d="M301.07,488.65a2,2,0,0,1,2.08,2.14,2.25,2.25,0,0,1-.51,1.45,2.1,2.1,0,0,1-3.65-1.45,2.23,2.23,0,0,1,.51-1.45A2,2,0,0,1,301.07,488.65Z"/>
      <path class="cls-1" d="M320,501.28a2.23,2.23,0,0,1-.51,1.45,2,2,0,0,1-1.57.69,2.14,2.14,0,1,1,2.08-2.14Z"/>
      <path class="cls-1" d="M308.38,506.49a2.14,2.14,0,0,1,3,3l-.42.42a2,2,0,0,1-1.44.63,2.22,2.22,0,0,1-1.54-.66,2.05,2.05,0,0,1,0-3Z"/>
      <path class="cls-1" d="M299.79,513.88a2.08,2.08,0,1,1-4.16,0,2.25,2.25,0,0,1,.51-1.45,2.09,2.09,0,0,1,3.65,1.45Z"/>
      <path class="cls-1" d="M333,509.68a2.23,2.23,0,0,1-.51,1.45,2,2,0,0,1-1.57.69h-.84a2,2,0,0,1-2.08-2.14,2.25,2.25,0,0,1,.51-1.45,2,2,0,0,1,1.57-.68h.84A2,2,0,0,1,333,509.68Z"/>
      <path class="cls-1" d="M320,516.4a2.25,2.25,0,0,1,.51-1.45,2.09,2.09,0,0,1,3.65,1.45,2.08,2.08,0,1,1-4.16,0Z"/>
      <path class="cls-1" d="M321.63,524a2.08,2.08,0,1,1-4.16,0,2.23,2.23,0,0,1,.51-1.45,2.19,2.19,0,0,1,3.14,0A2.25,2.25,0,0,1,321.63,524Z"/>
      <path class="cls-1" d="M344.78,525.22a2,2,0,0,1-2.13,2.08,2.23,2.23,0,0,1-1.45-.51,2,2,0,0,1-.69-1.57v-.42c0-2.07,2.44-2.55,3.59-1.57a2,2,0,0,1,.68,1.57Z"/>
      <path class="cls-1" d="M341,534.5a2.05,2.05,0,0,1-2.09-2.14,2.24,2.24,0,0,1,.52-1.45,2.1,2.1,0,0,1,3.65,1.45,2.18,2.18,0,0,1-.52,1.45A2,2,0,0,1,341,534.5Z"/>
      <path class="cls-1" d="M354.84,527.32a2.09,2.09,0,1,1,4.17,0,2.09,2.09,0,1,1-4.17,0Z"/>
      <path class="cls-1" d="M364.08,531.52a2.09,2.09,0,1,1,4.17,0,2.24,2.24,0,0,1-.52,1.45,2.1,2.1,0,0,1-3.65-1.45Z"/>
      <path class="cls-1" d="M378.76,533.6a2.25,2.25,0,0,1-1.45-.51,2,2,0,0,1-.68-1.57v-.84c0-2.07,2.44-2.55,3.58-1.57a2,2,0,0,1,.69,1.57v.84A2,2,0,0,1,378.76,533.6Z"/>
      <path class="cls-1" d="M383.21,542.69a2,2,0,0,1-1.44.63,2.18,2.18,0,0,1-1.54-.67,2,2,0,0,1,0-3l.42-.42a2,2,0,0,1,2-.56,2.33,2.33,0,0,1,1.61,1.61,2,2,0,0,1-.56,2Z"/>
      <path class="cls-1" d="M344.33,465.13a2.05,2.05,0,0,1,2.08,2.14,2.18,2.18,0,0,1-.52,1.45,2,2,0,0,1-1.56.68,2.14,2.14,0,0,1,0-4.27Z"/>
      <path class="cls-1" d="M361.36,470.1a2,2,0,0,1-.69-1.57v-.42c0-2.73,4.27-2.74,4.27,0v.42a2,2,0,0,1-2.14,2.08A2.2,2.2,0,0,1,361.36,470.1Z"/>
      <path class="cls-1" d="M380.86,478.57a2,2,0,0,1,2.08,2.14,2.23,2.23,0,0,1-.51,1.45,2.1,2.1,0,0,1-3.65-1.45,2.23,2.23,0,0,1,.51-1.45A2,2,0,0,1,380.86,478.57Z"/>
      <path class="cls-1" d="M368.68,474a2.05,2.05,0,0,1,2.09,2.14,2.24,2.24,0,0,1-.52,1.45,2.1,2.1,0,0,1-3.65-1.45,2.18,2.18,0,0,1,.52-1.45A2,2,0,0,1,368.68,474Z"/>
      <path class="cls-1" d="M368.87,489.22a2,2,0,0,1,.69,1.57v.42a2,2,0,0,1-2.14,2.08,2.2,2.2,0,0,1-1.45-.52,2,2,0,0,1-.68-1.56v-.42A2.17,2.17,0,0,1,368.87,489.22Z"/>
      <path class="cls-1" d="M369.52,519.32a2,2,0,0,1-2.13-2.08v-.42c0-2.73,4.27-2.73,4.27,0v.42a2,2,0,0,1-.69,1.57A2.23,2.23,0,0,1,369.52,519.32Z"/>
      <path class="cls-1" d="M375,506.32a2,2,0,0,1,2.08-2.13h.42a2,2,0,0,1,1.57.69,2.21,2.21,0,0,1,.51,1.45,2,2,0,0,1-2.08,2.13h-.42A2,2,0,0,1,375,506.32Z"/>
      <path class="cls-1" d="M361.54,508a2.05,2.05,0,0,1-2.08-2.14,2.2,2.2,0,0,1,.52-1.45,2.17,2.17,0,0,1,3.13,0,2.21,2.21,0,0,1,.52,1.44A2.05,2.05,0,0,1,361.54,508Z"/>
      <path class="cls-1" d="M356.09,511.33a2,2,0,0,1,2.08,2.14,2.16,2.16,0,0,1-.52,1.44,2,2,0,0,1-1.56.69,2.14,2.14,0,0,1,0-4.27Z"/>
      <path class="cls-1" d="M345.6,502.54a2.09,2.09,0,1,1,4.17,0,2.2,2.2,0,0,1-.52,1.45,2,2,0,0,1-1.56.68A2,2,0,0,1,345.6,502.54Z"/>
      <path class="cls-1" d="M342.65,514.71a2.05,2.05,0,0,1-2.14-2.09v-.84c0-2.73,4.27-2.73,4.27,0v.84a2,2,0,0,1-.69,1.57A2.21,2.21,0,0,1,342.65,514.71Z"/>
      <path class="cls-1" d="M333.83,498.38a2,2,0,0,1-2.09-2.14,2.21,2.21,0,0,1,.52-1.44,2.09,2.09,0,0,1,3.65,1.45A2,2,0,0,1,333.83,498.38Z"/>
      <path class="cls-1" d="M354.44,494.56V495a2,2,0,0,1-2.14,2.08,2.16,2.16,0,0,1-1.44-.52,2,2,0,0,1-.69-1.56v-.43c0-2.06,2.44-2.55,3.59-1.56A2,2,0,0,1,354.44,494.56Z"/>
      <path class="cls-1" d="M352.9,477.1a2.13,2.13,0,0,1,3,3l-.41.42a2,2,0,0,1-1.45.63h-.15a2.21,2.21,0,0,1-1.39-.66,2,2,0,0,1,0-3Z"/>
      <path class="cls-1" d="M343.79,483.46a2.18,2.18,0,0,1,.52,1.45,2.09,2.09,0,1,1-4.17,0,2.24,2.24,0,0,1,.52-1.45A2.17,2.17,0,0,1,343.79,483.46Z"/>
      <path class="cls-1" d="M335,480.48a2.19,2.19,0,1,1,.51-1.45A2.25,2.25,0,0,1,335,480.48Z"/>
      <path class="cls-1" d="M325.2,485.86a2,2,0,0,1,.68,1.57v.84a2,2,0,0,1-.68,1.56,2.2,2.2,0,0,1-1.45.52,2.05,2.05,0,0,1-2.14-2.08v-.84C321.61,485.36,324.06,484.88,325.2,485.86Z"/>
      <path class="cls-1" d="M325.74,473a2.23,2.23,0,0,1,.51,1.45,2.08,2.08,0,1,1-4.16,0,2.23,2.23,0,0,1,.51-1.45A2.18,2.18,0,0,1,325.74,473Z"/>
      <path class="cls-1" d="M331.33,466a2.08,2.08,0,1,1,4.16,0,2.23,2.23,0,0,1-.51,1.45,2.1,2.1,0,0,1-3.65-1.45Z"/>
      <path class="cls-1" d="M310.33,472.73a2.23,2.23,0,0,1,.51-1.45,2.18,2.18,0,0,1,3.14,0,2.23,2.23,0,0,1,.51,1.45,2.08,2.08,0,1,1-4.16,0Z"/>
      <path class="cls-1" d="M313.21,489.53v-.42c0-2.74,4.28-2.74,4.28,0v.42a2,2,0,0,1-.69,1.56,2.2,2.2,0,0,1-1.45.52A2.05,2.05,0,0,1,313.21,489.53Z"/>
      <path class="cls-1" d="M311.46,495.64a2.21,2.21,0,0,1,.51,1.45,2.08,2.08,0,1,1-4.16,0,2.08,2.08,0,0,1,3.65-1.44Z"/>
      <path class="cls-1" d="M334.51,521.09a2.06,2.06,0,0,1-1.16.36,2.18,2.18,0,0,1-1-.24l-.85-.43a1.89,1.89,0,0,1-1-1.24,2,2,0,0,1,.18-1.44,2.18,2.18,0,0,1,3-1l.84.42a1.88,1.88,0,0,1,1.11,1.6A2.3,2.3,0,0,1,334.51,521.09Z"/>
    </g>
  </g>
</svg>
