<svg id="Layer_1" data-name="Layer 1" xmlns="http://www.w3.org/2000/svg" width="43.31" height="46.27" viewBox="0 0 43.31 46.27">
  <defs>
    <style>
      .cls-1 {
        fill: #fff;
      }
    </style>
  </defs>
  <title>heart</title>
  <g>
    <path d="M22.63,0C5-.94-6.59,25,4.11,38.32a22,22,0,0,0,26.51,5.74C50.79,34,46,1.31,22.63,0Z"/>
    <path class="cls-1" d="M22.54,35.14a.65.65,0,0,1-.38.13.58.58,0,0,1-.38-.13l-8.77-8c-4.2-3.83-4.46-7.8-1.77-10.24a7.33,7.33,0,0,1,9.69,0,6.69,6.69,0,0,1,1.23,1.5,6.43,6.43,0,0,1,1.23-1.5,7.29,7.29,0,0,1,9.71,0c2.67,2.44,2.41,6.41-1.79,10.24Z"/>
  </g>
</svg>
