<svg id="Layer_1" data-name="Layer 1" xmlns="http://www.w3.org/2000/svg" width="43.31" height="46.27" viewBox="0 0 43.31 46.27">
  <defs>
    <style>
      .cls-1 {
        fill: #fff;
      }
    </style>
  </defs>
  <title>meltmedia</title>
  <g>
    <path d="M22.63,0C5-.94-6.59,25,4.11,38.32a22,22,0,0,0,26.51,5.74C50.79,34,46,1.31,22.63,0Z"/>
    <g>
      <path class="cls-1" d="M14.13,24.23a4.74,4.74,0,0,0,.25,1.67,5,5,0,0,1,.22,1.75A4.5,4.5,0,0,1,6,29.05a4.77,4.77,0,0,1-.07-3.29,4.47,4.47,0,0,1,3-2.83,10,10,0,0,0,1.51-.42,1.94,1.94,0,0,0,1.15-1.83,4.28,4.28,0,0,0-.3-1.22,6.68,6.68,0,0,1-.24-1.26,4.43,4.43,0,0,1,.51-2.45A4.74,4.74,0,0,1,13,14.16a4.65,4.65,0,0,1,2.37-.76,4.49,4.49,0,0,1,3.12,1A4.29,4.29,0,0,1,20,17a4.47,4.47,0,0,1-2.91,5.15,18.92,18.92,0,0,0-1.83.48A2,2,0,0,0,14.13,24.23Z"/>
      <path class="cls-1" d="M25.17,24.23a4.74,4.74,0,0,0,.3,1.67,5,5,0,0,1,.21,1.75A4.52,4.52,0,0,1,17,29.05a4.72,4.72,0,0,1-.08-3.29,4.51,4.51,0,0,1,3-2.83,9.64,9.64,0,0,0,1.51-.42,2,2,0,0,0,1.16-1.83,4.62,4.62,0,0,0-.29-1.22,6,6,0,0,1-.25-1.26,4.53,4.53,0,0,1,.52-2.45A4.61,4.61,0,0,1,24,14.16a4.66,4.66,0,0,1,2.31-.76,4.47,4.47,0,0,1,3.12,1A4.28,4.28,0,0,1,31,17a4.48,4.48,0,0,1-2.92,5.15c-.61.13-1.22.29-1.82.48A1.93,1.93,0,0,0,25.17,24.23Z"/>
      <path class="cls-1" d="M30.57,31.53a4.54,4.54,0,1,1,5.66-6.35,4.67,4.67,0,0,1,.46,2.8,4.55,4.55,0,0,1-5.2,3.79A5,5,0,0,1,30.57,31.53Z"/>
    </g>
  </g>
</svg>
