<svg id="Layer_1" data-name="Layer 1" xmlns="http://www.w3.org/2000/svg" width="243.33" height="14.86" viewBox="0 0 243.33 14.86">
  <defs>
    <style>
      .cls-1 {
        fill: #008e7f;
      }
    </style>
  </defs>
  <title>scribble-left</title>
  <path class="cls-1" d="M231.05,8.94a19,19,0,0,1-2.79-3.51c-2.26-3.37-4.61-6.84-11.63-3a22.31,22.31,0,0,0-5.51,4.9c-3,3.32-5.59,6.18-10.27,5-2.56-.65-4.3-2.23-6.14-3.89C192,6,189.24,3.45,184,4.05c-3,.34-5.71,2.4-8.35,4.4-4.4,3.33-8.2,6.2-12.7,1.79A7.19,7.19,0,0,1,161.2,6.9a8.17,8.17,0,0,0-3.06-4.75c-7.29-5.21-12.63.16-16.92,4.47-.87.86-1.7,1.71-2.53,2.44-5.14,4.53-9.13,4.55-15.79.09-5.75-3.85-11.69-7.83-19.59-3.67a28.48,28.48,0,0,0-4.45,3.14c-3.72,3-6.93,5.57-11.65,2.3a13.81,13.81,0,0,1-4.13-5C81.3,2.9,79.46-.27,72.16.47c-2.39.23-5,2.63-7.75,5.16s-5.75,5.2-7.78,5.06a2.42,2.42,0,0,1-1.69-1.2,13.4,13.4,0,0,1-1.1-2.06c-.27-.58-.55-1.15-.86-1.7C47.44-3.87,38.36.94,31.72,4.44c-1.06.56-2.08,1.1-3,1.56l-.54.26C26.65,7,25.68,7.47,24,7a7,7,0,0,1-4.35-2.95c-1.54-2-3.05-3.43-8.29-3.28A18.47,18.47,0,0,0,0,5.36v3C3.57,5,7.4,3.16,11.44,3.06c4.46-.14,5.3.93,6.41,2.38a9.16,9.16,0,0,0,5.56,3.77c2.49.67,4.13-.13,5.72-.9l.52-.25c1-.48,2-1,3.14-1.61C40.86,2.19,46.89-.28,51,6.86c.28.5.52,1,.77,1.53a15,15,0,0,0,1.29,2.39A4.62,4.62,0,0,0,56.37,13c3.05.37,6.37-2.7,9.57-5.64,2.37-2.17,4.81-4.42,6.44-4.58,5.85-.59,7,1.4,8.73,4.38a16.15,16.15,0,0,0,4.8,5.68c6.12,4.26,10.51.72,14.38-2.4a26.52,26.52,0,0,1,4.07-2.9C111.06,4,116,7.24,121.64,11c6.4,4.29,11.73,5.73,18.55-.27.86-.76,1.74-1.64,2.64-2.55,5-5,8.67-8,14-4.23A6,6,0,0,1,159,7.59a9.37,9.37,0,0,0,2.35,4.28c5.9,5.77,11.31,1.68,15.66-1.6,2.51-1.9,4.88-3.69,7.24-4,4.18-.46,6.38,1.5,8.91,3.78,2,1.78,4,3.62,7.09,4.41,6,1.57,9.48-2.28,12.53-5.66a20.32,20.32,0,0,1,4.91-4.42c5.2-2.85,6.43-1,8.65,2.28a21.2,21.2,0,0,0,3.14,3.91c5.29,4.89,8.64,1.69,11.6-1.15.7-.67,1.43-1.36,2.22-2l-3.79.35C236.46,10.76,234.77,12.38,231.05,8.94Z"/>
</svg>
