<svg id="Layer_1" data-name="Layer 1" xmlns="http://www.w3.org/2000/svg" width="210" height="14.86" viewBox="0 0 210 14.86">
  <defs>
    <style>
      .cls-1 {
        fill: #008e7f;
      }
    </style>
  </defs>
  <title>squiggle</title>
  <path class="cls-1" d="M210,.76a11,11,0,0,0-5.54,1.66A22.31,22.31,0,0,0,199,7.32c-3,3.32-5.59,6.18-10.27,5-2.56-.65-4.3-2.23-6.14-3.89-2.69-2.44-5.47-5-10.69-4.36-3,.34-5.71,2.4-8.35,4.4-4.4,3.33-8.2,6.2-12.7,1.79A7.19,7.19,0,0,1,149,6.9,8.17,8.17,0,0,0,146,2.15c-7.29-5.21-12.63.16-16.92,4.47-.87.86-1.71,1.71-2.54,2.44-5.14,4.53-9.12,4.55-15.78.09C105,5.3,99,1.32,91.13,5.48a28.88,28.88,0,0,0-4.44,3.14c-3.72,3-6.93,5.57-11.65,2.3a13.81,13.81,0,0,1-4.13-5C69.13,2.9,67.29-.27,60,.47,57.6.7,55,3.1,52.23,5.63s-5.74,5.2-7.78,5.06a2.4,2.4,0,0,1-1.68-1.2,14.35,14.35,0,0,1-1.11-2.06c-.27-.58-.54-1.15-.85-1.7C35.27-3.87,26.19.94,19.55,4.44,18.49,5,17.46,5.54,16.5,6L16,6.26C14.48,7,13.5,7.47,11.84,7A7,7,0,0,1,7.49,4.06C6,2.16,4.6.79,0,.78V3.05c3.82,0,4.63,1,5.68,2.39a9.17,9.17,0,0,0,5.55,3.77A7.41,7.41,0,0,0,17,8.31l.52-.25c1-.48,2-1,3.13-1.61,8.08-4.26,14.11-6.73,18.23.41.28.5.52,1,.77,1.53a15.81,15.81,0,0,0,1.28,2.39A4.64,4.64,0,0,0,44.2,13c3,.37,6.37-2.7,9.57-5.64,2.37-2.17,4.81-4.42,6.44-4.58,5.85-.59,7,1.4,8.73,4.38a16.15,16.15,0,0,0,4.8,5.68c6.12,4.26,10.51.72,14.38-2.4a26.52,26.52,0,0,1,4.07-2.9c6.7-3.53,11.6-.25,17.27,3.55,6.41,4.29,11.74,5.73,18.56-.27.86-.76,1.74-1.64,2.64-2.55,5-5,8.67-8,14-4.23a6,6,0,0,1,2.21,3.6,9.37,9.37,0,0,0,2.35,4.28c5.9,5.77,11.31,1.68,15.66-1.6,2.51-1.9,4.88-3.69,7.24-4,4.18-.46,6.38,1.5,8.91,3.78,2,1.78,4,3.62,7.09,4.41,6,1.57,9.48-2.28,12.53-5.66a20.32,20.32,0,0,1,4.91-4.42A8.51,8.51,0,0,1,210,3Z"/>
</svg>
