<svg id="Layer_1" data-name="Layer 1" xmlns="http://www.w3.org/2000/svg" viewBox="0 0 117.66 570.68">
  <defs>
    <style>
      .cls-1 {
        fill: #008e7f;
      }
    </style>
  </defs>
  <title>teal-dot-stripe</title>
  <g>
    <g>
      <path class="cls-1" d="M13.07,0h4.36V0a2,2,0,0,1-.7,1.6,2.25,2.25,0,0,1-1.48.53A2.09,2.09,0,0,1,13.07,0Z"/>
      <path class="cls-1" d="M4.06,3.58A2.09,2.09,0,0,1,6.19,1.4h.42c2.12,0,2.61,2.49,1.61,3.66a2.09,2.09,0,0,1-1.61.7H6.19a2,2,0,0,1-1.6-.7A2.22,2.22,0,0,1,4.06,3.58Z"/>
      <path class="cls-1" d="M27.67.46A2.12,2.12,0,0,1,27.29,0H31a2.17,2.17,0,0,1-1.87,1A2.27,2.27,0,0,1,27.67.46Z"/>
      <path class="cls-1" d="M20.4,8h.43c2.11,0,2.6,2.49,1.6,3.66a2,2,0,0,1-1.6.7H20.4a2,2,0,0,1-1.6-.7,2.25,2.25,0,0,1-.53-1.48A2.09,2.09,0,0,1,20.4,8Z"/>
      <path class="cls-1" d="M0,13.45a2.09,2.09,0,0,1,2.13-2.19h.43c2.79,0,2.79,4.37,0,4.37H2.13a2,2,0,0,1-1.6-.71A2.25,2.25,0,0,1,0,13.45Z"/>
      <path class="cls-1" d="M11.11,20.05a2.09,2.09,0,0,1-.36-1.17,2.32,2.32,0,0,1,.25-1l.44-.86a1.94,1.94,0,0,1,1.64-1.13A2.38,2.38,0,0,1,15.14,17a2.13,2.13,0,0,1,.1,2.18l-.43.86a2,2,0,0,1-1.65,1.12A2.33,2.33,0,0,1,11.11,20.05Z"/>
      <path class="cls-1" d="M.86,27.17A2.09,2.09,0,0,1,3,25h.42C5.53,25,6,27.49,5,28.65a2.06,2.06,0,0,1-1.61.71H3a2,2,0,0,1-1.6-.71A2.2,2.2,0,0,1,.86,27.17Z"/>
      <path class="cls-1" d="M3.79,36.66A2.09,2.09,0,0,1,6,34.54a2.26,2.26,0,0,1,1.48.52,2.23,2.23,0,0,1,0,3.2A2.25,2.25,0,0,1,6,38.79,2.09,2.09,0,0,1,3.79,36.66Z"/>
      <path class="cls-1" d="M2.1,48.76a2.09,2.09,0,0,1,2.18-2.13,2.27,2.27,0,0,1,1.48.53,2.22,2.22,0,0,1,0,3.2,2.27,2.27,0,0,1-1.48.53A2.08,2.08,0,0,1,2.1,48.76Z"/>
      <path class="cls-1" d="M11.2,43.65a2.09,2.09,0,0,1,2.19-2.13,2.29,2.29,0,0,1,1.48.53,2.15,2.15,0,0,1-1.49,3.73,2.29,2.29,0,0,1-1.48-.53A2.08,2.08,0,0,1,11.2,43.65Z"/>
      <path class="cls-1" d="M.43,62.35A2.22,2.22,0,0,1,1,60.87a2,2,0,0,1,1.6-.7H3c2.11,0,2.59,2.49,1.6,3.66a2.08,2.08,0,0,1-1.6.7H2.56A2.08,2.08,0,0,1,.43,62.35Z"/>
      <path class="cls-1" d="M12.13,58.68l.4-.45a1.94,1.94,0,0,1,1.87-.68,2.32,2.32,0,0,1,1.71,1.56,2.13,2.13,0,0,1-.44,2.15l-.4.45a1.94,1.94,0,0,1-1.87.68,2.34,2.34,0,0,1-1.71-1.56,2.15,2.15,0,0,1-.12-.7A2.18,2.18,0,0,1,12.13,58.68Z"/>
      <path class="cls-1" d="M1.23,78.65a2.09,2.09,0,0,1,2.18-2.13,2.25,2.25,0,0,1,1.48.53,2.22,2.22,0,0,1,0,3.2,2.25,2.25,0,0,1-1.48.53A2.09,2.09,0,0,1,1.23,78.65Z"/>
      <path class="cls-1" d="M8,70.65v-.43a2.09,2.09,0,0,1,2.18-2.13,2.3,2.3,0,0,1,1.48.52,2.07,2.07,0,0,1,.7,1.61v.43a2.08,2.08,0,0,1-2.18,2.12,2.26,2.26,0,0,1-1.48-.52A2.08,2.08,0,0,1,8,70.65Z"/>
      <path class="cls-1" d="M17.14,73.52a2.25,2.25,0,0,1,1.48.53,2.05,2.05,0,0,1,.71,1.6,2.09,2.09,0,0,1-2.19,2.13,2.27,2.27,0,0,1-1.48-.53,2.14,2.14,0,0,1,1.48-3.73Z"/>
      <path class="cls-1" d="M.43,94.09A2.24,2.24,0,0,1,1,92.61a2,2,0,0,1,1.6-.7h.85c2.12,0,2.61,2.5,1.61,3.67a2.09,2.09,0,0,1-1.61.7H2.56A2.09,2.09,0,0,1,.43,94.09Z"/>
      <path class="cls-1" d="M9,88a2.09,2.09,0,0,1,2.18-2.13,2.25,2.25,0,0,1,1.48.53,2.22,2.22,0,0,1,0,3.2,2.25,2.25,0,0,1-1.48.53A2.09,2.09,0,0,1,9,88Z"/>
      <path class="cls-1" d="M22.08,88.29a2.18,2.18,0,1,1,2.18,2.13,2.27,2.27,0,0,1-1.48-.53A2.08,2.08,0,0,1,22.08,88.29Z"/>
      <path class="cls-1" d="M2.86,105.68a2.25,2.25,0,0,1,.53-1.48,2.08,2.08,0,0,1,1.6-.7h.86c2.11,0,2.6,2.49,1.6,3.66a2.08,2.08,0,0,1-1.6.7H5A2.09,2.09,0,0,1,2.86,105.68Z"/>
      <path class="cls-1" d="M12,96.93a2.09,2.09,0,0,1,2.18-2.13,2.25,2.25,0,0,1,1.48.53,2.22,2.22,0,0,1,0,3.2,2.25,2.25,0,0,1-1.48.53A2.09,2.09,0,0,1,12,96.93Z"/>
      <path class="cls-1" d="M7.72,114.26a2.25,2.25,0,0,1,.53-1.48,2,2,0,0,1,1.6-.7h.43c2.79,0,2.79,4.36,0,4.36H9.85A2.09,2.09,0,0,1,7.72,114.26Z"/>
      <path class="cls-1" d="M1.29,120.26a2.09,2.09,0,0,1,2.12-2.18h.43c2.79,0,2.8,4.37,0,4.37H3.41a2.05,2.05,0,0,1-1.6-.71A2.24,2.24,0,0,1,1.29,120.26Z"/>
      <path class="cls-1" d="M2,139.57a2.08,2.08,0,0,1,2.18-2.13,2.13,2.13,0,1,1,0,4.26,2.25,2.25,0,0,1-1.48-.53A2,2,0,0,1,2,139.57Z"/>
      <path class="cls-1" d="M5.09,128a2.09,2.09,0,0,1,2.19-2.12,2.26,2.26,0,0,1,1.48.52,2.23,2.23,0,0,1,0,3.21,2.24,2.24,0,0,1-1.47.52A2.09,2.09,0,0,1,5.09,128Z"/>
      <path class="cls-1" d="M19.21,120.5a2.09,2.09,0,0,1,2.19-2.13,2.27,2.27,0,0,1,1.48.53,2.23,2.23,0,0,1,0,3.2,2.29,2.29,0,0,1-1.48.53A2.09,2.09,0,0,1,19.21,120.5Z"/>
      <path class="cls-1" d="M11.05,140.18a2.09,2.09,0,0,1,2.19-2.13,2.29,2.29,0,0,1,1.48.53,2.23,2.23,0,0,1,0,3.2,2.25,2.25,0,0,1-1.48.53A2.09,2.09,0,0,1,11.05,140.18Z"/>
      <path class="cls-1" d="M14.94,129.68a2.09,2.09,0,0,1,2.19-2.12,2.13,2.13,0,1,1,0,4.25,2.24,2.24,0,0,1-1.48-.53A2,2,0,0,1,14.94,129.68Z"/>
      <path class="cls-1" d="M21,143.39a2.09,2.09,0,0,1,2.18-2.13,2.25,2.25,0,0,1,1.48.53,1.72,1.72,0,0,1,.54.84,2.25,2.25,0,0,0-1.59-.64,2.09,2.09,0,0,0-2.13,1.62H21A1.74,1.74,0,0,1,21,143.39Z"/>
      <path class="cls-1" d="M36.05,139.57V140a2,2,0,0,1-.7,1.6,2.24,2.24,0,0,1-1.48.52A2.09,2.09,0,0,1,31.69,140v-.43a2.18,2.18,0,0,1,4.36,0Z"/>
      <path class="cls-1" d="M28.31,130.56a2.09,2.09,0,0,1,2.13-2.18h.43c2.79,0,2.79,4.36,0,4.36h-.43a2.08,2.08,0,0,1-1.6-.7A2.27,2.27,0,0,1,28.31,130.56Z"/>
      <path class="cls-1" d="M30.4,114.26a2.09,2.09,0,0,1,2.19-2.13,2.29,2.29,0,0,1,1.48.53,2.23,2.23,0,0,1,0,3.2,2.25,2.25,0,0,1-1.48.53A2.1,2.1,0,0,1,30.4,114.26Z"/>
      <path class="cls-1" d="M20.54,109.11A2.08,2.08,0,0,1,22.72,107a2.27,2.27,0,0,1,1.48.53,2.14,2.14,0,0,1-1.48,3.73,2.25,2.25,0,0,1-1.48-.53A2,2,0,0,1,20.54,109.11Z"/>
      <path class="cls-1" d="M23.17,99.67a2.09,2.09,0,0,1,2.12-2.18h.43c2.12,0,2.6,2.5,1.6,3.66a2,2,0,0,1-1.6.71h-.43a2.05,2.05,0,0,1-1.6-.71A2.24,2.24,0,0,1,23.17,99.67Z"/>
      <path class="cls-1" d="M35.16,90.22a2.25,2.25,0,0,1-1.48-.53A2.14,2.14,0,0,1,35.16,86a2.27,2.27,0,0,1,1.48.53,2.14,2.14,0,0,1-1.48,3.73Z"/>
      <path class="cls-1" d="M28.06,80.25a2.27,2.27,0,0,1-1.48.53,2.13,2.13,0,1,1,0-4.26,2.27,2.27,0,0,1,1.48.53A2.22,2.22,0,0,1,28.06,80.25Z"/>
      <path class="cls-1" d="M21.39,67.5a2.09,2.09,0,0,1,2.19-2.13,2.27,2.27,0,0,1,1.48.53,2,2,0,0,1,.7,1.6v.43a2.1,2.1,0,0,1-2.18,2.13,2.25,2.25,0,0,1-1.48-.53,2.05,2.05,0,0,1-.71-1.6Z"/>
      <path class="cls-1" d="M35.2,59.35v.85a2.06,2.06,0,0,1-.71,1.61,2.24,2.24,0,0,1-1.48.52,2.09,2.09,0,0,1-2.18-2.13v-.85a2.19,2.19,0,0,1,4.37,0Z"/>
      <path class="cls-1" d="M38.56,70.82v-.1a2,2,0,0,1,1.12-1.65l.86-.44a2.22,2.22,0,0,1,3,1,2,2,0,0,1-.88,2.76l-.85.44a2.15,2.15,0,0,1-2.19-.1A2.36,2.36,0,0,1,38.56,70.82Z"/>
      <path class="cls-1" d="M19.68,49.48a2.18,2.18,0,1,1,2.18,2.13,2.27,2.27,0,0,1-1.48-.53A2.06,2.06,0,0,1,19.68,49.48Z"/>
      <path class="cls-1" d="M17.14,31.05a2.13,2.13,0,1,1,0,4.26,2.13,2.13,0,1,1,0-4.26Z"/>
      <path class="cls-1" d="M27,38.33a2.19,2.19,0,1,1,2.18,2.13,2.27,2.27,0,0,1-1.48-.53A2.08,2.08,0,0,1,27,38.33Z"/>
      <path class="cls-1" d="M93.78,79.34a2.24,2.24,0,0,1-1.48.52,2.13,2.13,0,1,1,0-4.25,2.25,2.25,0,0,1,1.48.53A2.22,2.22,0,0,1,93.78,79.34Z"/>
      <path class="cls-1" d="M22.08,22.13A2.09,2.09,0,0,1,24.27,20a2.27,2.27,0,0,1,1.48.53,2.23,2.23,0,0,1,0,3.2,2.29,2.29,0,0,1-1.48.53A2.09,2.09,0,0,1,22.08,22.13Z"/>
      <path class="cls-1" d="M33.89,13.52a2.13,2.13,0,1,1,0,4.26,2.27,2.27,0,0,1-1.48-.53,2.14,2.14,0,0,1,1.48-3.73Z"/>
      <path class="cls-1" d="M47.24,21.68a2.24,2.24,0,0,1,1.48.53,2,2,0,0,1,.7,1.6,2.09,2.09,0,0,1-2.19,2.12,2.28,2.28,0,0,1-1.48-.52,2.15,2.15,0,0,1,1.49-3.73Z"/>
      <path class="cls-1" d="M38.59,5.31a2.08,2.08,0,0,1,2.18,2.13,2.08,2.08,0,0,1-2.18,2.13A2.27,2.27,0,0,1,37.11,9a2.08,2.08,0,0,1-.7-1.6A2.09,2.09,0,0,1,38.59,5.31Z"/>
      <path class="cls-1" d="M57.78,6.78a2.08,2.08,0,0,1-1.6.7h-.43a2.09,2.09,0,0,1-2.13-2.19,2.29,2.29,0,0,1,.53-1.48,2.08,2.08,0,0,1,1.6-.7h.43C58.29,3.11,58.79,5.61,57.78,6.78Z"/>
      <path class="cls-1" d="M80.3,91.43a2.27,2.27,0,0,1-1.48-.53,2.22,2.22,0,1,1,1.48.53Z"/>
      <path class="cls-1" d="M34.75,28.46A2.26,2.26,0,0,1,35.27,27a2.09,2.09,0,0,1,1.61-.7h.42c2.79,0,2.8,4.36,0,4.36h-.42A2.09,2.09,0,0,1,34.75,28.46Z"/>
      <path class="cls-1" d="M36.62,50.6A2.08,2.08,0,0,1,36,49.12a2.22,2.22,0,0,1,.68-1.57,2.08,2.08,0,0,1,3,0l.43.43A2.18,2.18,0,0,1,37.05,51Z"/>
      <path class="cls-1" d="M48.46,45.21a2.22,2.22,0,0,1,1.48.53,2,2,0,0,1,.7,1.6,2.09,2.09,0,0,1-2.18,2.12A2.24,2.24,0,0,1,47,48.94a2,2,0,0,1-.7-1.6A2.08,2.08,0,0,1,48.46,45.21Z"/>
      <path class="cls-1" d="M44.79,39.5a2.27,2.27,0,0,1-1.48.53,2.13,2.13,0,1,1,0-4.26,2.27,2.27,0,0,1,1.48.53A2.22,2.22,0,0,1,44.79,39.5Z"/>
      <path class="cls-1" d="M61.52,23.63a2.26,2.26,0,0,1-1.48.52,2.13,2.13,0,1,1,0-4.25,2.32,2.32,0,0,1,1.48.52A2.23,2.23,0,0,1,61.52,23.63Z"/>
      <path class="cls-1" d="M53.64,14.73a2.09,2.09,0,0,1-2.18,2.13A2.22,2.22,0,0,1,50,16.33a2,2,0,0,1-.7-1.6,2.18,2.18,0,0,1,4.36,0Z"/>
      <path class="cls-1" d="M71.66,5.3v.42a2,2,0,0,1-.7,1.6,2.22,2.22,0,0,1-1.48.53A2.08,2.08,0,0,1,67.3,5.72V5.3a2.18,2.18,0,0,1,4.36,0Z"/>
      <path class="cls-1" d="M78.06,16.43a2.13,2.13,0,1,1,0-4.25,2.26,2.26,0,0,1,1.48.52,2.13,2.13,0,0,1-1.48,3.73Z"/>
      <path class="cls-1" d="M77.2,1A2.27,2.27,0,0,1,75.72.46,1.67,1.67,0,0,1,75.34,0h3.72A2.17,2.17,0,0,1,77.2,1Z"/>
      <path class="cls-1" d="M92.68,6.15A2.09,2.09,0,0,1,90.5,8.28,2.24,2.24,0,0,1,89,7.76a2.05,2.05,0,0,1-.7-1.61,2.18,2.18,0,0,1,4.36,0Z"/>
      <path class="cls-1" d="M100.78,0h4.29a2,2,0,0,1-.65,1.32,2.27,2.27,0,0,1-1.48.53A2.1,2.1,0,0,1,100.78,0Z"/>
      <path class="cls-1" d="M103.48,11.54a2,2,0,0,1,1.6-.7h.43c2.12,0,2.61,2.49,1.6,3.66a2,2,0,0,1-1.6.7h-.43A2.09,2.09,0,0,1,103,13,2.24,2.24,0,0,1,103.48,11.54Z"/>
      <path class="cls-1" d="M98.53,26.08a2,2,0,0,1-1.6.7H96.5a2.09,2.09,0,0,1-2.12-2.18,2.26,2.26,0,0,1,.52-1.48,2.08,2.08,0,0,1,1.6-.7h.43C99.05,22.42,99.54,24.91,98.53,26.08Z"/>
      <path class="cls-1" d="M91.82,19a2.09,2.09,0,0,1-2.18,2.13,2.27,2.27,0,0,1-1.48-.53,2,2,0,0,1-.7-1.6,2.09,2.09,0,0,1,2.18-2.12,2.26,2.26,0,0,1,1.48.52A2.08,2.08,0,0,1,91.82,19Z"/>
      <path class="cls-1" d="M78.92,38.31a2.25,2.25,0,0,1-1.48-.53,2,2,0,0,1-.71-1.6,2.19,2.19,0,1,1,2.19,2.13Z"/>
      <path class="cls-1" d="M73.6,26.49a2.19,2.19,0,0,1-3.09,3.09l-.43-.43a2.09,2.09,0,0,1-.64-1.48,2.22,2.22,0,0,1,.68-1.57,2.09,2.09,0,0,1,3,0Z"/>
      <path class="cls-1" d="M66,17.72a2.13,2.13,0,1,1,0-4.26,2.27,2.27,0,0,1,1.48.53,2.23,2.23,0,0,1,0,3.2A2.25,2.25,0,0,1,66,17.72Z"/>
      <path class="cls-1" d="M70.34,51.61a2.25,2.25,0,0,1-1.48-.53,2,2,0,0,1-.71-1.6v-.86a2.09,2.09,0,0,1,2.19-2.12,2.26,2.26,0,0,1,1.48.52,2.08,2.08,0,0,1,.7,1.6v.86A2.09,2.09,0,0,1,70.34,51.61Z"/>
      <path class="cls-1" d="M63.47,38.34a2.25,2.25,0,0,1,1.48.53,2.22,2.22,0,0,1,0,3.2,2.25,2.25,0,0,1-1.48.53,2.13,2.13,0,1,1,0-4.26Z"/>
      <path class="cls-1" d="M55.75,40a2.13,2.13,0,1,1,0-4.26,2.27,2.27,0,0,1,1.48.53,2.22,2.22,0,0,1,0,3.2A2.27,2.27,0,0,1,55.75,40Z"/>
      <path class="cls-1" d="M54.46,63.68a2.09,2.09,0,0,1-2.12-2.19A2.26,2.26,0,0,1,52.86,60a2.08,2.08,0,0,1,1.6-.7h.43c2.12,0,2.61,2.5,1.6,3.66a2,2,0,0,1-1.6.71Z"/>
      <path class="cls-1" d="M45,59.78a2.09,2.09,0,0,1,2.18-2.13,2.27,2.27,0,0,1,1.48.53,2,2,0,0,1,.7,1.6,2.09,2.09,0,0,1-2.18,2.12,2.26,2.26,0,0,1-1.48-.52A2.08,2.08,0,0,1,45,59.78Z"/>
      <path class="cls-1" d="M52.32,74a2.27,2.27,0,0,1,1.48.53,2.22,2.22,0,0,1,0,3.2,2.27,2.27,0,0,1-1.48.53,2.13,2.13,0,1,1,0-4.26Z"/>
      <path class="cls-1" d="M48,83.39a2.13,2.13,0,1,1,0,4.25,2.24,2.24,0,0,1-1.48-.52,2.05,2.05,0,0,1-.71-1.6A2.09,2.09,0,0,1,48,83.39Z"/>
      <path class="cls-1" d="M45.9,98.38a2.29,2.29,0,0,1,.53-1.48,2.08,2.08,0,0,1,1.6-.7h.86c2.11,0,2.6,2.5,1.6,3.67a2.08,2.08,0,0,1-1.6.7H48A2.09,2.09,0,0,1,45.9,98.38Z"/>
      <path class="cls-1" d="M36.62,102.93a2.05,2.05,0,0,1-.64-1.47,2.26,2.26,0,0,1,.68-1.58,2.09,2.09,0,0,1,3,0l.43.43a2,2,0,0,1,.57,2,2.36,2.36,0,0,1-1.64,1.64,2,2,0,0,1-2-.57Z"/>
      <path class="cls-1" d="M36.89,123.27A2.09,2.09,0,0,1,39,121.08h.43c2.11,0,2.6,2.5,1.6,3.67a2.08,2.08,0,0,1-1.6.7H39a2.08,2.08,0,0,1-1.6-.7A2.29,2.29,0,0,1,36.89,123.27Z"/>
      <path class="cls-1" d="M41.13,135.28a2.09,2.09,0,0,1,2.18-2.13,2.27,2.27,0,0,1,1.48.53,2.22,2.22,0,0,1,0,3.2,2.27,2.27,0,0,1-1.48.53A2.1,2.1,0,0,1,41.13,135.28Z"/>
      <path class="cls-1" d="M52.08,137.54a2.22,2.22,0,0,1,0,3.2,2.25,2.25,0,0,1-1.48.53,2.13,2.13,0,1,1,0-4.26A2.25,2.25,0,0,1,52.08,137.54Z"/>
      <path class="cls-1" d="M63.44,131.42a2.08,2.08,0,0,1,2.18-2.13,2.27,2.27,0,0,1,1.48.53,2.23,2.23,0,0,1,0,3.2,2.28,2.28,0,0,1-1.48.52A2.08,2.08,0,0,1,63.44,131.42Z"/>
      <path class="cls-1" d="M112.73,139a2.09,2.09,0,0,1,2.13-2.18h.43c2.11,0,2.6,2.5,1.6,3.67a2.08,2.08,0,0,1-1.6.7h-.43a2.05,2.05,0,0,1-1.6-.71A2.25,2.25,0,0,1,112.73,139Z"/>
      <path class="cls-1" d="M110.19,132.28a2.19,2.19,0,1,1,2.19,2.12,2.24,2.24,0,0,1-1.48-.52A2.05,2.05,0,0,1,110.19,132.28Z"/>
      <path class="cls-1" d="M100.79,134.89a2.05,2.05,0,0,1-1.6-.71,2.24,2.24,0,0,1-.52-1.48,2.09,2.09,0,0,1,2.12-2.18h.43c2.79,0,2.8,4.37,0,4.37Z"/>
      <path class="cls-1" d="M88.35,135.74h-.43a2.08,2.08,0,0,1-2.12-2.18,2.26,2.26,0,0,1,.52-1.48,2.08,2.08,0,0,1,1.6-.7h.43c2.12,0,2.61,2.49,1.6,3.66A2,2,0,0,1,88.35,135.74Z"/>
      <path class="cls-1" d="M83.2,119.8h.43c2.12,0,2.61,2.49,1.61,3.66a2.09,2.09,0,0,1-1.61.7H83.2a2.18,2.18,0,0,1,0-4.36Z"/>
      <path class="cls-1" d="M99.12,123.7a2.09,2.09,0,0,1-2.19,2.12,2.26,2.26,0,0,1-1.48-.52,2.17,2.17,0,1,1,3.67-1.6Z"/>
      <path class="cls-1" d="M99.51,110.41a2.13,2.13,0,1,1,0,4.26,2.25,2.25,0,0,1-1.48-.53,2,2,0,0,1-.71-1.6A2.1,2.1,0,0,1,99.51,110.41Z"/>
      <path class="cls-1" d="M111.52,117.22H112c2.11,0,2.6,2.5,1.6,3.67a2.08,2.08,0,0,1-1.6.7h-.43a2.19,2.19,0,0,1,0-4.37Z"/>
      <path class="cls-1" d="M115.85,63.21a2.09,2.09,0,0,1-2.19,2.13,2.27,2.27,0,0,1-1.48-.53,2.17,2.17,0,1,1,3.67-1.6Z"/>
      <path class="cls-1" d="M110.78,80.6a2,2,0,0,1,1.6-.7h.42c2.79,0,2.8,4.37,0,4.37h-.42a2.09,2.09,0,0,1-2.13-2.19A2.24,2.24,0,0,1,110.78,80.6Z"/>
      <path class="cls-1" d="M114.71,107.28a2.25,2.25,0,0,1-1.48.53,2.13,2.13,0,1,1,0-4.26,2.25,2.25,0,0,1,1.48.53A2.22,2.22,0,0,1,114.71,107.28Z"/>
      <path class="cls-1" d="M102.12,100.53a2.09,2.09,0,0,1-2.19,2.13,2.29,2.29,0,0,1-1.48-.53,2.15,2.15,0,0,1,1.49-3.73,2.27,2.27,0,0,1,1.48.53A2.08,2.08,0,0,1,102.12,100.53Z"/>
      <path class="cls-1" d="M106.84,88.09a2.09,2.09,0,0,1-2.19,2.13,2.27,2.27,0,0,1-1.48-.53A2.14,2.14,0,0,1,104.65,86a2.25,2.25,0,0,1,1.48.53A2.05,2.05,0,0,1,106.84,88.09Z"/>
      <path class="cls-1" d="M91.24,88.28a2.05,2.05,0,0,1-1.6.71h-.43a2.09,2.09,0,0,1-2.13-2.19,2.27,2.27,0,0,1,.53-1.48,2.08,2.08,0,0,1,1.6-.7h.43C91.76,84.62,92.25,87.12,91.24,88.28Z"/>
      <path class="cls-1" d="M90.07,105.72h-.43A2.05,2.05,0,0,1,88,105a2.25,2.25,0,0,1-.53-1.48,2.09,2.09,0,0,1,2.13-2.18h.43C92.86,101.35,92.86,105.72,90.07,105.72Z"/>
      <path class="cls-1" d="M79.77,109.52a2.26,2.26,0,0,1-1.48-.52,2.24,2.24,0,1,1,1.48.52Z"/>
      <path class="cls-1" d="M69.07,120.26a2.09,2.09,0,0,1,2.12-2.18h.43c2.79,0,2.8,4.37,0,4.37h-.43a2.05,2.05,0,0,1-1.6-.71A2.24,2.24,0,0,1,69.07,120.26Z"/>
      <path class="cls-1" d="M63.9,114.72a2.08,2.08,0,0,1-1.6-.7,2.25,2.25,0,0,1-.53-1.48,2.09,2.09,0,0,1,2.13-2.18h.43c2.79,0,2.8,4.36,0,4.36Z"/>
      <path class="cls-1" d="M56.61,122.43a2.13,2.13,0,1,1-2.19,2.12A2.09,2.09,0,0,1,56.61,122.43Z"/>
      <path class="cls-1" d="M47.62,116.4a2.26,2.26,0,0,1,.52-1.48,2.08,2.08,0,0,1,1.6-.7h.86c2.12,0,2.61,2.49,1.6,3.66a2,2,0,0,1-1.6.7h-.86A2.08,2.08,0,0,1,47.62,116.4Z"/>
      <path class="cls-1" d="M42.45,110.79h.43c2.12,0,2.61,2.49,1.6,3.66a2,2,0,0,1-1.6.7h-.43a2.18,2.18,0,0,1,0-4.36Z"/>
      <path class="cls-1" d="M60.47,100.49c2.79,0,2.8,4.37,0,4.37H60a2.05,2.05,0,0,1-1.6-.71,2.25,2.25,0,0,1-.53-1.48A2.09,2.09,0,0,1,60,100.49Z"/>
      <path class="cls-1" d="M60.49,89a2.09,2.09,0,0,1,2.12-2.19H63c2.79,0,2.8,4.37,0,4.37h-.43a2.08,2.08,0,0,1-1.6-.7A2.28,2.28,0,0,1,60.49,89Z"/>
      <path class="cls-1" d="M73.77,94.54A2.09,2.09,0,0,1,76,96.67v.43a2.08,2.08,0,0,1-.7,1.6,2.29,2.29,0,0,1-1.48.53,2.1,2.1,0,0,1-2.19-2.13v-.43A2.09,2.09,0,0,1,73.77,94.54Z"/>
      <path class="cls-1" d="M72,80.8a2.08,2.08,0,0,1,2.18-2.13,2.27,2.27,0,0,1,1.48.53,2.23,2.23,0,0,1,0,3.2,2.28,2.28,0,0,1-1.48.52A2.08,2.08,0,0,1,72,80.8Z"/>
      <path class="cls-1" d="M68.66,75.22a2.09,2.09,0,0,1-2.19,2.13A2.27,2.27,0,0,1,65,76.82a2.17,2.17,0,1,1,3.67-1.6Z"/>
      <path class="cls-1" d="M77.63,64.51a2.13,2.13,0,1,1,0,4.26,2.25,2.25,0,0,1-1.48-.53,2,2,0,0,1-.7-1.6A2.08,2.08,0,0,1,77.63,64.51Z"/>
      <path class="cls-1" d="M65.21,61.49a2.09,2.09,0,0,1,2.12-2.18h.86c2.79,0,2.8,4.37,0,4.37h-.86a2.05,2.05,0,0,1-1.6-.71A2.24,2.24,0,0,1,65.21,61.49Z"/>
      <path class="cls-1" d="M81.88,52.48a2.09,2.09,0,0,1,2.19-2.12,2.12,2.12,0,0,1,1.47,3.72,2.2,2.2,0,0,1-1.48.53A2.09,2.09,0,0,1,81.88,52.48Z"/>
      <path class="cls-1" d="M85.78,73.54h-.43a2.09,2.09,0,0,1-2.13-2.18,2.27,2.27,0,0,1,.53-1.48,2.08,2.08,0,0,1,1.6-.7h.43c2.11,0,2.61,2.49,1.6,3.66A2.08,2.08,0,0,1,85.78,73.54Z"/>
      <path class="cls-1" d="M103.62,72a2.19,2.19,0,0,1-3.09,3.09l-.42-.43a2.08,2.08,0,0,1-.64-1.48V73a2.24,2.24,0,0,1,.68-1.42,2.09,2.09,0,0,1,3,0Z"/>
      <path class="cls-1" d="M97.12,62.66a2.25,2.25,0,0,1-1.48.53,2.13,2.13,0,1,1,0-4.25,2.26,2.26,0,0,1,1.48.52A2.23,2.23,0,0,1,97.12,62.66Z"/>
      <path class="cls-1" d="M100.17,53.66a2.23,2.23,0,1,1,1.48.52A2.26,2.26,0,0,1,100.17,53.66Z"/>
      <path class="cls-1" d="M94.67,43.67a2.06,2.06,0,0,1-1.6.7h-.86a2.08,2.08,0,0,1-1.6-.7,2.28,2.28,0,0,1-.52-1.48A2.08,2.08,0,0,1,92.21,40h.86C95.19,40,95.67,42.5,94.67,43.67Z"/>
      <path class="cls-1" d="M107.85,44.22a2.24,2.24,0,0,1-1.48.52,2.13,2.13,0,1,1,0-4.25,2.25,2.25,0,0,1,1.48.53A2.22,2.22,0,0,1,107.85,44.22Z"/>
      <path class="cls-1" d="M115,49.93a2.13,2.13,0,1,1,0,4.25,2.26,2.26,0,0,1-1.48-.52A2.14,2.14,0,0,1,115,49.93Z"/>
      <path class="cls-1" d="M108.09,28.48a2.26,2.26,0,0,1,1.48.52,2.13,2.13,0,0,1-1.48,3.73,2.13,2.13,0,1,1,0-4.25Z"/>
      <path class="cls-1" d="M90.93,31.43h.43c2.79,0,2.79,4.36,0,4.36h-.43a2,2,0,0,1-1.6-.7,2.29,2.29,0,0,1-.53-1.48A2.08,2.08,0,0,1,90.93,31.43Z"/>
      <path class="cls-1" d="M84.68,29.63a2.25,2.25,0,0,1-1.48.53,2.13,2.13,0,1,1,0-4.26,2.29,2.29,0,0,1,1.48.53A2.23,2.23,0,0,1,84.68,29.63Z"/>
      <path class="cls-1" d="M58.68,53.18A2.12,2.12,0,0,1,58.32,52a2.19,2.19,0,0,1,.25-1l.43-.86a1.89,1.89,0,0,1,1.26-1.07,2.09,2.09,0,0,1,1.48.18,2.22,2.22,0,0,1,1.06,3l-.43.86a1.93,1.93,0,0,1-1.63,1.13A2.35,2.35,0,0,1,58.68,53.18Z"/>
      <path class="cls-1" d="M110.85,145.76a2.25,2.25,0,0,1-1.48.53,2.13,2.13,0,1,1,0-4.26,2.25,2.25,0,0,1,1.48.53A2.22,2.22,0,0,1,110.85,145.76Z"/>
      <path class="cls-1" d="M96.9,152.26a2.18,2.18,0,0,1,4.36,0v.43a2.08,2.08,0,0,1-.7,1.6,2.27,2.27,0,0,1-1.48.53,2.08,2.08,0,0,1-2.18-2.13Z"/>
      <path class="cls-1" d="M95.1,143.87a2.05,2.05,0,0,1-1.6.71h-.43a2.05,2.05,0,0,1-1.6-.71,2.24,2.24,0,0,1-.52-1.48,2.09,2.09,0,0,1,2.12-2.18h.43C95.62,140.21,96.11,142.71,95.1,143.87Z"/>
      <path class="cls-1" d="M84.06,147.5h.43c2.12,0,2.61,2.5,1.6,3.67a2,2,0,0,1-1.6.7h-.43a2.09,2.09,0,0,1-2.12-2.18,2.24,2.24,0,0,1,.52-1.48A2.05,2.05,0,0,1,84.06,147.5Z"/>
      <path class="cls-1" d="M75,146.24a2.23,2.23,0,1,1,1.48.53A2.27,2.27,0,0,1,75,146.24Z"/>
      <path class="cls-1" d="M75.55,156.92a2.26,2.26,0,0,1-1.48.52,2.13,2.13,0,1,1,0-4.25,2.26,2.26,0,0,1,1.48.52A2.23,2.23,0,0,1,75.55,156.92Z"/>
      <path class="cls-1" d="M66.51,144.11a2.08,2.08,0,0,1-.7,1.6,2.27,2.27,0,0,1-1.48.53,2.09,2.09,0,0,1-2.18-2.13v-.43a2.18,2.18,0,0,1,4.36,0Z"/>
      <path class="cls-1" d="M58.67,149.66c2.11,0,2.6,2.49,1.6,3.66a2.08,2.08,0,0,1-1.6.7h-.43a2.09,2.09,0,0,1-2.13-2.18,2.25,2.25,0,0,1,.53-1.48,2,2,0,0,1,1.6-.7Z"/>
      <path class="cls-1" d="M42.1,155.81a2.37,2.37,0,0,1-1.65-1.65,1.86,1.86,0,0,1-.07-.52,2.08,2.08,0,0,1,.64-1.48l.43-.43a2,2,0,0,1,1.63-.64,2.3,2.3,0,0,1,1.42.67,2.1,2.1,0,0,1,0,3.05l-.44.43A2,2,0,0,1,42.1,155.81Z"/>
      <path class="cls-1" d="M29.08,156.87a2.21,2.21,0,0,1,0-.35,2,2,0,0,1,.73-1.5l.46-.4a2.24,2.24,0,0,1,3.21.28,1.94,1.94,0,0,1-.19,2.86l-.45.4a2.14,2.14,0,0,1-2.17.43A2.34,2.34,0,0,1,29.08,156.87Z"/>
      <path class="cls-1" d="M23.58,142a2.25,2.25,0,0,1,1.59.64,2.14,2.14,0,0,1-1.59,3.61,2.24,2.24,0,0,1-1.48-.52,2.05,2.05,0,0,1-.71-1.6A2.12,2.12,0,0,1,23.58,142Z"/>
      <path class="cls-1" d="M14.29,153.89v-.43a2.09,2.09,0,0,1,2.18-2.13,2.09,2.09,0,0,1,2.18,2.13v.43a2.08,2.08,0,0,1-.7,1.6,2.27,2.27,0,0,1-1.48.53A2.09,2.09,0,0,1,14.29,153.89Z"/>
      <path class="cls-1" d="M4.56,153.26v-.86a2.09,2.09,0,0,1,2.18-2.12,2.3,2.3,0,0,1,1.48.52,2.08,2.08,0,0,1,.7,1.6v.86a2,2,0,0,1-.7,1.6,2.25,2.25,0,0,1-1.48.53A2.09,2.09,0,0,1,4.56,153.26Z"/>
      <path class="cls-1" d="M.43,163A2.24,2.24,0,0,1,1,161.5a2,2,0,0,1,1.6-.7H3c2.11,0,2.59,2.5,1.6,3.67a2.08,2.08,0,0,1-1.6.7H2.56A2.09,2.09,0,0,1,.43,163Z"/>
      <path class="cls-1" d="M13.07,168.88a2.09,2.09,0,0,1,2.18-2.13,2.08,2.08,0,0,1,2.18,2.13v.42a2.05,2.05,0,0,1-.7,1.61,2.24,2.24,0,0,1-1.48.52,2.09,2.09,0,0,1-2.18-2.13Z"/>
      <path class="cls-1" d="M4.06,172.85a2.09,2.09,0,0,1,2.13-2.18h.42c2.12,0,2.61,2.5,1.61,3.66a2.05,2.05,0,0,1-1.61.7H6.19a2,2,0,0,1-1.6-.7A2.2,2.2,0,0,1,4.06,172.85Z"/>
      <path class="cls-1" d="M21.05,158.77a2.13,2.13,0,1,1,0,4.25,2.27,2.27,0,0,1-1.48-.53,2,2,0,0,1-.7-1.6A2.09,2.09,0,0,1,21.05,158.77Z"/>
      <path class="cls-1" d="M29.15,166a2.13,2.13,0,1,1,0,4.25,2.22,2.22,0,0,1-1.48-.53,2,2,0,0,1-.7-1.6A2.09,2.09,0,0,1,29.15,166Z"/>
      <path class="cls-1" d="M20.4,177.3h.43c2.11,0,2.6,2.5,1.6,3.67a2.08,2.08,0,0,1-1.6.7H20.4a2.05,2.05,0,0,1-1.6-.71,2.25,2.25,0,0,1-.53-1.48A2.09,2.09,0,0,1,20.4,177.3Z"/>
      <path class="cls-1" d="M0,182.72a2.08,2.08,0,0,1,2.13-2.18h.43c2.79,0,2.79,4.36,0,4.36H2.13a2,2,0,0,1-1.6-.7A2.27,2.27,0,0,1,0,182.72Z"/>
      <path class="cls-1" d="M11.11,189.32a2.08,2.08,0,0,1-.36-1.16,2.36,2.36,0,0,1,.25-1l.44-.86a1.93,1.93,0,0,1,1.64-1.12,2.37,2.37,0,0,1,2.06,1.08,2.15,2.15,0,0,1,.1,2.19l-.43.85a2,2,0,0,1-1.65,1.13A2.36,2.36,0,0,1,11.11,189.32Z"/>
      <path class="cls-1" d="M.86,196.45A2.09,2.09,0,0,1,3,194.26h.42c2.12,0,2.61,2.5,1.61,3.67a2.09,2.09,0,0,1-1.61.7H3a2,2,0,0,1-1.6-.71A2.19,2.19,0,0,1,.86,196.45Z"/>
      <path class="cls-1" d="M3.79,205.94A2.09,2.09,0,0,1,6,203.81a2.26,2.26,0,0,1,1.48.52,2.24,2.24,0,0,1,0,3.21,2.24,2.24,0,0,1-1.48.52A2.09,2.09,0,0,1,3.79,205.94Z"/>
      <path class="cls-1" d="M2.1,218a2.08,2.08,0,0,1,2.18-2.12,2.26,2.26,0,0,1,1.48.52,2.23,2.23,0,0,1,0,3.21,2.26,2.26,0,0,1-1.48.52A2.08,2.08,0,0,1,2.1,218Z"/>
      <path class="cls-1" d="M11.2,212.92a2.09,2.09,0,0,1,2.19-2.13,2.29,2.29,0,0,1,1.48.53,2.15,2.15,0,0,1-1.49,3.73,2.29,2.29,0,0,1-1.48-.53A2.06,2.06,0,0,1,11.2,212.92Z"/>
      <path class="cls-1" d="M.43,231.62A2.22,2.22,0,0,1,1,230.14a2,2,0,0,1,1.6-.7H3c2.11,0,2.59,2.5,1.6,3.66a2.05,2.05,0,0,1-1.6.71H2.56A2.09,2.09,0,0,1,.43,231.62Z"/>
      <path class="cls-1" d="M12.13,228l.4-.45a1.94,1.94,0,0,1,1.87-.68,2.34,2.34,0,0,1,1.71,1.56,2.13,2.13,0,0,1-.44,2.15l-.4.46a2,2,0,0,1-1.87.68,2.38,2.38,0,0,1-1.71-1.56,2.25,2.25,0,0,1-.12-.71A2.18,2.18,0,0,1,12.13,228Z"/>
      <path class="cls-1" d="M1.23,247.92a2.09,2.09,0,0,1,2.18-2.12,2.24,2.24,0,0,1,1.48.52,2.22,2.22,0,0,1,0,3.2,2.2,2.2,0,0,1-1.48.53A2.09,2.09,0,0,1,1.23,247.92Z"/>
      <path class="cls-1" d="M8,239.92v-.43a2.09,2.09,0,0,1,2.18-2.13,2.25,2.25,0,0,1,1.48.53,2,2,0,0,1,.7,1.6v.43a2.08,2.08,0,0,1-2.18,2.13,2.27,2.27,0,0,1-1.48-.53A2.08,2.08,0,0,1,8,239.92Z"/>
      <path class="cls-1" d="M17.14,242.79a2.25,2.25,0,0,1,1.48.53,2.05,2.05,0,0,1,.71,1.6,2.09,2.09,0,0,1-2.19,2.13,2.27,2.27,0,0,1-1.48-.53,2.06,2.06,0,0,1-.7-1.6A2.1,2.1,0,0,1,17.14,242.79Z"/>
      <path class="cls-1" d="M.43,263.37A2.2,2.2,0,0,1,1,261.89a2,2,0,0,1,1.6-.71h.85c2.12,0,2.61,2.5,1.61,3.67a2.09,2.09,0,0,1-1.61.7H2.56A2.09,2.09,0,0,1,.43,263.37Z"/>
      <path class="cls-1" d="M9,257.29a2.1,2.1,0,0,1,2.18-2.13,2.25,2.25,0,0,1,1.48.53,2.22,2.22,0,0,1,0,3.2,2.25,2.25,0,0,1-1.48.53A2.09,2.09,0,0,1,9,257.29Z"/>
      <path class="cls-1" d="M22.08,257.56a2.18,2.18,0,1,1,2.18,2.13,2.27,2.27,0,0,1-1.48-.53A2.08,2.08,0,0,1,22.08,257.56Z"/>
      <path class="cls-1" d="M2.86,275a2.27,2.27,0,0,1,.53-1.48,2.08,2.08,0,0,1,1.6-.7h.86c2.11,0,2.6,2.49,1.6,3.66a2,2,0,0,1-1.6.7H5A2.08,2.08,0,0,1,2.86,275Z"/>
      <path class="cls-1" d="M12,266.2a2.1,2.1,0,0,1,2.18-2.13,2.25,2.25,0,0,1,1.48.53,2.22,2.22,0,0,1,0,3.2,2.25,2.25,0,0,1-1.48.53A2.09,2.09,0,0,1,12,266.2Z"/>
      <path class="cls-1" d="M7.72,283.53a2.27,2.27,0,0,1,.53-1.48,2.08,2.08,0,0,1,1.6-.7h.43c2.79,0,2.79,4.36,0,4.36H9.85A2.08,2.08,0,0,1,7.72,283.53Z"/>
      <path class="cls-1" d="M1.29,289.54a2.09,2.09,0,0,1,2.12-2.19h.43c2.79,0,2.8,4.37,0,4.37H3.41a2.08,2.08,0,0,1-1.6-.7A2.28,2.28,0,0,1,1.29,289.54Z"/>
      <path class="cls-1" d="M19.21,289.77a2.09,2.09,0,0,1,2.19-2.12,2.26,2.26,0,0,1,1.48.52,2.23,2.23,0,0,1,0,3.2,2.29,2.29,0,0,1-1.48.53A2.09,2.09,0,0,1,19.21,289.77Z"/>
      <path class="cls-1" d="M30.4,283.53a2.09,2.09,0,0,1,2.19-2.13,2.29,2.29,0,0,1,1.48.53,2.23,2.23,0,0,1,0,3.2,2.25,2.25,0,0,1-1.48.53A2.09,2.09,0,0,1,30.4,283.53Z"/>
      <path class="cls-1" d="M20.54,278.38a2.08,2.08,0,0,1,2.18-2.12,2.26,2.26,0,0,1,1.48.52,2.14,2.14,0,0,1-1.48,3.73,2.25,2.25,0,0,1-1.48-.53A2,2,0,0,1,20.54,278.38Z"/>
      <path class="cls-1" d="M23.17,268.94a2.09,2.09,0,0,1,2.12-2.18h.43c2.12,0,2.6,2.5,1.6,3.67a2.06,2.06,0,0,1-1.6.7h-.43a2.05,2.05,0,0,1-1.6-.71A2.24,2.24,0,0,1,23.17,268.94Z"/>
      <path class="cls-1" d="M35.16,259.49a2.25,2.25,0,0,1-1.48-.53,2,2,0,0,1-.7-1.6,2.09,2.09,0,0,1,2.18-2.13,2.27,2.27,0,0,1,1.48.53,2.14,2.14,0,0,1-1.48,3.73Z"/>
      <path class="cls-1" d="M28.06,249.52a2.22,2.22,0,0,1-1.48.53,2.13,2.13,0,1,1,0-4.25,2.26,2.26,0,0,1,1.48.52A2.22,2.22,0,0,1,28.06,249.52Z"/>
      <path class="cls-1" d="M21.39,236.77a2.09,2.09,0,0,1,2.19-2.13,2.27,2.27,0,0,1,1.48.53,2.08,2.08,0,0,1,.7,1.6v.43a2.09,2.09,0,0,1-2.18,2.13,2.25,2.25,0,0,1-1.48-.53,2.05,2.05,0,0,1-.71-1.6Z"/>
      <path class="cls-1" d="M35.2,228.62v.86a2.05,2.05,0,0,1-.71,1.6,2.24,2.24,0,0,1-1.48.52,2.09,2.09,0,0,1-2.18-2.12v-.86a2.19,2.19,0,0,1,4.37,0Z"/>
      <path class="cls-1" d="M38.56,240.1V240a2,2,0,0,1,1.12-1.65l.86-.43a2.21,2.21,0,0,1,3,1,2,2,0,0,1-.88,2.77l-.85.43a2.15,2.15,0,0,1-2.19-.1A2.36,2.36,0,0,1,38.56,240.1Z"/>
      <path class="cls-1" d="M19.68,218.75a2.18,2.18,0,1,1,2.18,2.13,2.26,2.26,0,0,1-1.48-.52A2.09,2.09,0,0,1,19.68,218.75Z"/>
      <path class="cls-1" d="M17.14,200.33a2.13,2.13,0,1,1,0,4.25,2.13,2.13,0,1,1,0-4.25Z"/>
      <path class="cls-1" d="M27,207.6a2.19,2.19,0,1,1,2.18,2.13,2.27,2.27,0,0,1-1.48-.53A2.08,2.08,0,0,1,27,207.6Z"/>
      <path class="cls-1" d="M93.78,248.61a2.25,2.25,0,0,1-1.48.53,2.13,2.13,0,1,1,0-4.26,2.25,2.25,0,0,1,1.48.53A2.22,2.22,0,0,1,93.78,248.61Z"/>
      <path class="cls-1" d="M22.08,191.4a2.1,2.1,0,0,1,2.19-2.13,2.27,2.27,0,0,1,1.48.53,2.23,2.23,0,0,1,0,3.2,2.29,2.29,0,0,1-1.48.53A2.09,2.09,0,0,1,22.08,191.4Z"/>
      <path class="cls-1" d="M33.89,182.79a2.13,2.13,0,1,1,0,4.26,2.27,2.27,0,0,1-1.48-.53,2,2,0,0,1-.7-1.6A2.1,2.1,0,0,1,33.89,182.79Z"/>
      <path class="cls-1" d="M47.24,191a2.29,2.29,0,0,1,1.48.53,2.06,2.06,0,0,1,.7,1.6,2.09,2.09,0,0,1-2.19,2.13,2.29,2.29,0,0,1-1.48-.53A2.15,2.15,0,0,1,47.24,191Z"/>
      <path class="cls-1" d="M38.59,174.59a2.13,2.13,0,1,1,0,4.25,2.22,2.22,0,0,1-1.48-.53,2,2,0,0,1-.7-1.6A2.09,2.09,0,0,1,38.59,174.59Z"/>
      <path class="cls-1" d="M42,164.66h.86c2.12,0,2.61,2.5,1.6,3.67a2.08,2.08,0,0,1-1.6.7H42a2.1,2.1,0,0,1-2.13-2.18,2.25,2.25,0,0,1,.53-1.48A2.05,2.05,0,0,1,42,164.66Z"/>
      <path class="cls-1" d="M53.61,157.43a2.13,2.13,0,1,1,0,4.25,2.24,2.24,0,0,1-1.48-.53,2,2,0,0,1-.7-1.6A2.09,2.09,0,0,1,53.61,157.43Z"/>
      <path class="cls-1" d="M57.78,176.05a2.08,2.08,0,0,1-1.6.7h-.43a2.09,2.09,0,0,1-2.13-2.18,2.25,2.25,0,0,1,.53-1.48,2.05,2.05,0,0,1,1.6-.71h.43C58.29,172.38,58.79,174.88,57.78,176.05Z"/>
      <path class="cls-1" d="M80.3,260.7a2.27,2.27,0,0,1-1.48-.53,2.22,2.22,0,1,1,1.48.53Z"/>
      <path class="cls-1" d="M34.75,197.73a2.26,2.26,0,0,1,.52-1.48,2.09,2.09,0,0,1,1.61-.7h.42c2.79,0,2.8,4.37,0,4.37h-.42A2.09,2.09,0,0,1,34.75,197.73Z"/>
      <path class="cls-1" d="M36.62,219.87A2.05,2.05,0,0,1,36,218.4a2.23,2.23,0,0,1,.68-1.58,2.08,2.08,0,0,1,3,0l.43.43a2.18,2.18,0,0,1-3.08,3.09Z"/>
      <path class="cls-1" d="M48.46,214.48a2.27,2.27,0,0,1,1.48.53,2.14,2.14,0,0,1-1.48,3.73,2.25,2.25,0,0,1-1.48-.53,2,2,0,0,1-.7-1.6A2.08,2.08,0,0,1,48.46,214.48Z"/>
      <path class="cls-1" d="M44.79,208.77a2.27,2.27,0,0,1-1.48.53,2.13,2.13,0,1,1,0-4.26,2.27,2.27,0,0,1,1.48.53A2.22,2.22,0,0,1,44.79,208.77Z"/>
      <path class="cls-1" d="M61.52,192.9a2.27,2.27,0,0,1-1.48.53,2.13,2.13,0,1,1,0-4.26,2.27,2.27,0,0,1,1.48.53A2.22,2.22,0,0,1,61.52,192.9Z"/>
      <path class="cls-1" d="M53.64,184a2.09,2.09,0,0,1-2.18,2.12,2.26,2.26,0,0,1-1.48-.52,2.16,2.16,0,1,1,3.66-1.6Z"/>
      <path class="cls-1" d="M71.66,174.57V175a2.08,2.08,0,0,1-.7,1.6,2.26,2.26,0,0,1-1.48.52A2.08,2.08,0,0,1,67.3,175v-.43a2.18,2.18,0,0,1,4.36,0Z"/>
      <path class="cls-1" d="M64.29,165.13A2.09,2.09,0,0,1,66.48,163a2.25,2.25,0,0,1,1.47.53,2.22,2.22,0,0,1,0,3.2,2.25,2.25,0,0,1-1.48.53A2.09,2.09,0,0,1,64.29,165.13Z"/>
      <path class="cls-1" d="M89.4,166.73a2.25,2.25,0,0,1-1.48.53,2.13,2.13,0,1,1,0-4.26,2.29,2.29,0,0,1,1.48.53A2.23,2.23,0,0,1,89.4,166.73Z"/>
      <path class="cls-1" d="M78.06,185.7a2.13,2.13,0,1,1,0-4.25,2.13,2.13,0,0,1,1.48,3.73A2.26,2.26,0,0,1,78.06,185.7Z"/>
      <path class="cls-1" d="M77.2,166a2.13,2.13,0,1,1,0,4.25,2.22,2.22,0,0,1-1.48-.53,2,2,0,0,1-.7-1.6A2.09,2.09,0,0,1,77.2,166Z"/>
      <path class="cls-1" d="M92.68,175.43a2.09,2.09,0,0,1-2.18,2.12A2.24,2.24,0,0,1,89,177a2,2,0,0,1-.7-1.6,2.18,2.18,0,0,1,4.36,0Z"/>
      <path class="cls-1" d="M104.42,170.59a2.27,2.27,0,0,1-1.48.53,2.13,2.13,0,1,1,0-4.26,2.27,2.27,0,0,1,1.48.53A2.22,2.22,0,0,1,104.42,170.59Z"/>
      <path class="cls-1" d="M98.22,164.74h-.43a2.09,2.09,0,0,1-2.13-2.18,2.25,2.25,0,0,1,.53-1.48,2.05,2.05,0,0,1,1.6-.71h.43c2.11,0,2.61,2.5,1.6,3.67A2.08,2.08,0,0,1,98.22,164.74Z"/>
      <path class="cls-1" d="M113.23,159.57a2.25,2.25,0,0,1,1.48.53,2.22,2.22,0,0,1,0,3.2,2.25,2.25,0,0,1-1.48.53,2.13,2.13,0,1,1,0-4.26Z"/>
      <path class="cls-1" d="M103.48,180.81a2.08,2.08,0,0,1,1.6-.7h.43c2.12,0,2.61,2.49,1.6,3.66a2,2,0,0,1-1.6.7h-.43a2.09,2.09,0,0,1-2.12-2.18A2.26,2.26,0,0,1,103.48,180.81Z"/>
      <path class="cls-1" d="M98.53,195.35a2,2,0,0,1-1.6.7H96.5a2.08,2.08,0,0,1-2.12-2.18,2.26,2.26,0,0,1,.52-1.48,2.08,2.08,0,0,1,1.6-.7h.43C99.05,191.69,99.54,194.19,98.53,195.35Z"/>
      <path class="cls-1" d="M91.82,188.3a2.09,2.09,0,0,1-2.18,2.12,2.26,2.26,0,0,1-1.48-.52,2.14,2.14,0,0,1,1.48-3.73,2.26,2.26,0,0,1,1.48.52A2.09,2.09,0,0,1,91.82,188.3Z"/>
      <path class="cls-1" d="M78.92,207.58a2.24,2.24,0,0,1-1.48-.52,2.05,2.05,0,0,1-.71-1.6,2.19,2.19,0,1,1,2.19,2.12Z"/>
      <path class="cls-1" d="M73.6,195.76a2.19,2.19,0,0,1-3.09,3.09l-.43-.43a2.06,2.06,0,0,1-.64-1.48,2.22,2.22,0,0,1,.68-1.57,2.09,2.09,0,0,1,3,0Z"/>
      <path class="cls-1" d="M66,187a2.13,2.13,0,1,1,0-4.25,2.26,2.26,0,0,1,1.48.52,2.23,2.23,0,0,1,0,3.2A2.25,2.25,0,0,1,66,187Z"/>
      <path class="cls-1" d="M70.34,220.88a2.24,2.24,0,0,1-1.48-.52,2.06,2.06,0,0,1-.71-1.61v-.85a2.09,2.09,0,0,1,2.19-2.13,2.26,2.26,0,0,1,1.48.52,2.09,2.09,0,0,1,.7,1.61v.85A2.09,2.09,0,0,1,70.34,220.88Z"/>
      <path class="cls-1" d="M63.47,207.62a2.24,2.24,0,0,1,1.48.52,2.13,2.13,0,0,1-1.48,3.73,2.13,2.13,0,1,1,0-4.25Z"/>
      <path class="cls-1" d="M55.75,209.3a2.13,2.13,0,1,1,0-4.26,2.27,2.27,0,0,1,1.48.53,2.22,2.22,0,0,1,0,3.2A2.27,2.27,0,0,1,55.75,209.3Z"/>
      <path class="cls-1" d="M54.46,233a2.09,2.09,0,0,1-2.12-2.19,2.28,2.28,0,0,1,.52-1.48,2.08,2.08,0,0,1,1.6-.7h.43c2.12,0,2.61,2.5,1.6,3.67a2,2,0,0,1-1.6.7Z"/>
      <path class="cls-1" d="M45,229.05a2.09,2.09,0,0,1,2.18-2.13,2.27,2.27,0,0,1,1.48.53,2.14,2.14,0,0,1-1.48,3.73,2.27,2.27,0,0,1-1.48-.53A2.08,2.08,0,0,1,45,229.05Z"/>
      <path class="cls-1" d="M52.32,243.22a2.27,2.27,0,0,1,1.48.53,2.22,2.22,0,0,1,0,3.2,2.27,2.27,0,0,1-1.48.53,2.13,2.13,0,1,1,0-4.26Z"/>
      <path class="cls-1" d="M48,252.66a2.13,2.13,0,1,1,0,4.26,2.25,2.25,0,0,1-1.48-.53,2.05,2.05,0,0,1-.71-1.6A2.09,2.09,0,0,1,48,252.66Z"/>
      <path class="cls-1" d="M45.9,267.66a2.25,2.25,0,0,1,.53-1.48,2,2,0,0,1,1.6-.7h.86c2.11,0,2.6,2.49,1.6,3.66a2.08,2.08,0,0,1-1.6.7H48A2.09,2.09,0,0,1,45.9,267.66Z"/>
      <path class="cls-1" d="M36.62,272.2a2.05,2.05,0,0,1-.64-1.47,2.26,2.26,0,0,1,.68-1.58,2.08,2.08,0,0,1,3,0l.43.43a2,2,0,0,1,.57,2,2.34,2.34,0,0,1-1.64,1.64,2,2,0,0,1-2-.57Z"/>
      <path class="cls-1" d="M83.2,289.07h.43c2.12,0,2.61,2.5,1.61,3.66a2.05,2.05,0,0,1-1.61.7H83.2a2.18,2.18,0,0,1,0-4.36Z"/>
      <path class="cls-1" d="M99.12,293a2.09,2.09,0,0,1-2.19,2.13,2.27,2.27,0,0,1-1.48-.53,2.17,2.17,0,1,1,3.67-1.6Z"/>
      <path class="cls-1" d="M99.51,279.69a2.13,2.13,0,1,1,0,4.25,2.24,2.24,0,0,1-1.48-.52,2.06,2.06,0,0,1-.71-1.61A2.09,2.09,0,0,1,99.51,279.69Z"/>
      <path class="cls-1" d="M111.52,286.5H112c2.11,0,2.6,2.49,1.6,3.66a2.08,2.08,0,0,1-1.6.7h-.43a2.18,2.18,0,0,1,0-4.36Z"/>
      <path class="cls-1" d="M115.85,232.48a2.09,2.09,0,0,1-2.19,2.13,2.27,2.27,0,0,1-1.48-.53,2.06,2.06,0,0,1-.7-1.6,2.19,2.19,0,0,1,4.37,0Z"/>
      <path class="cls-1" d="M110.78,249.88a2,2,0,0,1,1.6-.7h.42c2.79,0,2.8,4.36,0,4.36h-.42a2.09,2.09,0,0,1-2.13-2.18A2.2,2.2,0,0,1,110.78,249.88Z"/>
      <path class="cls-1" d="M115.81,264.64a2.13,2.13,0,1,1,0-4.26,2.27,2.27,0,0,1,1.48.53,1.87,1.87,0,0,1,.37.47v2.26a1.87,1.87,0,0,1-.37.47A2.29,2.29,0,0,1,115.81,264.64Z"/>
      <path class="cls-1" d="M114.71,276.55a2.25,2.25,0,0,1-1.48.53,2.13,2.13,0,1,1,0-4.26,2.25,2.25,0,0,1,1.48.53A2.22,2.22,0,0,1,114.71,276.55Z"/>
      <path class="cls-1" d="M102.12,269.8a2.09,2.09,0,0,1-2.19,2.13,2.29,2.29,0,0,1-1.48-.53,2,2,0,0,1-.7-1.6,2.09,2.09,0,0,1,2.19-2.12,2.26,2.26,0,0,1,1.48.52A2.08,2.08,0,0,1,102.12,269.8Z"/>
      <path class="cls-1" d="M106.84,257.36a2.09,2.09,0,0,1-2.19,2.13,2.27,2.27,0,0,1-1.48-.53,2,2,0,0,1-.7-1.6,2.1,2.1,0,0,1,2.18-2.13,2.25,2.25,0,0,1,1.48.53A2.05,2.05,0,0,1,106.84,257.36Z"/>
      <path class="cls-1" d="M91.24,257.56a2.08,2.08,0,0,1-1.6.7h-.43a2.09,2.09,0,0,1-2.13-2.19,2.29,2.29,0,0,1,.53-1.48,2.08,2.08,0,0,1,1.6-.7h.43C91.76,253.89,92.25,256.39,91.24,257.56Z"/>
      <path class="cls-1" d="M90.07,275h-.43a2.05,2.05,0,0,1-1.6-.71,2.25,2.25,0,0,1-.53-1.48,2.09,2.09,0,0,1,2.13-2.18h.43C92.86,270.62,92.86,275,90.07,275Z"/>
      <path class="cls-1" d="M79.77,278.8a2.27,2.27,0,0,1-1.48-.53,2.23,2.23,0,1,1,1.48.53Z"/>
      <path class="cls-1" d="M69.07,289.54a2.09,2.09,0,0,1,2.12-2.19h.43c2.79,0,2.8,4.37,0,4.37h-.43a2.08,2.08,0,0,1-1.6-.7A2.28,2.28,0,0,1,69.07,289.54Z"/>
      <path class="cls-1" d="M63.9,284a2.05,2.05,0,0,1-1.6-.71,2.25,2.25,0,0,1-.53-1.48,2.09,2.09,0,0,1,2.13-2.18h.43c2.79,0,2.8,4.37,0,4.37Z"/>
      <path class="cls-1" d="M56.61,291.7a2.13,2.13,0,1,1-2.19,2.13A2.09,2.09,0,0,1,56.61,291.7Z"/>
      <path class="cls-1" d="M47.62,285.67a2.28,2.28,0,0,1,.52-1.48,2.08,2.08,0,0,1,1.6-.7h.86c2.12,0,2.61,2.5,1.6,3.67a2,2,0,0,1-1.6.7h-.86A2.09,2.09,0,0,1,47.62,285.67Z"/>
      <path class="cls-1" d="M42.45,280.06h.43c2.12,0,2.61,2.5,1.6,3.67a2.08,2.08,0,0,1-1.6.7h-.43a2.19,2.19,0,0,1,0-4.37Z"/>
      <path class="cls-1" d="M60.47,269.76c2.79,0,2.8,4.37,0,4.37H60a2.08,2.08,0,0,1-1.6-.7,2.29,2.29,0,0,1-.53-1.48A2.09,2.09,0,0,1,60,269.76Z"/>
      <path class="cls-1" d="M60.49,258.22A2.09,2.09,0,0,1,62.61,256H63c2.79,0,2.8,4.36,0,4.36h-.43a2.08,2.08,0,0,1-1.6-.7A2.26,2.26,0,0,1,60.49,258.22Z"/>
      <path class="cls-1" d="M73.77,263.81A2.1,2.1,0,0,1,76,265.94v.43a2.08,2.08,0,0,1-.7,1.6,2.29,2.29,0,0,1-1.48.53,2.09,2.09,0,0,1-2.19-2.13v-.43A2.1,2.1,0,0,1,73.77,263.81Z"/>
      <path class="cls-1" d="M72,250.07a2.08,2.08,0,0,1,2.18-2.13,2.27,2.27,0,0,1,1.48.53,2.23,2.23,0,0,1,0,3.2,2.29,2.29,0,0,1-1.48.53A2.08,2.08,0,0,1,72,250.07Z"/>
      <path class="cls-1" d="M68.66,244.49a2.09,2.09,0,0,1-2.19,2.13,2.22,2.22,0,0,1-1.48-.53,2,2,0,0,1-.7-1.6,2.19,2.19,0,0,1,4.37,0Z"/>
      <path class="cls-1" d="M77.63,233.79a2.13,2.13,0,1,1,0,4.25,2.2,2.2,0,0,1-1.48-.53,2,2,0,0,1-.7-1.6A2.08,2.08,0,0,1,77.63,233.79Z"/>
      <path class="cls-1" d="M65.21,230.76a2.09,2.09,0,0,1,2.12-2.18h.86c2.79,0,2.8,4.37,0,4.37h-.86a2.05,2.05,0,0,1-1.6-.71A2.24,2.24,0,0,1,65.21,230.76Z"/>
      <path class="cls-1" d="M81.88,221.76a2.09,2.09,0,0,1,2.19-2.13,2.19,2.19,0,0,1,1.47.53,2.22,2.22,0,0,1,0,3.2,2.24,2.24,0,0,1-1.48.52A2.09,2.09,0,0,1,81.88,221.76Z"/>
      <path class="cls-1" d="M85.78,242.81h-.43a2.08,2.08,0,0,1-2.13-2.18,2.27,2.27,0,0,1,.53-1.48,2.08,2.08,0,0,1,1.6-.7h.43c2.11,0,2.61,2.49,1.6,3.66A2,2,0,0,1,85.78,242.81Z"/>
      <path class="cls-1" d="M103.62,241.23a2.19,2.19,0,0,1-3.09,3.09l-.42-.43a2.08,2.08,0,0,1-.64-1.48v-.15a2.26,2.26,0,0,1,.68-1.42,2.09,2.09,0,0,1,3,0Z"/>
      <path class="cls-1" d="M97.12,231.94a2.24,2.24,0,0,1-1.48.52,2.13,2.13,0,1,1,0-4.25,2.13,2.13,0,0,1,1.47,3.73Z"/>
      <path class="cls-1" d="M100.17,222.93a2.22,2.22,0,1,1,1.48.53A2.27,2.27,0,0,1,100.17,222.93Z"/>
      <path class="cls-1" d="M94.67,212.94a2.06,2.06,0,0,1-1.6.7h-.86a2.08,2.08,0,0,1-1.6-.7,2.26,2.26,0,0,1-.52-1.48,2.09,2.09,0,0,1,2.12-2.18h.86C95.19,209.28,95.67,211.78,94.67,212.94Z"/>
      <path class="cls-1" d="M107.85,213.49a2.25,2.25,0,0,1-1.48.53,2.13,2.13,0,1,1,0-4.26,2.25,2.25,0,0,1,1.48.53A2.22,2.22,0,0,1,107.85,213.49Z"/>
      <path class="cls-1" d="M115,219.2a2.13,2.13,0,1,1,0,4.26,2.27,2.27,0,0,1-1.48-.53A2.14,2.14,0,0,1,115,219.2Z"/>
      <path class="cls-1" d="M108.09,197.75a2.27,2.27,0,0,1,1.48.53,2.22,2.22,0,0,1,0,3.2,2.25,2.25,0,0,1-1.47.53,2.13,2.13,0,1,1,0-4.26Z"/>
      <path class="cls-1" d="M90.93,200.7h.43c2.79,0,2.79,4.36,0,4.36h-.43a2,2,0,0,1-1.6-.7,2.27,2.27,0,0,1-.53-1.48A2.09,2.09,0,0,1,90.93,200.7Z"/>
      <path class="cls-1" d="M84.68,198.9a2.2,2.2,0,0,1-1.48.53,2.13,2.13,0,1,1,0-4.25,2.28,2.28,0,0,1,1.48.52A2.23,2.23,0,0,1,84.68,198.9Z"/>
      <path class="cls-1" d="M58.68,222.45a2.12,2.12,0,0,1-.36-1.18,2.19,2.19,0,0,1,.25-1l.43-.86a1.92,1.92,0,0,1,1.26-1.07,2.09,2.09,0,0,1,1.48.18,2.23,2.23,0,0,1,1.06,3l-.43.86a2,2,0,0,1-1.63,1.13A2.38,2.38,0,0,1,58.68,222.45Z"/>
    </g>
    <g>
      <path class="cls-1" d="M20.4,296.56h.43c2.11,0,2.6,2.49,1.6,3.66a2.08,2.08,0,0,1-1.6.7H20.4a2.08,2.08,0,0,1-1.6-.7,2.27,2.27,0,0,1-.53-1.48A2.09,2.09,0,0,1,20.4,296.56Z"/>
      <path class="cls-1" d="M0,302a2.09,2.09,0,0,1,2.13-2.18h.43c2.79,0,2.79,4.37,0,4.37H2.13a2,2,0,0,1-1.6-.71A2.25,2.25,0,0,1,0,302Z"/>
      <path class="cls-1" d="M11.11,308.58a2.09,2.09,0,0,1-.36-1.17,2.32,2.32,0,0,1,.25-1l.44-.86a1.94,1.94,0,0,1,1.64-1.13,2.36,2.36,0,0,1,2.06,1.09,2.13,2.13,0,0,1,.1,2.18l-.43.86a2,2,0,0,1-1.65,1.12A2.35,2.35,0,0,1,11.11,308.58Z"/>
      <path class="cls-1" d="M.86,315.7A2.09,2.09,0,0,1,3,313.52h.42c2.12,0,2.61,2.5,1.61,3.66a2.05,2.05,0,0,1-1.61.7H3a2,2,0,0,1-1.6-.7A2.2,2.2,0,0,1,.86,315.7Z"/>
      <path class="cls-1" d="M3.79,325.19A2.1,2.1,0,0,1,6,323.06a2.27,2.27,0,0,1,1.48.53,2.23,2.23,0,0,1,0,3.2,2.25,2.25,0,0,1-1.48.53A2.09,2.09,0,0,1,3.79,325.19Z"/>
      <path class="cls-1" d="M2.1,337.29a2.08,2.08,0,0,1,2.18-2.13,2.27,2.27,0,0,1,1.48.53,2.22,2.22,0,0,1,0,3.2,2.27,2.27,0,0,1-1.48.53A2.08,2.08,0,0,1,2.1,337.29Z"/>
      <path class="cls-1" d="M11.2,332.18a2.09,2.09,0,0,1,2.19-2.13,2.29,2.29,0,0,1,1.48.53,2.06,2.06,0,0,1,.7,1.6,2.1,2.1,0,0,1-2.19,2.13,2.29,2.29,0,0,1-1.48-.53A2.08,2.08,0,0,1,11.2,332.18Z"/>
      <path class="cls-1" d="M.43,350.88A2.22,2.22,0,0,1,1,349.4a2,2,0,0,1,1.6-.7H3c2.11,0,2.59,2.49,1.6,3.66a2.08,2.08,0,0,1-1.6.7H2.56A2.09,2.09,0,0,1,.43,350.88Z"/>
      <path class="cls-1" d="M12.13,347.21l.4-.45a1.94,1.94,0,0,1,1.87-.68,2.32,2.32,0,0,1,1.71,1.56,2.13,2.13,0,0,1-.44,2.15l-.4.45a1.94,1.94,0,0,1-1.87.68,2.34,2.34,0,0,1-1.71-1.56,2.14,2.14,0,0,1,.44-2.15Z"/>
      <path class="cls-1" d="M1.23,367.18a2.09,2.09,0,0,1,2.18-2.13,2.25,2.25,0,0,1,1.48.53,2.22,2.22,0,0,1,0,3.2,2.25,2.25,0,0,1-1.48.53A2.09,2.09,0,0,1,1.23,367.18Z"/>
      <path class="cls-1" d="M8,359.17v-.43a2.09,2.09,0,0,1,2.18-2.12,2.3,2.3,0,0,1,1.48.52,2,2,0,0,1,.7,1.6v.43a2.08,2.08,0,0,1-2.18,2.13,2.26,2.26,0,0,1-1.48-.52A2.09,2.09,0,0,1,8,359.17Z"/>
      <path class="cls-1" d="M17.14,362.05a2.25,2.25,0,0,1,1.48.53,2,2,0,0,1,.71,1.6,2.1,2.1,0,0,1-2.19,2.13,2.27,2.27,0,0,1-1.48-.53,2.14,2.14,0,0,1,1.48-3.73Z"/>
      <path class="cls-1" d="M.43,382.62A2.22,2.22,0,0,1,1,381.14a2,2,0,0,1,1.6-.7h.85c2.12,0,2.61,2.5,1.61,3.66a2.06,2.06,0,0,1-1.61.71H2.56A2.09,2.09,0,0,1,.43,382.62Z"/>
      <path class="cls-1" d="M9,376.55a2.09,2.09,0,0,1,2.18-2.13,2.25,2.25,0,0,1,1.48.53,2.22,2.22,0,0,1,0,3.2,2.25,2.25,0,0,1-1.48.53A2.09,2.09,0,0,1,9,376.55Z"/>
      <path class="cls-1" d="M22.08,376.82a2.18,2.18,0,1,1,2.18,2.12,2.26,2.26,0,0,1-1.48-.52A2.08,2.08,0,0,1,22.08,376.82Z"/>
      <path class="cls-1" d="M12,385.46a2.09,2.09,0,0,1,2.18-2.13,2.25,2.25,0,0,1,1.48.53,2.22,2.22,0,0,1,0,3.2,2.25,2.25,0,0,1-1.48.53A2.09,2.09,0,0,1,12,385.46Z"/>
      <path class="cls-1" d="M23.17,388.2A2.09,2.09,0,0,1,25.29,386h.43c2.12,0,2.6,2.49,1.6,3.66a2,2,0,0,1-1.6.7h-.43a2,2,0,0,1-1.6-.7A2.24,2.24,0,0,1,23.17,388.2Z"/>
      <path class="cls-1" d="M35.16,378.75a2.25,2.25,0,0,1-1.48-.53,2.14,2.14,0,0,1,1.48-3.73,2.27,2.27,0,0,1,1.48.53,2.14,2.14,0,0,1-1.48,3.73Z"/>
      <path class="cls-1" d="M28.06,368.78a2.27,2.27,0,0,1-1.48.53,2.13,2.13,0,1,1,0-4.26,2.27,2.27,0,0,1,1.48.53A2.22,2.22,0,0,1,28.06,368.78Z"/>
      <path class="cls-1" d="M21.39,356a2.09,2.09,0,0,1,2.19-2.13,2.27,2.27,0,0,1,1.48.53,2,2,0,0,1,.7,1.6v.43a2.09,2.09,0,0,1-2.18,2.12,2.24,2.24,0,0,1-1.48-.52,2.05,2.05,0,0,1-.71-1.6Z"/>
      <path class="cls-1" d="M35.2,347.88v.85a2,2,0,0,1-.71,1.6,2.2,2.2,0,0,1-1.48.53,2.09,2.09,0,0,1-2.18-2.13v-.85a2.19,2.19,0,0,1,4.37,0Z"/>
      <path class="cls-1" d="M38.56,359.35v-.1a2,2,0,0,1,1.12-1.65l.86-.44a2.22,2.22,0,0,1,3,1,2,2,0,0,1-.88,2.76l-.85.44a2.15,2.15,0,0,1-2.19-.1A2.37,2.37,0,0,1,38.56,359.35Z"/>
      <path class="cls-1" d="M19.68,338a2.18,2.18,0,1,1,2.18,2.13,2.27,2.27,0,0,1-1.48-.53A2.08,2.08,0,0,1,19.68,338Z"/>
      <path class="cls-1" d="M17.14,319.58a2.13,2.13,0,1,1,0,4.26,2.13,2.13,0,1,1,0-4.26Z"/>
      <path class="cls-1" d="M27,326.86A2.19,2.19,0,1,1,29.15,329a2.26,2.26,0,0,1-1.48-.52A2.08,2.08,0,0,1,27,326.86Z"/>
      <path class="cls-1" d="M93.78,367.87a2.24,2.24,0,0,1-1.48.52,2.13,2.13,0,1,1,0-4.25,2.13,2.13,0,0,1,1.48,3.73Z"/>
      <path class="cls-1" d="M22.08,310.66a2.09,2.09,0,0,1,2.19-2.13,2.27,2.27,0,0,1,1.48.53,2.23,2.23,0,0,1,0,3.2,2.29,2.29,0,0,1-1.48.53A2.09,2.09,0,0,1,22.08,310.66Z"/>
      <path class="cls-1" d="M33.89,302.05a2.13,2.13,0,1,1,0,4.26,2.27,2.27,0,0,1-1.48-.53,2.14,2.14,0,0,1,1.48-3.73Z"/>
      <path class="cls-1" d="M47.24,310.21a2.28,2.28,0,0,1,1.48.52,2.15,2.15,0,0,1-1.49,3.73,2.28,2.28,0,0,1-1.48-.52,2.15,2.15,0,0,1,1.49-3.73Z"/>
      <path class="cls-1" d="M38.59,293.84a2.13,2.13,0,1,1,0,4.26,2.27,2.27,0,0,1-1.48-.53,2.14,2.14,0,0,1,1.48-3.73Z"/>
      <path class="cls-1" d="M57.78,295.3a2.05,2.05,0,0,1-1.6.71h-.43a2.09,2.09,0,0,1-2.13-2.19,2.27,2.27,0,0,1,.53-1.48,2.08,2.08,0,0,1,1.6-.7h.43C58.29,291.64,58.79,294.14,57.78,295.3Z"/>
      <path class="cls-1" d="M80.3,380a2.26,2.26,0,0,1-1.48-.52,2.23,2.23,0,1,1,1.48.52Z"/>
      <path class="cls-1" d="M34.75,317a2.26,2.26,0,0,1,.52-1.48,2.09,2.09,0,0,1,1.61-.7h.42c2.79,0,2.8,4.36,0,4.36h-.42A2.09,2.09,0,0,1,34.75,317Z"/>
      <path class="cls-1" d="M36.62,339.12a2.05,2.05,0,0,1-.64-1.47,2.22,2.22,0,0,1,.68-1.57,2.08,2.08,0,0,1,3,0l.43.43a2.18,2.18,0,0,1-3.08,3.08Z"/>
      <path class="cls-1" d="M48.46,333.74a2.26,2.26,0,0,1,1.48.52A2.14,2.14,0,0,1,48.46,338a2.24,2.24,0,0,1-1.48-.52,2,2,0,0,1-.7-1.6A2.08,2.08,0,0,1,48.46,333.74Z"/>
      <path class="cls-1" d="M44.79,328a2.26,2.26,0,0,1-1.48.52,2.13,2.13,0,1,1,0-4.25,2.27,2.27,0,0,1,1.48.53A2.22,2.22,0,0,1,44.79,328Z"/>
      <path class="cls-1" d="M61.52,312.15a2.22,2.22,0,0,1-1.48.53,2.13,2.13,0,1,1,0-4.25,2.26,2.26,0,0,1,1.48.52A2.22,2.22,0,0,1,61.52,312.15Z"/>
      <path class="cls-1" d="M53.64,303.26a2.09,2.09,0,0,1-2.18,2.13,2.27,2.27,0,0,1-1.48-.53,2,2,0,0,1-.7-1.6,2.18,2.18,0,0,1,4.36,0Z"/>
      <path class="cls-1" d="M78.06,305a2.13,2.13,0,1,1,0-4.25,2.26,2.26,0,0,1,1.48.52,2.23,2.23,0,0,1,0,3.2A2.27,2.27,0,0,1,78.06,305Z"/>
      <path class="cls-1" d="M103.48,300.07a2.05,2.05,0,0,1,1.6-.71h.43c2.12,0,2.61,2.5,1.6,3.67a2,2,0,0,1-1.6.7h-.43a2.09,2.09,0,0,1-2.12-2.18A2.24,2.24,0,0,1,103.48,300.07Z"/>
      <path class="cls-1" d="M98.53,314.61a2,2,0,0,1-1.6.7H96.5a2.09,2.09,0,0,1-2.12-2.18,2.24,2.24,0,0,1,.52-1.48,2,2,0,0,1,1.6-.7h.43C99.05,311,99.54,313.44,98.53,314.61Z"/>
      <path class="cls-1" d="M91.82,307.55a2.09,2.09,0,0,1-2.18,2.13,2.27,2.27,0,0,1-1.48-.53,2.06,2.06,0,0,1-.7-1.6,2.1,2.1,0,0,1,2.18-2.13,2.27,2.27,0,0,1,1.48.53A2.08,2.08,0,0,1,91.82,307.55Z"/>
      <path class="cls-1" d="M78.92,326.84a2.25,2.25,0,0,1-1.48-.53,2.05,2.05,0,0,1-.71-1.6,2.19,2.19,0,1,1,2.19,2.13Z"/>
      <path class="cls-1" d="M73.6,315a2.18,2.18,0,0,1-3.09,3.08l-.43-.43a2.05,2.05,0,0,1-.64-1.47,2.22,2.22,0,0,1,.68-1.57,2.09,2.09,0,0,1,3,0Z"/>
      <path class="cls-1" d="M66,306.25a2.13,2.13,0,1,1,0-4.26,2.27,2.27,0,0,1,1.48.53,2.23,2.23,0,0,1,0,3.2A2.25,2.25,0,0,1,66,306.25Z"/>
      <path class="cls-1" d="M70.34,340.14a2.25,2.25,0,0,1-1.48-.53,2.05,2.05,0,0,1-.71-1.6v-.86A2.1,2.1,0,0,1,70.34,335a2.27,2.27,0,0,1,1.48.53,2.08,2.08,0,0,1,.7,1.6V338A2.09,2.09,0,0,1,70.34,340.14Z"/>
      <path class="cls-1" d="M63.47,326.87a2.25,2.25,0,0,1,1.48.53,2.22,2.22,0,0,1,0,3.2,2.25,2.25,0,0,1-1.48.53,2.13,2.13,0,1,1,0-4.26Z"/>
      <path class="cls-1" d="M55.75,328.55a2.13,2.13,0,1,1,0-4.25,2.27,2.27,0,0,1,1.48.53,2.22,2.22,0,0,1,0,3.2A2.26,2.26,0,0,1,55.75,328.55Z"/>
      <path class="cls-1" d="M54.46,352.2A2.08,2.08,0,0,1,52.34,350a2.26,2.26,0,0,1,.52-1.48,2.08,2.08,0,0,1,1.6-.7h.43c2.12,0,2.61,2.49,1.6,3.66a2,2,0,0,1-1.6.7Z"/>
      <path class="cls-1" d="M45,348.31a2.09,2.09,0,0,1,2.18-2.13,2.26,2.26,0,0,1,1.48.52,2.14,2.14,0,0,1-1.48,3.73,2.26,2.26,0,0,1-1.48-.52A2.08,2.08,0,0,1,45,348.31Z"/>
      <path class="cls-1" d="M52.32,362.48a2.13,2.13,0,0,1,1.48,3.73,2.26,2.26,0,0,1-1.48.52,2.13,2.13,0,1,1,0-4.25Z"/>
      <path class="cls-1" d="M48,371.92a2.13,2.13,0,1,1,0,4.25,2.24,2.24,0,0,1-1.48-.52,2.05,2.05,0,0,1-.71-1.6A2.09,2.09,0,0,1,48,371.92Z"/>
      <path class="cls-1" d="M45.9,386.91a2.29,2.29,0,0,1,.53-1.48,2.08,2.08,0,0,1,1.6-.7h.86c2.11,0,2.6,2.5,1.6,3.67a2.08,2.08,0,0,1-1.6.7H48A2.09,2.09,0,0,1,45.9,386.91Z"/>
      <path class="cls-1" d="M115.85,351.74a2.1,2.1,0,0,1-2.19,2.13,2.27,2.27,0,0,1-1.48-.53,2.17,2.17,0,1,1,3.67-1.6Z"/>
      <path class="cls-1" d="M110.78,369.13a2,2,0,0,1,1.6-.7h.42c2.79,0,2.8,4.37,0,4.37h-.42a2.09,2.09,0,0,1-2.13-2.19A2.22,2.22,0,0,1,110.78,369.13Z"/>
      <path class="cls-1" d="M102.12,389.06a2.09,2.09,0,0,1-2.19,2.13,2.29,2.29,0,0,1-1.48-.53,2.15,2.15,0,0,1,1.49-3.73,2.27,2.27,0,0,1,1.48.53A2.08,2.08,0,0,1,102.12,389.06Z"/>
      <path class="cls-1" d="M106.84,376.62a2.09,2.09,0,0,1-2.19,2.13,2.27,2.27,0,0,1-1.48-.53,2.14,2.14,0,0,1,1.48-3.73,2.25,2.25,0,0,1,1.48.53A2.05,2.05,0,0,1,106.84,376.62Z"/>
      <path class="cls-1" d="M91.24,376.81a2.05,2.05,0,0,1-1.6.71h-.43a2.09,2.09,0,0,1-2.13-2.19,2.27,2.27,0,0,1,.53-1.48,2.08,2.08,0,0,1,1.6-.7h.43C91.76,373.15,92.25,375.65,91.24,376.81Z"/>
      <path class="cls-1" d="M60.49,377.48a2.09,2.09,0,0,1,2.12-2.19H63c2.79,0,2.8,4.37,0,4.37h-.43A2.05,2.05,0,0,1,61,379,2.24,2.24,0,0,1,60.49,377.48Z"/>
      <path class="cls-1" d="M73.77,383.07A2.09,2.09,0,0,1,76,385.2v.43a2.08,2.08,0,0,1-.7,1.6,2.28,2.28,0,0,1-1.48.52,2.09,2.09,0,0,1-2.19-2.12v-.43A2.09,2.09,0,0,1,73.77,383.07Z"/>
      <path class="cls-1" d="M72,369.33a2.08,2.08,0,0,1,2.18-2.13,2.26,2.26,0,0,1,1.48.52,2.24,2.24,0,0,1,0,3.21,2.28,2.28,0,0,1-1.48.52A2.08,2.08,0,0,1,72,369.33Z"/>
      <path class="cls-1" d="M68.66,363.75a2.09,2.09,0,0,1-2.19,2.13,2.27,2.27,0,0,1-1.48-.53,2.17,2.17,0,1,1,3.67-1.6Z"/>
      <path class="cls-1" d="M77.63,353a2.13,2.13,0,1,1,0,4.26,2.25,2.25,0,0,1-1.48-.53,2,2,0,0,1-.7-1.6A2.08,2.08,0,0,1,77.63,353Z"/>
      <path class="cls-1" d="M65.21,350a2.09,2.09,0,0,1,2.12-2.18h.86c2.79,0,2.8,4.36,0,4.36h-.86a2,2,0,0,1-1.6-.7A2.24,2.24,0,0,1,65.21,350Z"/>
      <path class="cls-1" d="M81.88,341a2.1,2.1,0,0,1,2.19-2.13,2.25,2.25,0,0,1,1.47.53,2.22,2.22,0,0,1,0,3.2,2.25,2.25,0,0,1-1.48.53A2.09,2.09,0,0,1,81.88,341Z"/>
      <path class="cls-1" d="M85.78,362.07h-.43a2.09,2.09,0,0,1-2.13-2.18,2.25,2.25,0,0,1,.53-1.48,2,2,0,0,1,1.6-.7h.43c2.11,0,2.61,2.49,1.6,3.66A2.08,2.08,0,0,1,85.78,362.07Z"/>
      <path class="cls-1" d="M103.62,360.49a2.19,2.19,0,0,1-3.09,3.09l-.42-.43a2.08,2.08,0,0,1-.64-1.48v-.15a2.24,2.24,0,0,1,.68-1.42,2.09,2.09,0,0,1,3,0Z"/>
      <path class="cls-1" d="M97.12,351.19a2.25,2.25,0,0,1-1.48.53,2.13,2.13,0,1,1,0-4.26,2.27,2.27,0,0,1,1.48.53A2.23,2.23,0,0,1,97.12,351.19Z"/>
      <path class="cls-1" d="M100.17,342.18a2,2,0,0,1-.7-1.6,2.18,2.18,0,1,1,2.18,2.13A2.22,2.22,0,0,1,100.17,342.18Z"/>
      <path class="cls-1" d="M94.67,332.2a2.06,2.06,0,0,1-1.6.7h-.86a2.08,2.08,0,0,1-1.6-.7,2.28,2.28,0,0,1-.52-1.48,2.09,2.09,0,0,1,2.12-2.19h.86C95.19,328.53,95.67,331,94.67,332.2Z"/>
      <path class="cls-1" d="M107.85,332.75a2.24,2.24,0,0,1-1.48.52,2.13,2.13,0,1,1,0-4.25,2.13,2.13,0,0,1,1.48,3.73Z"/>
      <path class="cls-1" d="M115,338.46a2.13,2.13,0,1,1,0,4.25,2.22,2.22,0,0,1-1.48-.53,2,2,0,0,1-.7-1.6A2.09,2.09,0,0,1,115,338.46Z"/>
      <path class="cls-1" d="M108.09,317a2.26,2.26,0,0,1,1.48.52,2.22,2.22,0,0,1,0,3.2,2.19,2.19,0,0,1-1.47.53,2.13,2.13,0,1,1,0-4.25Z"/>
      <path class="cls-1" d="M90.93,320h.43c2.79,0,2.79,4.37,0,4.37h-.43a2,2,0,0,1-1.6-.7,2.29,2.29,0,0,1-.53-1.48A2.09,2.09,0,0,1,90.93,320Z"/>
      <path class="cls-1" d="M84.68,318.16a2.25,2.25,0,0,1-1.48.53,2.13,2.13,0,1,1,0-4.26,2.29,2.29,0,0,1,1.48.53A2.23,2.23,0,0,1,84.68,318.16Z"/>
      <path class="cls-1" d="M58.68,341.71a2.15,2.15,0,0,1-.36-1.18,2.19,2.19,0,0,1,.25-1l.43-.86a1.94,1.94,0,0,1,1.26-1.08,2.14,2.14,0,0,1,1.48.19,2.22,2.22,0,0,1,1.06,3l-.43.86a1.93,1.93,0,0,1-1.63,1.13A2.35,2.35,0,0,1,58.68,341.71Z"/>
    </g>
    <g>
      <path class="cls-1" d="M4.06,392.6a2.09,2.09,0,0,1,2.13-2.19h.42c2.12,0,2.61,2.5,1.61,3.67a2.09,2.09,0,0,1-1.61.7H6.19a2,2,0,0,1-1.6-.7A2.24,2.24,0,0,1,4.06,392.6Z"/>
      <path class="cls-1" d="M20.4,397.05h.43c2.11,0,2.6,2.49,1.6,3.66a2.08,2.08,0,0,1-1.6.7H20.4a2.08,2.08,0,0,1-1.6-.7,2.27,2.27,0,0,1-.53-1.48A2.09,2.09,0,0,1,20.4,397.05Z"/>
      <path class="cls-1" d="M0,402.46a2.09,2.09,0,0,1,2.13-2.18h.43c2.79,0,2.79,4.37,0,4.37H2.13a2,2,0,0,1-1.6-.71A2.25,2.25,0,0,1,0,402.46Z"/>
      <path class="cls-1" d="M11.11,409.07a2.09,2.09,0,0,1-.36-1.17,2.36,2.36,0,0,1,.25-1l.44-.85a1.94,1.94,0,0,1,1.64-1.13A2.36,2.36,0,0,1,15.14,406a2.13,2.13,0,0,1,.1,2.18l-.43.85a2,2,0,0,1-1.65,1.13A2.35,2.35,0,0,1,11.11,409.07Z"/>
      <path class="cls-1" d="M.86,416.19A2.09,2.09,0,0,1,3,414h.42c2.12,0,2.61,2.5,1.61,3.66a2.09,2.09,0,0,1-1.61.7H3a2,2,0,0,1-1.6-.7A2.22,2.22,0,0,1,.86,416.19Z"/>
      <path class="cls-1" d="M3.79,425.68A2.09,2.09,0,0,1,6,423.55a2.27,2.27,0,0,1,1.48.53,2.23,2.23,0,0,1,0,3.2,2.25,2.25,0,0,1-1.48.53A2.09,2.09,0,0,1,3.79,425.68Z"/>
      <path class="cls-1" d="M2.1,437.78a2.08,2.08,0,0,1,2.18-2.13,2.27,2.27,0,0,1,1.48.53,2.22,2.22,0,0,1,0,3.2,2.27,2.27,0,0,1-1.48.53A2.08,2.08,0,0,1,2.1,437.78Z"/>
      <path class="cls-1" d="M11.2,432.67a2.09,2.09,0,0,1,2.19-2.13,2.24,2.24,0,0,1,1.48.53,2,2,0,0,1,.7,1.6,2.09,2.09,0,0,1-2.19,2.12,2.28,2.28,0,0,1-1.48-.52A2.08,2.08,0,0,1,11.2,432.67Z"/>
      <path class="cls-1" d="M.43,451.37A2.2,2.2,0,0,1,1,449.89a2,2,0,0,1,1.6-.7H3c2.11,0,2.59,2.49,1.6,3.66a2.08,2.08,0,0,1-1.6.7H2.56A2.09,2.09,0,0,1,.43,451.37Z"/>
      <path class="cls-1" d="M12.13,447.7l.4-.46a2,2,0,0,1,1.87-.67,2.33,2.33,0,0,1,1.71,1.55,2.15,2.15,0,0,1-.44,2.16l-.4.45a1.94,1.94,0,0,1-1.87.68,2.36,2.36,0,0,1-1.71-1.56,2.14,2.14,0,0,1,.44-2.15Z"/>
      <path class="cls-1" d="M1.23,467.67a2.09,2.09,0,0,1,2.18-2.13,2.25,2.25,0,0,1,1.48.53,2.22,2.22,0,0,1,0,3.2,2.25,2.25,0,0,1-1.48.53A2.09,2.09,0,0,1,1.23,467.67Z"/>
      <path class="cls-1" d="M8,459.66v-.43a2.09,2.09,0,0,1,2.18-2.12,2.24,2.24,0,0,1,1.48.52,2,2,0,0,1,.7,1.6v.43a2.08,2.08,0,0,1-2.18,2.13,2.27,2.27,0,0,1-1.48-.53A2,2,0,0,1,8,459.66Z"/>
      <path class="cls-1" d="M17.14,462.54a2.2,2.2,0,0,1,1.48.53,2,2,0,0,1,.71,1.6,2.09,2.09,0,0,1-2.19,2.12,2.26,2.26,0,0,1-1.48-.52,2.14,2.14,0,0,1,1.48-3.73Z"/>
      <path class="cls-1" d="M.43,483.11A2.22,2.22,0,0,1,1,481.63a2,2,0,0,1,1.6-.7h.85c2.12,0,2.61,2.49,1.61,3.66a2.05,2.05,0,0,1-1.61.7H2.56A2.08,2.08,0,0,1,.43,483.11Z"/>
      <path class="cls-1" d="M9,477a2.09,2.09,0,0,1,2.18-2.13,2.25,2.25,0,0,1,1.48.53,2.22,2.22,0,0,1,0,3.2,2.24,2.24,0,0,1-1.48.52A2.09,2.09,0,0,1,9,477Z"/>
      <path class="cls-1" d="M22.08,477.3a2.18,2.18,0,1,1,2.18,2.13,2.26,2.26,0,0,1-1.48-.52A2.09,2.09,0,0,1,22.08,477.3Z"/>
      <path class="cls-1" d="M2.86,494.69a2.25,2.25,0,0,1,.53-1.47,2.05,2.05,0,0,1,1.6-.71h.86c2.11,0,2.6,2.5,1.6,3.67a2.08,2.08,0,0,1-1.6.7H5A2.09,2.09,0,0,1,2.86,494.69Z"/>
      <path class="cls-1" d="M12,486a2.09,2.09,0,0,1,2.18-2.13,2.25,2.25,0,0,1,1.48.53,2.22,2.22,0,0,1,0,3.2,2.24,2.24,0,0,1-1.48.52A2.09,2.09,0,0,1,12,486Z"/>
      <path class="cls-1" d="M7.72,503.27a2.29,2.29,0,0,1,.53-1.48,2.08,2.08,0,0,1,1.6-.7h.43c2.79,0,2.79,4.37,0,4.37H9.85A2.09,2.09,0,0,1,7.72,503.27Z"/>
      <path class="cls-1" d="M1.29,509.28a2.09,2.09,0,0,1,2.12-2.18h.43c2.79,0,2.8,4.36,0,4.36H3.41a2,2,0,0,1-1.6-.7A2.24,2.24,0,0,1,1.29,509.28Z"/>
      <path class="cls-1" d="M2,528.59a2.08,2.08,0,0,1,2.18-2.13,2.13,2.13,0,1,1,0,4.25,2.24,2.24,0,0,1-1.48-.52A2,2,0,0,1,2,528.59Z"/>
      <path class="cls-1" d="M5.09,517a2.1,2.1,0,0,1,2.19-2.13,2.27,2.27,0,0,1,1.48.53,2.22,2.22,0,0,1,0,3.2,2.25,2.25,0,0,1-1.47.53A2.09,2.09,0,0,1,5.09,517Z"/>
      <path class="cls-1" d="M19.21,509.52a2.09,2.09,0,0,1,2.19-2.13,2.27,2.27,0,0,1,1.48.53,2.23,2.23,0,0,1,0,3.2,2.29,2.29,0,0,1-1.48.53A2.1,2.1,0,0,1,19.21,509.52Z"/>
      <path class="cls-1" d="M11.05,529.2a2.09,2.09,0,0,1,2.19-2.13,2.29,2.29,0,0,1,1.48.53,2.23,2.23,0,0,1,0,3.2,2.25,2.25,0,0,1-1.48.53A2.09,2.09,0,0,1,11.05,529.2Z"/>
      <path class="cls-1" d="M14.94,518.7a2.09,2.09,0,0,1,2.19-2.13,2.13,2.13,0,1,1,0,4.26,2.29,2.29,0,0,1-1.48-.53A2.08,2.08,0,0,1,14.94,518.7Z"/>
      <path class="cls-1" d="M21,532.41a2.09,2.09,0,0,1,2.18-2.13,2.24,2.24,0,0,1,1.48.52,1.8,1.8,0,0,1,.54.85,2.25,2.25,0,0,0-1.59-.64,2.09,2.09,0,0,0-2.13,1.62H21A1.74,1.74,0,0,1,21,532.41Z"/>
      <path class="cls-1" d="M36.05,528.59V529a2,2,0,0,1-.7,1.6,2.2,2.2,0,0,1-1.48.53A2.09,2.09,0,0,1,31.69,529v-.42a2.18,2.18,0,0,1,4.36,0Z"/>
      <path class="cls-1" d="M28.31,519.58a2.09,2.09,0,0,1,2.13-2.19h.43c2.79,0,2.79,4.37,0,4.37h-.43a2.08,2.08,0,0,1-1.6-.7A2.29,2.29,0,0,1,28.31,519.58Z"/>
      <path class="cls-1" d="M30.4,503.27a2.09,2.09,0,0,1,2.19-2.12,2.28,2.28,0,0,1,1.48.52,2.13,2.13,0,0,1-1.49,3.73A2.09,2.09,0,0,1,30.4,503.27Z"/>
      <path class="cls-1" d="M20.54,498.13A2.08,2.08,0,0,1,22.72,496a2.27,2.27,0,0,1,1.48.53,2,2,0,0,1,.7,1.6,2.09,2.09,0,0,1-2.18,2.12,2.24,2.24,0,0,1-1.48-.52A2,2,0,0,1,20.54,498.13Z"/>
      <path class="cls-1" d="M23.17,488.69a2.09,2.09,0,0,1,2.12-2.18h.43c2.12,0,2.6,2.49,1.6,3.66a2.06,2.06,0,0,1-1.6.7h-.43a2.08,2.08,0,0,1-1.6-.7A2.26,2.26,0,0,1,23.17,488.69Z"/>
      <path class="cls-1" d="M35.16,479.23a2.24,2.24,0,0,1-1.48-.52A2.14,2.14,0,0,1,35.16,475a2.27,2.27,0,0,1,1.48.53,2,2,0,0,1,.7,1.6A2.09,2.09,0,0,1,35.16,479.23Z"/>
      <path class="cls-1" d="M28.06,469.27a2.27,2.27,0,0,1-1.48.53,2.13,2.13,0,1,1,0-4.26,2.27,2.27,0,0,1,1.48.53A2.22,2.22,0,0,1,28.06,469.27Z"/>
      <path class="cls-1" d="M21.39,456.51a2.09,2.09,0,0,1,2.19-2.12,2.26,2.26,0,0,1,1.48.52,2.08,2.08,0,0,1,.7,1.6V457a2.09,2.09,0,0,1-2.18,2.12,2.24,2.24,0,0,1-1.48-.52,2.05,2.05,0,0,1-.71-1.6Z"/>
      <path class="cls-1" d="M35.2,448.37v.85a2,2,0,0,1-.71,1.6,2.25,2.25,0,0,1-1.48.53,2.09,2.09,0,0,1-2.18-2.13v-.85a2.19,2.19,0,0,1,4.37,0Z"/>
      <path class="cls-1" d="M38.56,459.84v-.11a2,2,0,0,1,1.12-1.64l.86-.44a2.22,2.22,0,0,1,3,1,2,2,0,0,1-.88,2.76l-.85.44a2.15,2.15,0,0,1-2.19-.1A2.37,2.37,0,0,1,38.56,459.84Z"/>
      <path class="cls-1" d="M19.68,438.5a2.18,2.18,0,1,1,2.18,2.13,2.27,2.27,0,0,1-1.48-.53A2.08,2.08,0,0,1,19.68,438.5Z"/>
      <path class="cls-1" d="M17.14,420.07a2.13,2.13,0,1,1,0,4.26,2.13,2.13,0,1,1,0-4.26Z"/>
      <path class="cls-1" d="M27,427.35a2.19,2.19,0,1,1,2.18,2.12,2.26,2.26,0,0,1-1.48-.52A2.08,2.08,0,0,1,27,427.35Z"/>
      <path class="cls-1" d="M93.78,468.36a2.24,2.24,0,0,1-1.48.52,2.13,2.13,0,1,1,0-4.25,2.13,2.13,0,0,1,1.48,3.73Z"/>
      <path class="cls-1" d="M22.08,411.15A2.09,2.09,0,0,1,24.27,409a2.27,2.27,0,0,1,1.48.53,2.23,2.23,0,0,1,0,3.2,2.28,2.28,0,0,1-1.48.52A2.09,2.09,0,0,1,22.08,411.15Z"/>
      <path class="cls-1" d="M33.89,402.54a2.13,2.13,0,1,1,0,4.25,2.26,2.26,0,0,1-1.48-.52,2.14,2.14,0,0,1,1.48-3.73Z"/>
      <path class="cls-1" d="M47.24,410.7a2.28,2.28,0,0,1,1.48.52A2.15,2.15,0,0,1,47.23,415a2.29,2.29,0,0,1-1.48-.53,2,2,0,0,1-.7-1.6A2.09,2.09,0,0,1,47.24,410.7Z"/>
      <path class="cls-1" d="M38.59,394.33a2.13,2.13,0,1,1,0,4.26,2.27,2.27,0,0,1-1.48-.53,2.14,2.14,0,0,1,1.48-3.73Z"/>
      <path class="cls-1" d="M57.78,395.79a2,2,0,0,1-1.6.7h-.43a2.08,2.08,0,0,1-2.13-2.18,2.27,2.27,0,0,1,.53-1.48,2.08,2.08,0,0,1,1.6-.7h.43C58.29,392.13,58.79,394.62,57.78,395.79Z"/>
      <path class="cls-1" d="M80.3,480.44a2.26,2.26,0,0,1-1.48-.52,2.23,2.23,0,1,1,1.48.52Z"/>
      <path class="cls-1" d="M34.75,417.48a2.24,2.24,0,0,1,.52-1.48,2.05,2.05,0,0,1,1.61-.7h.42c2.79,0,2.8,4.36,0,4.36h-.42A2.09,2.09,0,0,1,34.75,417.48Z"/>
      <path class="cls-1" d="M36.62,439.61a2.05,2.05,0,0,1-.64-1.47,2.26,2.26,0,0,1,.68-1.58,2.08,2.08,0,0,1,3,0l.43.42A2.18,2.18,0,0,1,37.05,440Z"/>
      <path class="cls-1" d="M48.46,434.23a2.26,2.26,0,0,1,1.48.52,2.14,2.14,0,0,1-1.48,3.73A2.25,2.25,0,0,1,47,438a2,2,0,0,1-.7-1.6A2.08,2.08,0,0,1,48.46,434.23Z"/>
      <path class="cls-1" d="M44.79,428.52a2.26,2.26,0,0,1-1.48.52,2.13,2.13,0,1,1,0-4.25,2.26,2.26,0,0,1,1.48.52A2.23,2.23,0,0,1,44.79,428.52Z"/>
      <path class="cls-1" d="M61.52,412.64a2.27,2.27,0,0,1-1.48.53,2.13,2.13,0,1,1,0-4.26,2.27,2.27,0,0,1,1.48.53A2.22,2.22,0,0,1,61.52,412.64Z"/>
      <path class="cls-1" d="M53.64,403.75a2.09,2.09,0,0,1-2.18,2.13,2.27,2.27,0,0,1-1.48-.53,2.16,2.16,0,1,1,3.66-1.6Z"/>
      <path class="cls-1" d="M71.66,394.31v.43a2.08,2.08,0,0,1-.7,1.6,2.27,2.27,0,0,1-1.48.53,2.08,2.08,0,0,1-2.18-2.13v-.43a2.18,2.18,0,0,1,4.36,0Z"/>
      <path class="cls-1" d="M78.06,405.45a2.13,2.13,0,1,1,0-4.26,2.27,2.27,0,0,1,1.48.53,2.23,2.23,0,0,1,0,3.2A2.27,2.27,0,0,1,78.06,405.45Z"/>
      <path class="cls-1" d="M92.68,395.17a2.09,2.09,0,0,1-2.18,2.13,2.25,2.25,0,0,1-1.48-.53,2,2,0,0,1-.7-1.6,2.18,2.18,0,0,1,4.36,0Z"/>
      <path class="cls-1" d="M103.48,400.55a2.08,2.08,0,0,1,1.6-.7h.43c2.12,0,2.61,2.5,1.6,3.67a2,2,0,0,1-1.6.7h-.43A2.09,2.09,0,0,1,103,402,2.28,2.28,0,0,1,103.48,400.55Z"/>
      <path class="cls-1" d="M98.53,415.1a2,2,0,0,1-1.6.7H96.5a2.09,2.09,0,0,1-2.12-2.18,2.24,2.24,0,0,1,.52-1.48,2.05,2.05,0,0,1,1.6-.71h.43C99.05,411.43,99.54,413.93,98.53,415.1Z"/>
      <path class="cls-1" d="M91.82,408a2.09,2.09,0,0,1-2.18,2.13,2.27,2.27,0,0,1-1.48-.53,2.14,2.14,0,0,1,1.48-3.73,2.27,2.27,0,0,1,1.48.53A2.08,2.08,0,0,1,91.82,408Z"/>
      <path class="cls-1" d="M78.92,427.33a2.25,2.25,0,0,1-1.48-.53,2.05,2.05,0,0,1-.71-1.6,2.19,2.19,0,1,1,2.19,2.13Z"/>
      <path class="cls-1" d="M73.6,415.51a2.18,2.18,0,0,1-3.09,3.08l-.43-.43a2.05,2.05,0,0,1-.64-1.47,2.26,2.26,0,0,1,.68-1.58,2.1,2.1,0,0,1,3,0Z"/>
      <path class="cls-1" d="M66,406.74a2.13,2.13,0,1,1,0-4.26,2.27,2.27,0,0,1,1.48.53,2.23,2.23,0,0,1,0,3.2A2.25,2.25,0,0,1,66,406.74Z"/>
      <path class="cls-1" d="M70.34,440.63a2.25,2.25,0,0,1-1.48-.53,2.05,2.05,0,0,1-.71-1.6v-.86a2.09,2.09,0,0,1,2.19-2.13,2.27,2.27,0,0,1,1.48.53,2.08,2.08,0,0,1,.7,1.6v.86A2.09,2.09,0,0,1,70.34,440.63Z"/>
      <path class="cls-1" d="M63.47,427.36a2.25,2.25,0,0,1,1.48.53,2.22,2.22,0,0,1,0,3.2,2.25,2.25,0,0,1-1.48.53,2.13,2.13,0,1,1,0-4.26Z"/>
      <path class="cls-1" d="M55.75,429a2.13,2.13,0,1,1,0-4.25,2.26,2.26,0,0,1,1.48.52,2.23,2.23,0,0,1,0,3.21A2.26,2.26,0,0,1,55.75,429Z"/>
      <path class="cls-1" d="M54.46,452.69a2.09,2.09,0,0,1-2.12-2.18,2.26,2.26,0,0,1,.52-1.48,2.08,2.08,0,0,1,1.6-.7h.43c2.12,0,2.61,2.49,1.6,3.66a2,2,0,0,1-1.6.7Z"/>
      <path class="cls-1" d="M45,448.79a2.09,2.09,0,0,1,2.18-2.12,2.26,2.26,0,0,1,1.48.52,2.14,2.14,0,0,1-1.48,3.73,2.22,2.22,0,0,1-1.48-.53A2,2,0,0,1,45,448.79Z"/>
      <path class="cls-1" d="M52.32,463a2.26,2.26,0,0,1,1.48.52,2.23,2.23,0,0,1,0,3.21,2.26,2.26,0,0,1-1.48.52,2.13,2.13,0,1,1,0-4.25Z"/>
      <path class="cls-1" d="M48,472.41a2.13,2.13,0,1,1,0,4.25,2.25,2.25,0,0,1-1.48-.53,2,2,0,0,1-.71-1.6A2.09,2.09,0,0,1,48,472.41Z"/>
      <path class="cls-1" d="M45.9,487.4a2.27,2.27,0,0,1,.53-1.48,2.08,2.08,0,0,1,1.6-.7h.86c2.11,0,2.6,2.5,1.6,3.66a2.05,2.05,0,0,1-1.6.71H48A2.09,2.09,0,0,1,45.9,487.4Z"/>
      <path class="cls-1" d="M36.62,492a2.05,2.05,0,0,1-.64-1.47,2.23,2.23,0,0,1,.68-1.58,2.08,2.08,0,0,1,3,0l.43.43a2,2,0,0,1,.57,2A2.35,2.35,0,0,1,39.06,493a2.06,2.06,0,0,1-2-.57Z"/>
      <path class="cls-1" d="M36.89,512.28A2.09,2.09,0,0,1,39,510.1h.43c2.11,0,2.6,2.5,1.6,3.66a2.05,2.05,0,0,1-1.6.71H39a2.05,2.05,0,0,1-1.6-.71A2.25,2.25,0,0,1,36.89,512.28Z"/>
      <path class="cls-1" d="M41.13,524.29a2.09,2.09,0,0,1,2.18-2.12,2.26,2.26,0,0,1,1.48.52,2.23,2.23,0,0,1,0,3.21,2.26,2.26,0,0,1-1.48.52A2.09,2.09,0,0,1,41.13,524.29Z"/>
      <path class="cls-1" d="M52.08,526.55a2.13,2.13,0,0,1-1.48,3.73,2.13,2.13,0,1,1,0-4.25A2.24,2.24,0,0,1,52.08,526.55Z"/>
      <path class="cls-1" d="M63.44,520.43a2.08,2.08,0,0,1,2.18-2.12,2.26,2.26,0,0,1,1.48.52,2.24,2.24,0,0,1,0,3.21,2.28,2.28,0,0,1-1.48.52A2.08,2.08,0,0,1,63.44,520.43Z"/>
      <path class="cls-1" d="M112.73,528.05a2.09,2.09,0,0,1,2.13-2.18h.43c2.11,0,2.6,2.49,1.6,3.66a2,2,0,0,1-1.6.7h-.43a2,2,0,0,1-1.6-.7A2.25,2.25,0,0,1,112.73,528.05Z"/>
      <path class="cls-1" d="M110.19,521.29a2.19,2.19,0,1,1,2.19,2.13,2.25,2.25,0,0,1-1.48-.53A2,2,0,0,1,110.19,521.29Z"/>
      <path class="cls-1" d="M100.79,523.9a2,2,0,0,1-1.6-.7,2.24,2.24,0,0,1-.52-1.48,2.09,2.09,0,0,1,2.12-2.18h.43c2.79,0,2.8,4.36,0,4.36Z"/>
      <path class="cls-1" d="M88.35,524.76h-.43a2.09,2.09,0,0,1-2.12-2.18,2.24,2.24,0,0,1,.52-1.48,2,2,0,0,1,1.6-.7h.43c2.12,0,2.61,2.49,1.6,3.66A2,2,0,0,1,88.35,524.76Z"/>
      <path class="cls-1" d="M83.2,508.81h.43c2.12,0,2.61,2.5,1.61,3.67a2.09,2.09,0,0,1-1.61.7H83.2a2.19,2.19,0,0,1,0-4.37Z"/>
      <path class="cls-1" d="M99.12,512.71a2.09,2.09,0,0,1-2.19,2.13,2.27,2.27,0,0,1-1.48-.53,2,2,0,0,1-.7-1.6,2.19,2.19,0,0,1,4.37,0Z"/>
      <path class="cls-1" d="M99.51,499.43a2.13,2.13,0,1,1,0,4.26,2.25,2.25,0,0,1-1.48-.53,2.05,2.05,0,0,1-.71-1.6A2.09,2.09,0,0,1,99.51,499.43Z"/>
      <path class="cls-1" d="M111.52,506.24H112c2.11,0,2.6,2.5,1.6,3.66a2.05,2.05,0,0,1-1.6.71h-.43a2.19,2.19,0,0,1,0-4.37Z"/>
      <path class="cls-1" d="M115.85,452.23a2.09,2.09,0,0,1-2.19,2.12,2.26,2.26,0,0,1-1.48-.52,2.17,2.17,0,1,1,3.67-1.6Z"/>
      <path class="cls-1" d="M110.78,469.62a2,2,0,0,1,1.6-.7h.42c2.79,0,2.8,4.36,0,4.36h-.42a2.08,2.08,0,0,1-2.13-2.18A2.22,2.22,0,0,1,110.78,469.62Z"/>
      <path class="cls-1" d="M114.71,496.3a2.24,2.24,0,0,1-1.48.52,2.13,2.13,0,1,1,0-4.25,2.13,2.13,0,0,1,1.48,3.73Z"/>
      <path class="cls-1" d="M102.12,489.55a2.09,2.09,0,0,1-2.19,2.12,2.28,2.28,0,0,1-1.48-.52,2.15,2.15,0,0,1,1.49-3.73,2.27,2.27,0,0,1,1.48.53A2,2,0,0,1,102.12,489.55Z"/>
      <path class="cls-1" d="M106.84,477.11a2.09,2.09,0,0,1-2.19,2.12,2.26,2.26,0,0,1-1.48-.52,2.14,2.14,0,0,1,1.48-3.73,2.25,2.25,0,0,1,1.48.53A2,2,0,0,1,106.84,477.11Z"/>
      <path class="cls-1" d="M91.24,477.3a2.08,2.08,0,0,1-1.6.7h-.43a2.08,2.08,0,0,1-2.13-2.18,2.27,2.27,0,0,1,.53-1.48,2.08,2.08,0,0,1,1.6-.7h.43C91.76,473.64,92.25,476.13,91.24,477.3Z"/>
      <path class="cls-1" d="M90.07,494.73h-.43A2.08,2.08,0,0,1,88,494a2.27,2.27,0,0,1-.53-1.48,2.09,2.09,0,0,1,2.13-2.18h.43C92.86,490.37,92.86,494.73,90.07,494.73Z"/>
      <path class="cls-1" d="M79.77,498.54a2.27,2.27,0,0,1-1.48-.53,2,2,0,0,1-.7-1.6,2.19,2.19,0,1,1,2.18,2.13Z"/>
      <path class="cls-1" d="M69.07,509.28a2.09,2.09,0,0,1,2.12-2.18h.43c2.79,0,2.8,4.36,0,4.36h-.43a2,2,0,0,1-1.6-.7A2.24,2.24,0,0,1,69.07,509.28Z"/>
      <path class="cls-1" d="M63.9,503.74a2.08,2.08,0,0,1-1.6-.7,2.27,2.27,0,0,1-.53-1.48,2.08,2.08,0,0,1,2.13-2.18h.43c2.79,0,2.8,4.36,0,4.36Z"/>
      <path class="cls-1" d="M56.61,511.44a2.13,2.13,0,1,1-2.19,2.13A2.1,2.1,0,0,1,56.61,511.44Z"/>
      <path class="cls-1" d="M47.62,505.42a2.24,2.24,0,0,1,.52-1.48,2.08,2.08,0,0,1,1.6-.7h.86c2.12,0,2.61,2.49,1.6,3.66a2,2,0,0,1-1.6.7h-.86A2.09,2.09,0,0,1,47.62,505.42Z"/>
      <path class="cls-1" d="M42.45,499.81h.43c2.12,0,2.61,2.49,1.6,3.66a2.08,2.08,0,0,1-1.6.7h-.43a2.18,2.18,0,0,1,0-4.36Z"/>
      <path class="cls-1" d="M60.47,489.51c2.79,0,2.8,4.36,0,4.36H60a2,2,0,0,1-1.6-.7,2.25,2.25,0,0,1-.53-1.48A2.09,2.09,0,0,1,60,489.51Z"/>
      <path class="cls-1" d="M60.49,478a2.09,2.09,0,0,1,2.12-2.18H63c2.79,0,2.8,4.37,0,4.37h-.43a2.05,2.05,0,0,1-1.6-.71A2.24,2.24,0,0,1,60.49,478Z"/>
      <path class="cls-1" d="M73.77,483.56A2.09,2.09,0,0,1,76,485.69v.42a2.09,2.09,0,0,1-.7,1.61,2.28,2.28,0,0,1-1.48.52,2.09,2.09,0,0,1-2.19-2.13v-.42A2.09,2.09,0,0,1,73.77,483.56Z"/>
      <path class="cls-1" d="M72,469.81a2.08,2.08,0,0,1,2.18-2.12,2.26,2.26,0,0,1,1.48.52,2.13,2.13,0,0,1-1.48,3.73A2.08,2.08,0,0,1,72,469.81Z"/>
      <path class="cls-1" d="M68.66,464.24a2.09,2.09,0,0,1-2.19,2.13,2.27,2.27,0,0,1-1.48-.53,2.17,2.17,0,1,1,3.67-1.6Z"/>
      <path class="cls-1" d="M77.63,453.53a2.13,2.13,0,1,1,0,4.26,2.25,2.25,0,0,1-1.48-.53,2,2,0,0,1-.7-1.6A2.08,2.08,0,0,1,77.63,453.53Z"/>
      <path class="cls-1" d="M65.21,450.51a2.09,2.09,0,0,1,2.12-2.18h.86c2.79,0,2.8,4.36,0,4.36h-.86a2.08,2.08,0,0,1-1.6-.7A2.26,2.26,0,0,1,65.21,450.51Z"/>
      <path class="cls-1" d="M81.88,441.5a2.09,2.09,0,0,1,2.19-2.13,2.25,2.25,0,0,1,1.47.53,2.22,2.22,0,0,1,0,3.2,2.25,2.25,0,0,1-1.48.53A2.09,2.09,0,0,1,81.88,441.5Z"/>
      <path class="cls-1" d="M85.78,462.56h-.43a2.09,2.09,0,0,1-2.13-2.18,2.25,2.25,0,0,1,.53-1.48,2.05,2.05,0,0,1,1.6-.71h.43c2.11,0,2.61,2.5,1.6,3.67A2.08,2.08,0,0,1,85.78,462.56Z"/>
      <path class="cls-1" d="M103.62,461a2.18,2.18,0,0,1-3.09,3.08l-.42-.42a2.08,2.08,0,0,1-.64-1.48V462a2.24,2.24,0,0,1,.68-1.42,2.09,2.09,0,0,1,3,0Z"/>
      <path class="cls-1" d="M97.12,451.68a2.25,2.25,0,0,1-1.48.53,2.13,2.13,0,1,1,0-4.26,2.27,2.27,0,0,1,1.48.53A2.23,2.23,0,0,1,97.12,451.68Z"/>
      <path class="cls-1" d="M100.17,442.67a2,2,0,0,1-.7-1.6,2.18,2.18,0,1,1,2.18,2.13A2.27,2.27,0,0,1,100.17,442.67Z"/>
      <path class="cls-1" d="M94.67,432.69a2.06,2.06,0,0,1-1.6.7h-.86a2.05,2.05,0,0,1-1.6-.71,2.24,2.24,0,0,1-.52-1.48A2.09,2.09,0,0,1,92.21,429h.86C95.19,429,95.67,431.52,94.67,432.69Z"/>
      <path class="cls-1" d="M107.85,433.23a2.2,2.2,0,0,1-1.48.53,2.13,2.13,0,1,1,0-4.25,2.24,2.24,0,0,1,1.48.52A2.22,2.22,0,0,1,107.85,433.23Z"/>
      <path class="cls-1" d="M115,438.94a2.13,2.13,0,1,1,0,4.26,2.27,2.27,0,0,1-1.48-.53,2,2,0,0,1-.7-1.6A2.1,2.1,0,0,1,115,438.94Z"/>
      <path class="cls-1" d="M108.09,417.49a2.27,2.27,0,0,1,1.48.53,2.22,2.22,0,0,1,0,3.2,2.25,2.25,0,0,1-1.47.53,2.13,2.13,0,1,1,0-4.26Z"/>
      <path class="cls-1" d="M90.93,420.44h.43c2.79,0,2.79,4.37,0,4.37h-.43a2,2,0,0,1-1.6-.71,2.25,2.25,0,0,1-.53-1.48A2.09,2.09,0,0,1,90.93,420.44Z"/>
      <path class="cls-1" d="M84.68,418.65a2.25,2.25,0,0,1-1.48.53,2.13,2.13,0,1,1,0-4.26,2.29,2.29,0,0,1,1.48.53A2.23,2.23,0,0,1,84.68,418.65Z"/>
      <path class="cls-1" d="M58.68,442.2a2.14,2.14,0,0,1-.11-2.19l.43-.86a1.94,1.94,0,0,1,1.26-1.08,2.14,2.14,0,0,1,1.48.18,2.24,2.24,0,0,1,1.06,3l-.43.86a1.93,1.93,0,0,1-1.63,1.13A2.35,2.35,0,0,1,58.68,442.2Z"/>
      <path class="cls-1" d="M110.85,534.78a2.25,2.25,0,0,1-1.48.53,2.13,2.13,0,1,1,0-4.26,2.25,2.25,0,0,1,1.48.53A2.22,2.22,0,0,1,110.85,534.78Z"/>
      <path class="cls-1" d="M96.9,541.28a2.18,2.18,0,0,1,4.36,0v.43a2.08,2.08,0,0,1-.7,1.6,2.26,2.26,0,0,1-1.48.52,2.08,2.08,0,0,1-2.18-2.12Z"/>
      <path class="cls-1" d="M95.1,532.89a2.08,2.08,0,0,1-1.6.7h-.43a2.08,2.08,0,0,1-1.6-.7,2.26,2.26,0,0,1-.52-1.48,2.09,2.09,0,0,1,2.12-2.18h.43C95.62,529.23,96.11,531.72,95.1,532.89Z"/>
      <path class="cls-1" d="M84.06,536.52h.43c2.12,0,2.61,2.49,1.6,3.66a2,2,0,0,1-1.6.71h-.43a2.09,2.09,0,0,1-2.12-2.19,2.26,2.26,0,0,1,.52-1.48A2.08,2.08,0,0,1,84.06,536.52Z"/>
      <path class="cls-1" d="M75,535.26a2.24,2.24,0,1,1,1.48.52A2.26,2.26,0,0,1,75,535.26Z"/>
      <path class="cls-1" d="M75.55,545.93a2.27,2.27,0,0,1-1.48.53,2.13,2.13,0,1,1,0-4.26,2.27,2.27,0,0,1,1.48.53A2.22,2.22,0,0,1,75.55,545.93Z"/>
      <path class="cls-1" d="M66.51,533.13a2.08,2.08,0,0,1-.7,1.6,2.26,2.26,0,0,1-1.48.52,2.09,2.09,0,0,1-2.18-2.12v-.43a2.18,2.18,0,0,1,4.36,0Z"/>
      <path class="cls-1" d="M58.67,538.67c2.11,0,2.6,2.5,1.6,3.67a2.08,2.08,0,0,1-1.6.7h-.43a2.09,2.09,0,0,1-2.13-2.19,2.29,2.29,0,0,1,.53-1.48,2,2,0,0,1,1.6-.7Z"/>
      <path class="cls-1" d="M42.1,544.83a2.37,2.37,0,0,1-1.65-1.65,1.93,1.93,0,0,1-.07-.53,2,2,0,0,1,.64-1.47l.43-.44a2.05,2.05,0,0,1,1.63-.63,2.3,2.3,0,0,1,1.42.67,2.1,2.1,0,0,1,0,3.05l-.44.43A2,2,0,0,1,42.1,544.83Z"/>
      <path class="cls-1" d="M29.08,545.89a2.2,2.2,0,0,1,0-.36,2,2,0,0,1,.73-1.49l.46-.4a2.24,2.24,0,0,1,3.21.28,1.94,1.94,0,0,1-.19,2.86l-.45.4a2.18,2.18,0,0,1-2.17.43A2.36,2.36,0,0,1,29.08,545.89Z"/>
      <path class="cls-1" d="M23.58,531a2.25,2.25,0,0,1,1.59.64,2.06,2.06,0,0,1,.59,1.48,2.09,2.09,0,0,1-2.18,2.13,2.2,2.2,0,0,1-1.48-.53,2.15,2.15,0,0,1-.65-2.1A2.09,2.09,0,0,1,23.58,531Z"/>
      <path class="cls-1" d="M14.29,542.91v-.43a2.09,2.09,0,0,1,2.18-2.13,2.09,2.09,0,0,1,2.18,2.13v.43a2.08,2.08,0,0,1-.7,1.6,2.26,2.26,0,0,1-1.48.52A2.09,2.09,0,0,1,14.29,542.91Z"/>
      <path class="cls-1" d="M4.56,542.28v-.86a2.1,2.1,0,0,1,2.18-2.13,2.25,2.25,0,0,1,1.48.53,2.08,2.08,0,0,1,.7,1.6v.86a2.08,2.08,0,0,1-.7,1.6,2.25,2.25,0,0,1-1.48.53A2.09,2.09,0,0,1,4.56,542.28Z"/>
      <path class="cls-1" d="M.43,552A2.22,2.22,0,0,1,1,550.52a2,2,0,0,1,1.6-.7H3c2.11,0,2.59,2.5,1.6,3.66a2.05,2.05,0,0,1-1.6.71H2.56A2.09,2.09,0,0,1,.43,552Z"/>
      <path class="cls-1" d="M13.07,557.89a2.09,2.09,0,0,1,2.18-2.12,2.08,2.08,0,0,1,2.18,2.12v.43a2,2,0,0,1-.7,1.6,2.25,2.25,0,0,1-1.48.53,2.09,2.09,0,0,1-2.18-2.13Z"/>
      <path class="cls-1" d="M4.06,561.87a2.09,2.09,0,0,1,2.13-2.18h.42c2.12,0,2.61,2.49,1.61,3.66a2.09,2.09,0,0,1-1.61.7H6.19a2,2,0,0,1-1.6-.7A2.22,2.22,0,0,1,4.06,561.87Z"/>
      <path class="cls-1" d="M21.05,547.78a2.13,2.13,0,1,1,0,4.26,2.27,2.27,0,0,1-1.48-.53,2.14,2.14,0,0,1,1.48-3.73Z"/>
      <path class="cls-1" d="M29.15,555a2.13,2.13,0,1,1,0,4.26,2.27,2.27,0,0,1-1.48-.53A2.14,2.14,0,0,1,29.15,555Z"/>
      <path class="cls-1" d="M20.4,566.32h.43c2.11,0,2.6,2.49,1.6,3.66a2,2,0,0,1-1.6.7H20.4a2,2,0,0,1-1.6-.7,2.25,2.25,0,0,1-.53-1.48A2.09,2.09,0,0,1,20.4,566.32Z"/>
      <path class="cls-1" d="M38.59,563.6a2.13,2.13,0,1,1,0,4.26,2.27,2.27,0,0,1-1.48-.53,2.14,2.14,0,0,1,1.48-3.73Z"/>
      <path class="cls-1" d="M42,553.68h.86c2.12,0,2.61,2.49,1.6,3.66a2.05,2.05,0,0,1-1.6.71H42a2.1,2.1,0,0,1-2.13-2.19,2.27,2.27,0,0,1,.53-1.48A2.08,2.08,0,0,1,42,553.68Z"/>
      <path class="cls-1" d="M53.61,546.44a2.13,2.13,0,1,1,0,4.26,2.29,2.29,0,0,1-1.48-.53,2.15,2.15,0,0,1,1.49-3.73Z"/>
      <path class="cls-1" d="M57.78,565.07a2.08,2.08,0,0,1-1.6.7h-.43a2.09,2.09,0,0,1-2.13-2.19,2.29,2.29,0,0,1,.53-1.48,2.08,2.08,0,0,1,1.6-.7h.43C58.29,561.4,58.79,563.9,57.78,565.07Z"/>
      <path class="cls-1" d="M71.66,563.59V564a2,2,0,0,1-.7,1.6,2.22,2.22,0,0,1-1.48.53A2.08,2.08,0,0,1,67.3,564v-.42a2.18,2.18,0,0,1,4.36,0Z"/>
      <path class="cls-1" d="M64.29,554.15A2.09,2.09,0,0,1,66.48,552a2.25,2.25,0,0,1,1.47.53,2.22,2.22,0,0,1,0,3.2,2.24,2.24,0,0,1-1.48.52A2.09,2.09,0,0,1,64.29,554.15Z"/>
      <path class="cls-1" d="M89.4,555.75a2.24,2.24,0,0,1-1.48.52,2.13,2.13,0,1,1,0-4.25,2.29,2.29,0,0,1,1.48.53A2.23,2.23,0,0,1,89.4,555.75Z"/>
      <path class="cls-1" d="M77.2,555a2.13,2.13,0,1,1,0,4.26,2.27,2.27,0,0,1-1.48-.53A2.14,2.14,0,0,1,77.2,555Z"/>
      <path class="cls-1" d="M92.68,564.44a2.09,2.09,0,0,1-2.18,2.13A2.2,2.2,0,0,1,89,566a2,2,0,0,1-.7-1.6,2.18,2.18,0,0,1,4.36,0Z"/>
      <path class="cls-1" d="M104.42,559.61a2.27,2.27,0,0,1-1.48.53,2.13,2.13,0,1,1,0-4.26,2.27,2.27,0,0,1,1.48.53A2.22,2.22,0,0,1,104.42,559.61Z"/>
      <path class="cls-1" d="M98.22,553.76h-.43a2.09,2.09,0,0,1-2.13-2.19,2.29,2.29,0,0,1,.53-1.48,2.08,2.08,0,0,1,1.6-.7h.43c2.11,0,2.61,2.5,1.6,3.67A2.08,2.08,0,0,1,98.22,553.76Z"/>
      <path class="cls-1" d="M113.23,548.59a2.3,2.3,0,0,1,1.48.52,2.13,2.13,0,0,1-1.48,3.73,2.13,2.13,0,1,1,0-4.25Z"/>
    </g>
  </g>
</svg>
