<svg id="Layer_1" data-name="Layer 1" xmlns="http://www.w3.org/2000/svg" width="29.31" height="30.58" viewBox="0 0 29.31 30.58">
  <defs>
    <style>
      .cls-1 {
        opacity: 0.2;
      }
    </style>
  </defs>
  <title>twitter</title>
  <g class="cls-1">
    <path d="M14.65,0C6.57,0,0,6.86,0,15.29S6.57,30.58,14.65,30.58s14.66-6.86,14.66-15.29S22.73,0,14.65,0Zm6.54,11.79c0,.15,0,.3,0,.46,0,4.65-3.39,10-9.6,10a9.28,9.28,0,0,1-5.17-1.58,7.34,7.34,0,0,0,.81.05,6.57,6.57,0,0,0,4.19-1.51,3.39,3.39,0,0,1-3.15-2.44,3.21,3.21,0,0,0,.63.06,3.24,3.24,0,0,0,.89-.12,3.49,3.49,0,0,1-2.71-3.45v0a3.24,3.24,0,0,0,1.53.44,3.57,3.57,0,0,1-1.5-2.93A3.64,3.64,0,0,1,7.58,9a9.46,9.46,0,0,0,7,3.68,3.5,3.5,0,0,1-.09-.8,3.45,3.45,0,0,1,3.37-3.52,3.34,3.34,0,0,1,2.47,1.11,6.85,6.85,0,0,0,2.14-.85,3.51,3.51,0,0,1-1.49,1.94A6.29,6.29,0,0,0,22.87,10,6.79,6.79,0,0,1,21.19,11.79Z"/>
  </g>
</svg>
